<?xml version="1.0" encoding="utf-8"?>
<!-- Generator: Adobe Illustrator 25.4.1, SVG Export Plug-In . SVG Version: 6.00 Build 0)  -->
<svg version="1.1" xmlns="http://www.w3.org/2000/svg" xmlns:xlink="http://www.w3.org/1999/xlink" x="0px" y="0px"
	 viewBox="0 0 918.8 918.8" style="enable-background:new 0 0 918.8 918.8;" xml:space="preserve">
<style type="text/css">
	.st0{fill:#BFE6D8;stroke:#BFE6D8;stroke-miterlimit:10;}
	.st1{fill:#E8CF82;}
	.st2{fill:#FFFFFF;}
	.st3{fill:#91CDA1;stroke:#91CDA1;stroke-miterlimit:10;}
	.st4{fill:#A5CEA4;}
</style>
<g id="Background">
</g>
<g id="Graphic_Element">
	<g>
		<path class="st0" d="M293.6,147.7c-0.4-1.6-1.7-3.3-3.1-4.1c-1.6-0.8-3.5-1.3-5.2-0.7c-1.6,0.5-3.4,1.5-4.1,3.1
			c-3.1,7.3-6.9,14.2-11.4,20.7c-1,1.4-1.1,3.7-0.7,5.2c0.4,1.6,1.7,3.3,3.1,4.1c3.5,1.8,7.1,0.7,9.3-2.4
			c4.5-6.5,8.3-13.4,11.4-20.7C293.6,151.2,294.1,149.6,293.6,147.7z"/>
		<g>
			<path class="st0" d="M200.4,168.2c-0.4-0.5-0.8-1-1.2-1.5c-0.2-0.2-0.3-0.4-0.5-0.6c0,0,0,0,0,0c0,0,0,0,0,0
				c0-0.1-0.1-0.1-0.1-0.2c-0.5-0.6-0.1-0.3,0.1,0c-0.2-0.4-1-1.2-1.1-1.4c-0.4-0.5-0.8-1.1-1.2-1.6c-1.6-2.2-3.1-4.5-4.5-6.8
				c-2.8-4.6-5.3-9.3-7.4-14.2c-0.6-1.5-2.6-2.7-4.1-3.1c-1.6-0.4-3.8-0.2-5.2,0.7c-1.5,0.9-2.7,2.3-3.1,4.1
				c-0.4,1.9-0.1,3.5,0.7,5.2c4.6,10.5,10.8,20.2,18.1,29.1c2.3,2.8,7.3,2.5,9.6,0C203.1,174.9,202.9,171.2,200.4,168.2z"/>
			<path class="st1" d="M198.7,166.1c0,0,0-0.1-0.1-0.2C198.7,166,198.7,166.1,198.7,166.1C198.7,166.1,198.7,166.1,198.7,166.1z"/>
		</g>
		<path class="st0" d="M141.2,236.7c-5.3-0.8-10.5-2-15.6-3.7c-2.5-0.8-4.9-1.7-7.3-2.7c-0.2-0.1-0.5-0.2-0.7-0.3
			c-0.4-0.2-0.8-0.4-1.2-0.6c-0.2-0.1-0.4-0.2-0.6-0.4c0,0,0,0,0,0c0-0.1,0-0.1-0.1-0.2c-1.7-3.1-6.3-4.4-9.3-2.4
			c-3.2,2-4.3,6-2.4,9.3c1.6,2.9,4.3,4.9,7.2,6.2c3,1.4,6.1,2.6,9.3,3.7c5.6,1.9,11.4,3.3,17.2,4.2c1.9,0.3,3.5,0.3,5.2-0.7
			c1.4-0.8,2.8-2.4,3.1-4.1C146.7,241.9,145,237.3,141.2,236.7z"/>
		<path class="st0" d="M278.2,277.8c8.6-11.9,13.5-26.2,13.4-40.9c-0.1-5-0.7-10-2.5-14.6c-4.5-11.3-15.6-18.6-26.6-23.8
			c-13.8-6.6-29.1-11.2-44.3-9.8c-15.3,1.4-30.5,9.9-36.9,23.8c-2.5,5.5-3.6,11.4-4.7,17.4c-5.5,30.3,13,63.7,44.6,69.8
			c13.8,2.6,27.5-1.5,40.5-0.9c5.1,0.2,4.5-3.6,7-6.1c2.5-2.6,6.7-10.5,9.4-14.3C278,278.1,278.1,278,278.2,277.8z"/>
		<g>
			<g>
				<g>
					<path d="M34.7,492.5c-0.2-0.3,0.9-1.5,1.1-1.8c0.5-0.9,0.9-1.8,1.5-2.7c1.1-1.6,2.1-3.3,3.2-4.9c1.2-1.7,2.2-3.5,3.1-5.5
						c0.8-1.9,2-3.4,3.1-5.1c1.1-1.7,2.4-3.4,3.4-5.2c1.1-1.8,2-3.7,3-5.6c0.9-1.8,2.2-3.3,3.2-5c1-1.8,1.6-3.8,2.8-5.4
						c1.2-1.6,2.4-3.1,3.4-4.8c1.1-1.8,2.2-3.3,3.5-5c1.2-1.5,1.9-3.3,3.2-4.8c1.3-1.6,2.5-3.2,3.8-4.8c2.6-3.4,5.4-6.7,8.2-9.9
						c2.8-3.2,5.3-6.6,8.2-9.7c1.4-1.5,2.9-2.9,4.1-4.6c1.3-1.7,2.6-3.4,4-5c1.5-1.5,3-3,4.5-4.5c1.4-1.4,2.8-2.9,4.4-4.1
						c1.6-1.3,3.2-2.6,4.9-3.7c1.5-1.1,2.7-2.5,4.1-3.8c1.5-1.4,3.3-2.6,4.8-4c1.5-1.4,3-2.9,4.4-4.5c0.6-0.6,1.1-1.3,1.6-1.9
						c0.6-0.9,1.4-1.3,2.2-2c1.4-1.2,2.5-2.9,3.8-4.2c1.5-1.5,2.9-3.1,4.7-4.4c1.5-1.1,2.9-2.4,4.2-3.7c1.4-1.4,2.9-2.6,4.1-4.1
						c1.4-1.6,2.9-2.8,4.5-4.1c1.7-1.4,3.4-2.9,5.2-4.1c1.6-1.1,3.2-2.1,4.7-3.3c1.6-1.3,3.4-2.4,5-3.6c1.6-1.2,3.2-2.5,4.8-3.7
						c3.4-2.4,7.1-4.4,10.5-6.8c1.7-1.2,3.4-2.4,5.3-3.4c1.7-0.8,3.3-1.5,4.8-2.7c1.5-1.1,2.9-2.3,4.4-3.4c1.7-1.1,3.6-1.8,5.4-2.5
						c1.8-0.7,3.5-1.7,5.2-2.5c0.8-0.4,0.4-1.7-0.4-1.6c-0.1,0-0.2,0-0.3,0c-1.1,0.1-1.1,1.9,0,1.8c0.1,0,0.2,0,0.3,0
						c-0.1-0.5-0.3-1.1-0.4-1.6c-1.9,0.9-3.7,1.9-5.6,2.7c-1.8,0.7-3.6,1.4-5.2,2.5c-1.6,1.1-3,2.4-4.6,3.5
						c-1.6,1.2-3.4,1.8-5.1,2.8c-1.9,1-3.5,2.3-5.3,3.4c-1.7,1.2-3.5,2.2-5.3,3.4c-1.8,1.2-3.7,2.2-5.4,3.5c-1.7,1.3-3.3,2.6-5,3.8
						c-1.6,1.1-3.2,2.2-4.7,3.4c-1.7,1.3-3.6,2.4-5.3,3.7c-1.7,1.2-3.3,2.6-4.9,3.9c-1.6,1.3-3.1,2.6-4.4,4.1
						c-2.6,3.1-5.9,5.6-9,8.1c-1.6,1.3-3,2.8-4.4,4.3c-1.4,1.5-2.5,3-4.1,4.2c-0.7,0.5-1.1,1-1.6,1.7c-0.7,0.9-1.4,1.7-2.2,2.6
						c-1.5,1.5-3,3-4.5,4.4c-1.6,1.4-3.3,2.5-4.8,4c-0.6,0.6-1.2,1.3-1.9,1.9c-0.8,0.7-1.7,1.2-2.6,1.8c-3.3,2.5-6.2,5.3-9.1,8.2
						c-1.6,1.5-3.2,3.1-4.6,4.8c-1.4,1.6-2.6,3.4-4,5c-1.4,1.6-3,3.1-4.4,4.7c-1.4,1.6-2.7,3.3-4.1,4.9c-2.8,3.4-5.7,6.5-8.4,10
						c-1.3,1.6-2.5,3.3-3.8,4.9c-1.2,1.6-2.6,3.1-3.8,4.8c-0.6,0.8-0.9,1.7-1.5,2.5c-0.6,0.9-1.3,1.6-1.9,2.5
						c-1.2,1.5-2.1,3.3-3.2,5c-1.1,1.8-2.6,3.2-3.5,5.1c-0.9,1.9-1.8,3.7-3,5.4c-2.4,3.4-3.9,7.3-6.1,10.8c-1.1,1.7-2.3,3.5-3.5,5.1
						c-1.3,1.8-1.9,3.9-3,5.8c-1,1.8-2.3,3.3-3.3,5c-1,1.7-2.1,3.3-3,5.1c-0.7,1.4-2,2.1-1.2,3.8C33.7,494.5,35.2,493.6,34.7,492.5
						L34.7,492.5z"/>
				</g>
			</g>
			<g>
				<g>
					<path d="M37.6,490.6c-0.2-0.1-0.4-0.2-0.6-0.3c-0.2-0.1-0.4-0.2-0.6-0.2c-0.2,0-0.4,0.1-0.6,0.2c-0.1,0.1-0.3,0.2-0.4,0.3
						c-0.1,0.1-0.2,0.3-0.3,0.5c-0.2,0.3-0.3,0.6-0.4,0.9c-0.1,0.3-0.2,0.6-0.3,0.9c0-0.1,0.1-0.1,0.1-0.2c0,0,0,0.1-0.1,0.1
						c0.5,0.1,1.1,0.3,1.6,0.4c0-0.1,0-0.2,0-0.3c0-0.2-0.1-0.5-0.3-0.6c-0.2-0.2-0.4-0.3-0.6-0.3c-0.2,0-0.5,0.1-0.6,0.3
						c-0.2,0.2-0.2,0.4-0.3,0.6c0,0.1,0,0.2,0,0.3c0,0.1,0,0.2,0,0.2c0,0.1,0.1,0.2,0.2,0.3c0.1,0.1,0.3,0.3,0.5,0.3
						c0.2,0,0.3,0,0.5,0c0.2,0,0.4-0.2,0.5-0.4c0.2-0.5,0.4-1,0.6-1.6c0,0.1-0.1,0.1-0.1,0.2c0.1-0.2,0.2-0.4,0.3-0.6
						c0,0.1-0.1,0.1-0.1,0.2c0.1-0.1,0.1-0.2,0.2-0.2c-0.1,0-0.1,0.1-0.2,0.1c0,0,0.1,0,0.1-0.1c-0.1,0-0.1,0.1-0.2,0.1
						c0,0,0,0,0.1,0c-0.1,0-0.2,0-0.2,0c0,0,0.1,0,0.1,0c-0.1,0-0.2,0-0.2,0c0,0,0.1,0,0.1,0c-0.1,0-0.1-0.1-0.2-0.1
						c0.2,0.1,0.4,0.2,0.6,0.3c0.2,0.1,0.4,0.2,0.7,0.1c0.2-0.1,0.4-0.2,0.5-0.4c0.1-0.2,0.2-0.5,0.1-0.7
						C37.9,491,37.8,490.7,37.6,490.6L37.6,490.6z"/>
				</g>
			</g>
			<g>
				<g>
					<path d="M152,553.4c-0.1-0.1-0.2-0.3-0.3-0.4c0,0.3,0,0.6,0,0.9c0.4-0.9,1.1-1.6,1.5-2.5c0.5-1,0.8-2.1,1.2-3.1
						c0.9-2.2,2-4.3,3-6.4c1-2.1,1.9-4.2,2.9-6.2c1-1.9,2-3.9,2.7-6c0.7-2.1,1.8-4,2.8-6c1-2.1,2.1-4.1,3.4-5.9
						c2.5-3.6,4-7.7,6.5-11.4c2.5-3.7,4.8-7.4,7-11.3c2.3-4.1,4-8.5,6.1-12.6c2.2-4.1,4.5-8,6.3-12.3c0.9-2.2,2.1-4.1,3.3-6.1
						c1.2-2,2.2-4.1,3.6-6c2.6-3.5,5.3-6.9,7.4-10.7c0.6-1,1.1-2,1.7-3c0.6-0.9,1.4-1.5,1.9-2.4c0.6-0.9,0.8-1.9,1.5-2.7
						c0.7-0.9,1.6-1.7,2.4-2.6c1.4-1.5,2.7-3,3.8-4.8c1.1-1.7,2.5-3.1,3.6-4.8c1.2-1.8,2.3-3.8,3.7-5.5c1.3-1.6,2.3-3.3,3.6-4.9
						c1.3-1.8,2.6-3.6,3.8-5.5c0.6-0.9,1.2-1.8,1.9-2.5c0.7-0.7,1.5-1.4,2.1-2.2c1.4-1.9,2.6-3.9,4.1-5.7c1.3-1.6,3-2.8,4.4-4.3
						c1.4-1.5,2.7-3,4.7-3.7c1.8-0.7,3.8-1,5.7-1.5c2.2-0.6,4.3-1.4,6.4-2.1c2.3-0.7,4.6-1.2,6.9-1.7c4.6-1.1,9.1-2.6,13.7-3.9
						c2.3-0.6,4.5-1.3,6.8-2c0.9-0.3,1.8-0.6,2.7-1c1-0.4,2.1-0.5,3.2-0.9c0.9-0.3,1.7-0.9,2.5-1.4c0.8-0.4,1.6-0.9,2.3-1.5
						c0.6-0.6,0.9-1.3,1.2-2.1c0.4-1,0.9-1.9,1.1-2.9c0.4-1.7,0.4-3.7-0.3-5.3c-0.3-0.8-0.9-1.4-1.4-2c-0.7-0.7-1.3-1.6-2-2.2
						c-0.8-0.7-1.7-0.9-2.5-1.4c-0.7-0.4-1.3-1.1-2.2-1.2c-1.1-0.2-1.6,1.5-0.5,1.7c0.8,0.2,1.5,1,2.3,1.3c1.1,0.5,1.9,1.1,2.7,2.1
						c0.6,0.7,1.4,1.3,1.8,2.1c0.5,0.9,0.6,2,0.6,3c0,1.1-0.3,2.1-0.7,3.1c-0.4,0.9-0.6,2-1.3,2.7c-0.7,0.7-1.8,1.1-2.6,1.7
						c-1,0.6-1.9,0.9-3.1,1.2c-2.1,0.5-4.1,1.4-6.1,2.1c-2.2,0.7-4.4,1.3-6.6,1.9c-4.5,1.2-9,2.8-13.5,3.7
						c-4.4,0.9-8.5,2.7-12.8,3.7c-1.8,0.4-3.6,0.7-5.3,1.5c-1.8,0.8-3.1,2.1-4.4,3.6c-1.3,1.5-3,2.7-4.3,4.2
						c-1.5,1.6-2.7,3.4-3.9,5.2c-0.6,0.9-1.2,1.8-2,2.5c-0.7,0.7-1.4,1.3-2,2.1c-1.3,1.8-2.3,3.7-3.7,5.5c-0.6,0.8-1.3,1.6-1.9,2.5
						c-0.6,0.9-1.1,1.9-1.9,2.8c-1.3,1.5-2.5,3.2-3.6,4.8c-0.6,0.8-1,1.8-1.6,2.6c-0.6,0.8-1.4,1.5-1.9,2.3
						c-1.2,1.7-2.2,3.5-3.6,5.1c-1.3,1.5-3.1,2.9-4,4.7c-0.5,0.9-0.8,1.8-1.5,2.6c-0.7,0.8-1.3,1.5-1.8,2.4c-1.2,2-2.2,4-3.5,5.9
						c-1.2,1.8-2.5,3.6-3.9,5.3c-2.7,3.4-4.7,7.4-7,11.1c-1.2,1.9-1.9,4.2-2.8,6.2c-1,2-2.1,4-3.2,6c-2.3,4.1-4.1,8.3-6.1,12.5
						c-1,2.1-2.1,4-3.3,6c-1.1,1.9-2.1,3.8-3.3,5.7c-1.2,1.8-2.5,3.5-3.6,5.4c-1.1,1.9-1.9,3.9-2.9,5.8c-1.1,1.9-2.4,3.6-3.5,5.4
						c-1.1,1.9-1.9,4-3.1,5.9c-1.1,1.9-1.6,3.9-2.4,5.9c-0.9,2.1-2.1,4-3,6.1c-0.9,2-1.8,4.1-2.8,6.1c-0.9,2-2,4-2.8,6.1
						c-0.4,1-0.7,1.8-1.3,2.7c-0.6,0.8-0.9,1.3-0.3,2.2C151.1,555.2,152.6,554.3,152,553.4L152,553.4z"/>
				</g>
			</g>
			<g>
				<g>
					<path d="M236.7,376.8c-0.2,0-0.4,0-0.5,0c0.2,0.4,0.4,0.9,0.5,1.3c0.4-0.8,1.5-1.2,2.1-1.7c1.2-0.9,2.1-2.1,3.2-3.1
						c1.1-0.9,2.3-1.5,3.4-2.3c1.1-0.7,2.1-1.7,3.3-2.4c1.1-0.6,2.2-1,3.3-1.6c1.2-0.6,2.2-1.4,3.4-2c2.6-1.3,5.4-1.7,8.2-2.3
						c1.2-0.3,2.6-0.3,3.8-0.7c0.5-0.2,0.9-0.5,1.4-0.7c0.6-0.3,1.3-0.3,2-0.6c1.1-0.5,2-1.2,3-1.8c1.1-0.7,2.4-1.1,3.5-1.7
						c2.2-1.2,3.6-3,4.9-5c0.6-0.9,1.3-1.7,1.4-2.8c0.1-1.1-0.1-2.2-0.5-3.2c-0.4-1.1-1.1-1.8-1.9-2.6c-0.9-0.8-1.6-1.8-2.5-2.6
						c-0.9-0.7-1.9-1.3-2.9-1.8c-0.9-0.4-1.5-1.4-2.4-1.9c-2.3-1.4-5.1-1.8-7.7-2.4c-2.8-0.7-5.3-2-7.9-3.3c-2.6-1.2-5.3-1.5-8.1-2
						c-1.3-0.2-2.5-0.3-3.8-0.5c-1.6-0.2-3.1-0.6-4.7-0.7c-3-0.3-5.8-0.9-8.8-0.9c-2.8,0-5.9-0.4-8.7,0.3c-2.8,0.7-5.4,2.2-8.1,3.3
						c-1.3,0.5-2.5,1.1-3.4,2.1c-0.9,1-2.2,1.7-3.2,2.6c-1.1,1-2.4,1.8-3.5,2.8c-1,1-2,2.2-3.2,3c-0.5,0.4-1.1,0.7-1.5,1.3
						c-0.4,0.5-0.6,1.1-1.1,1.5c-0.4,0.4-0.9,0.7-1.3,1.1c-0.5,0.6-0.9,1.1-1.6,1.5c-0.7,0.4-0.4,1.8,0.4,1.6
						c1.5-0.2,2.7-0.9,3.9-1.7c1.2-0.8,2.3-1.5,3.1-2.6c1.6-2.2,3.7-5,6.4-5.7c-0.2-0.5-0.5-1.1-0.7-1.6c-0.5,0.3-0.9,0.6-1.4,0.9
						c-1,0.5-0.1,2.1,0.9,1.5c0.5-0.3,1-0.6,1.4-0.9c0.8-0.5,0.3-1.9-0.7-1.6c-2.5,0.7-4.2,2.7-5.9,4.6c-1,1.1-1.7,2.4-2.9,3.2
						c-1.2,0.9-2.7,2-4.2,2.2c0.1,0.5,0.3,1.1,0.4,1.6c1-0.5,1.5-1.3,2.2-2.1c0.7-0.7,1.3-1.3,1.9-2.1c0.7-1,1.9-1.6,2.8-2.4
						c0.9-0.9,1.7-1.9,2.7-2.7c0.9-0.8,2-1.4,2.9-2.2c0.9-0.8,2-1.4,2.8-2.2c0.9-0.9,1.7-1.5,2.8-2c1.2-0.5,2.5-1,3.7-1.5
						c2.6-1.2,4.9-2.1,7.8-2.1c2.9,0,6-0.2,8.9,0.3c5.5,0.9,11,1.3,16.4,2.3c2.7,0.5,5,1.8,7.4,2.9c2.4,1.1,4.8,1.7,7.3,2.3
						c1.2,0.3,2.4,0.6,3.5,1.1c0.6,0.3,1.3,0.5,1.8,1c0.4,0.3,0.7,0.7,1.1,1.1c0.8,0.6,1.8,1,2.7,1.5c1.1,0.8,1.8,1.6,2.7,2.6
						c0.9,0.9,1.8,1.5,2.2,2.8c0.4,1.2,0.3,2.2-0.4,3.3c-1.5,2.2-2.8,4.2-5.2,5.4c-1,0.5-2.1,1-3.2,1.6c-1.1,0.6-2,1.6-3.2,1.9
						c-0.5,0.1-0.9,0.2-1.4,0.4c-0.6,0.3-1.1,0.6-1.7,0.8c-1.2,0.4-2.6,0.5-3.8,0.7c-2.8,0.6-5.6,1.1-8.2,2.4
						c-1.2,0.6-2.2,1.4-3.4,2c-1.2,0.6-2.5,1.1-3.6,1.8c-1.2,0.8-2.3,1.8-3.5,2.5c-1.2,0.7-2.4,1.4-3.4,2.4c-1.1,1-2,2.2-3.2,3
						c-0.8,0.6-1.8,1.1-2.3,2c-0.3,0.5,0,1.1,0.5,1.3c0.4,0.1,0.6,0.1,1,0.1C237.8,378.5,237.8,376.7,236.7,376.8L236.7,376.8z"/>
				</g>
			</g>
			<g>
				<g>
					<path d="M64.1,445.2c1.6,1.2,3.3,2.1,4.8,3.4c1.5,1.2,3.2,2,4.7,3.1c1.6,1.2,2.7,3,4.3,4.3c1.5,1.2,3.3,2.1,4.8,3.4
						c3.2,2.7,6.8,4.9,10.1,7.6c1.7,1.4,3.3,2.8,4.9,4.1c1.6,1.3,3.3,2.1,5.2,2.8c4,1.6,7.5,3.9,11.1,6.2c1.8,1.1,3.4,2.4,5.2,3.5
						c1.7,1,3.5,1.7,5.1,2.8c1.7,1.1,3.3,2.4,5.1,3.4c1.8,1,3.5,2.1,5.2,3.2c1.8,1.2,3.7,2.2,5.5,3.2c0.8,0.4,1.6,0.9,2.5,1.1
						c1,0.3,2.1,0.5,3.1,0.9c2.2,0.9,4.5,1.8,6.7,2.6c1.2,0.4,2.4,0.7,3.5,1.1c1,0.3,1.9,1,2.9,1.4c2,0.8,4.3,1,6.4,1
						c1.2,0,2.5-0.1,3.7,0c1.2,0.1,2.4,0.5,3.7,0.5c0.5,0,0.8-0.4,0.9-0.9c0-0.2,0-0.4,0-0.6c0.1-1.1-1.7-1.1-1.8,0
						c0,0.2,0,0.4,0,0.6c0.3-0.3,0.6-0.6,0.9-0.9c-1.1,0-2.1-0.3-3.1-0.4c-1.1-0.2-2.2-0.1-3.3-0.1c-2,0-4.2,0-6.1-0.6
						c-0.9-0.3-1.7-0.8-2.5-1.2c-0.9-0.4-1.9-0.7-2.9-1c-2-0.6-4-1.3-5.9-2.1c-1-0.4-2-0.9-3-1.2c-0.9-0.3-2-0.5-2.9-0.8
						c-2.1-0.8-4-2.1-5.9-3.2c-1.7-1-3.2-2.2-4.9-3.1c-1.8-1-3.5-2-5.2-3.2c-1.6-1.1-3.2-2.1-4.9-2.9c-1.8-0.9-3.4-2.1-5.1-3.2
						c-3.4-2.3-6.8-4.7-10.5-6.4c-1.9-0.9-4-1.5-5.9-2.6c-1.8-1.1-3.3-2.6-4.9-3.9c-1.6-1.3-3.2-2.7-4.9-3.9
						c-1.7-1.3-3.5-2.3-5.1-3.6c-1.7-1.3-3.3-2.6-5.1-3.8c-2-1.3-3.2-3.1-4.9-4.6c-1.6-1.4-3.6-2.3-5.3-3.6
						c-1.7-1.3-3.4-2.4-5.2-3.6C64.1,443,63.2,444.6,64.1,445.2L64.1,445.2z"/>
				</g>
			</g>
			<g>
				<g>
					<path d="M200,313.1c-2-2.5-4.9-3.6-7.1-5.9c-0.9-0.9-1.9-1.7-3-2.2c-1.5-0.8-2.8-1.8-4.3-2.6c-2.7-1.5-5.6-3.3-7.9-5.4
						c-1.1-1-1.8-2.2-2.6-3.6c-0.9-1.4-1.9-2.8-2.8-4.2c-0.7-1.3-1.6-2.4-2.2-3.8c-0.8-1.6-1-3.5-1.5-5.2c-0.5-1.6-0.6-3.2-1.1-4.8
						c-0.4-1.6-0.6-3.6-0.7-5.3c-0.1-3.7,0-7.4,0-11c0-1.8-0.2-3.6,0.2-5.4c0.4-1.8,0.8-3.6,1.3-5.3c0.4-1.5,1-2.9,1.6-4.4
						c0.6-1.4,0.7-3,1.4-4.4c0.7-1.3,1.4-2.7,2.2-3.9c1.1-1.4,2.1-2.9,3.2-4.3c2.1-2.7,4.6-5,7.3-7.1c1.3-1.1,2.7-2.1,4-3.1
						c1.3-1,2.5-2.2,3.8-3.2c1.2-0.9,2.8-1.3,4.2-1.9c1.8-0.7,3.5-1.6,5.2-2.3c3.3-1.5,7-2.1,10.4-3.3c1.4-0.5,2.9-1.1,4.4-1.2
						c1.9-0.2,3.9-0.1,5.8-0.1c3.8,0,7.6,0,11.4,0.1c2.1,0,4.3,0,6.4,0c1.1,0,2.1,0,3.2,0c0.9,0,1.7,0.2,2.6,0.4
						c3.9,0.5,7.7,1.6,11.4,2.9c0.8,0.3,1.5,0.5,2.3,0.7c0.9,0.2,1.6,0.6,2.4,1.1c0.6,0.4,1.3,0.6,2,0.8c0.9,0.3,1.6,0.9,2.4,1.3
						c1.7,0.8,3.4,1.3,4.9,2.5c1.5,1.2,3,2.6,4.4,4c0.8,0.8,2.1-0.4,1.3-1.3c-2.5-2.5-5-4.9-8.3-6.2c-1.3-0.6-2.5-1.4-3.8-1.9
						c-0.8-0.3-1.5-0.5-2.2-1c-0.7-0.4-1.3-0.8-2.1-1c-3.3-0.9-6.6-2.1-10-2.9c-1.7-0.4-3.4-0.7-5.2-1c-1.7-0.3-3.4-0.2-5.2-0.2
						c-4.1,0-8.2,0-12.4,0c-1.8,0-3.6,0-5.4,0c-2,0-4.2-0.1-6.2,0.1c-1.4,0.2-2.8,0.7-4.1,1.1c-1.9,0.7-3.8,1.2-5.7,1.7
						c-3.6,0.9-6.8,2.6-10.2,4.1c-1.5,0.7-3.2,1.1-4.6,2.1c-1.2,0.9-2.3,1.9-3.5,2.9c-3,2.4-6.1,4.6-8.8,7.3
						c-2.4,2.4-4.4,5.2-6.4,7.9c-1,1.3-1.7,2.8-2.5,4.3c-0.7,1.2-0.8,2.7-1.3,4c-0.6,1.6-1.3,3.1-1.8,4.7c-0.5,1.8-0.9,3.5-1.3,5.3
						c-0.4,1.8-0.3,3.5-0.3,5.3c0,2.1,0,4.2,0,6.3c0,3.6-0.2,7.1,0.5,10.7c0.2,0.8,0.5,1.5,0.6,2.3c0.1,0.8,0.2,1.5,0.4,2.3
						c0.4,1.9,0.9,3.9,1.5,5.6c0.6,1.7,1.8,3.1,2.6,4.7c0.9,1.6,2.1,3,3,4.6c0.9,1.5,1.9,2.9,3.2,4c1.2,1,2.6,1.9,3.9,2.7
						c1.7,1.1,3.5,2.1,5.2,3.2c0.8,0.5,1.6,1.1,2.4,1.6c0.7,0.4,1.3,0.6,1.9,1.1c0.7,0.5,1.3,1.2,1.9,1.8c0.6,0.6,1.2,1,1.9,1.4
						c1.7,1,3.3,2.2,4.5,3.7C199.4,315.2,200.7,313.9,200,313.1L200,313.1z"/>
				</g>
			</g>
			<g>
				<g>
					<path d="M175.2,164.1c0.8,2.6,1.9,5.1,3.1,7.5c1.3,2.5,2.3,5.2,3.7,7.7c1.4,2.3,2.9,4.6,4.1,7c1,2.2,1.8,4.5,3.7,6.1
						c1.1,0.9,2.6-0.6,1.6-1.6c-1.8-1.5-2.5-3.8-3.4-5.8c-1.2-2.4-2.7-4.6-4-6.9c-1.3-2.3-2.2-4.7-3.4-7.1c-1.2-2.5-2.4-4.9-3.2-7.6
						C176.9,162.2,174.8,162.7,175.2,164.1L175.2,164.1z"/>
				</g>
			</g>
			<g>
				<g>
					<path d="M107.9,250c2.8,0,5.2,1.2,7.8,2.2c2.7,1.1,5.5,2,8.3,3c2.4,0.8,4.7,1.6,7.1,2.3c1.8,0.6,4.1,1.1,5.5,2.5
						c1,1,2.6-0.6,1.6-1.6c-1.4-1.5-3.6-2.2-5.5-2.8c-2.5-0.8-5-1.6-7.5-2.5c-2.9-1-5.9-2-8.7-3.1c-2.7-1.1-5.4-2.3-8.4-2.3
						C106.5,247.8,106.5,250,107.9,250L107.9,250z"/>
				</g>
			</g>
			<g>
				<g>
					<path d="M274.4,177.1c-1-0.3-2.2-0.2-2.7,0.9c-0.2,0.4-0.3,0.9-0.3,1.3c0,0.2,0,0.4,0,0.6c0,0.1,0,0.2,0,0.3c0-0.2,0,0.1,0,0.1
						c-0.6,2.7-1.8,5.2-2.9,7.7c-0.2,0.5-0.2,1.2,0.4,1.5c0.5,0.3,1.3,0.1,1.5-0.4c1-2.3,2.1-4.6,2.8-7c0.3-0.9,0.4-1.8,0.5-2.7
						c0,0,0-0.3,0-0.1c0,0.2,0-0.1,0-0.1c0,0,0.1-0.3,0-0.1c-0.1,0.1,0-0.1,0.1-0.1c-0.1,0.1-0.1,0.1-0.2,0.2c-0.1,0-0.2,0.1-0.1,0
						c0.1,0,0.1,0,0,0c-0.1-0.1,0.1,0,0.2,0c-0.2,0,0.3,0.1,0.2,0.1C275.2,179.6,275.7,177.4,274.4,177.1L274.4,177.1z"/>
				</g>
			</g>
			<g>
				<g>
					<path d="M311.2,398.6c-0.3,0-0.6,0-0.9,0c0.3,0.6,0.5,1.3,0.8,1.9c0.6-0.7,2.2-0.3,3-0.3c1.3,0.1,2.6-0.1,3.9-0.3
						c3-0.5,5.9-1.7,8.9-2.1c3.2-0.4,6.3-0.8,9.4-1.8c3.2-1.1,6.4-2,9.8-2.8c6.7-1.5,13.3-3.1,20-4.6c6.8-1.5,13.7-2.5,20.5-3.8
						c3.4-0.6,6.7-1.7,10.1-2.2c1.5-0.3,3.1-0.5,4.6-0.8c1.6-0.4,3.2-1.1,4.8-1.6c6.4-2,13.1-3.4,19.6-4.9c3.4-0.8,6.7-1.4,10-2.4
						c1.5-0.4,3.1-0.9,4.6-1.3c1.5-0.5,2.9-1.1,4.4-1.5c1.5-0.4,3-1,4.5-1.2c1.6-0.2,3.3-0.3,4.9-0.8c1.5-0.4,3-0.7,4.5-0.9
						c1.6-0.3,3.2-0.8,4.8-1.1c1.8-0.4,3.7-0.2,5.6-0.5c1.8-0.2,3.6-0.6,5.3-1c1.9-0.4,3.8-0.6,5.7-0.9c0.9-0.1,1.7-0.5,2.6-0.7
						c0.9-0.2,1.8-0.2,2.7-0.3c1.7-0.2,3.5-0.7,5.2-1.1c1.7-0.5,3.3-1.2,5-1.6c1.3-0.3,2.7-0.6,4-1c1.1-0.3,2.1-0.8,2.4-1.9
						c0.4-1.4-1.7-1.9-2.1-0.6c-0.1,0.4-2.1,0.6-2.5,0.7c-1.6,0.4-3.2,0.8-4.8,1.4c-3,1.1-6.2,1.7-9.4,2.1c-1.5,0.2-2.9,0.8-4.5,1
						c-1.7,0.2-3.4,0.4-5,0.8c-1.5,0.3-3,0.7-4.6,0.9c-1.7,0.2-3.3,0.1-5,0.3c-1.5,0.2-2.9,0.6-4.4,1c-1.6,0.4-3.2,0.4-4.8,0.9
						c-1.5,0.4-3,0.8-4.6,1c-1.6,0.2-3.1,0.5-4.6,1c-6.2,2-12.4,3.9-18.9,5.3c-6.6,1.4-13.2,2.9-19.7,4.8c-3.1,0.9-6,2.1-9.2,2.6
						c-3.3,0.5-6.5,1.4-9.7,2.1c-6.7,1.4-13.5,2.3-20.3,3.7c-6.8,1.4-13.5,3.1-20.2,4.6c-3.6,0.8-7.1,1.6-10.6,2.8
						c-1.6,0.6-3.3,1.1-5,1.5c-1.8,0.4-3.6,0.5-5.4,0.8c-3.5,0.5-6.8,1.8-10.3,2.3c-1.3,0.2-2.6,0-3.9,0c-1.1,0-2.3,0.1-3.1,1
						c-0.6,0.7-0.3,1.9,0.8,1.9c0.3,0,0.6,0,0.9,0C312.6,400.8,312.6,398.6,311.2,398.6L311.2,398.6z"/>
				</g>
			</g>
			<g>
				<g>
					<path d="M507.7,269.8c-0.1-0.2-0.2-0.3-0.3-0.5c-0.3,0.6-0.6,1.1-1,1.7c-0.5,0-0.3-0.1-0.1,0.4c0.1,0.3,0.2,0.7,0.3,1.1
						c0.2,0.9,0.7,1.6,1.1,2.4c0.6,1,1.3,2.1,1.6,3.3c0.3,1.2,0,2.4,0,3.5c0,2.2,0.7,4.6,1.3,6.7c0.7,2.4,1.5,4.7,2.1,7.1
						c1.3,4.9,2.9,9.5,3.7,14.5c0.7,4.9,1.3,9.7,2.6,14.5c0.7,2.4,1,4.9,1.8,7.3c0.3,1.1,0.6,2.1,0.9,3.2c0.4,1.1,1,1.9,1.5,2.9
						c0.6,1.1,0.4,1.9-0.6,2.7c-1,0.8-2.1,1.6-3.1,2.3c-1.9,1.4-3.9,2.7-5.7,4.2c-0.8,0.7-1.6,1.5-2.4,2.1c-1,0.8-2,1.4-3,2.2
						c-1.9,1.5-3.6,3.3-5.4,4.8c-1.8,1.6-3.8,2.9-5.6,4.5c-1.7,1.5-3.3,3.3-4.6,5.2c-0.6,0.9-1.1,2-1.8,2.8
						c-0.6,0.8-1.3,1.4-1.9,2.2c-1.1,1.5-1.6,3.4-1.5,5.2c0.1,1.7,0.8,3.4,2.2,4.5c1.5,1.1,3.4,1.3,5.2,1.6c2.3,0.3,4.5,0.5,6.8,0.4
						c1.1,0,2.2,0,3.3-0.1c1.2-0.1,2.4-0.5,3.6-0.7c1.2-0.3,2.4-0.2,3.6-0.4c1.2-0.2,2.3-0.5,3.4-0.8c2.5-0.6,5.2-0.8,7.7-1.3
						c5.1-1,10-2.7,15-3.6c2.5-0.5,5.1-0.8,7.6-1.3c2.3-0.5,4.5-0.8,6.8-0.9c0.9,0,1.9-0.1,2.6,0.5c0.7,0.8,0.9,2.1,1.2,3.1
						c0.5,2.1,1.5,3.9,2.8,5.7c1.5,2.2,2.8,4.4,4.2,6.7c1.2,1.9,2.5,3.7,3.8,5.6c1.2,1.9,1.8,4,2.7,6c1,2.1,2.2,4.1,3.5,6.1
						c0.6,1,1.4,1.8,2,2.8c0.7,1.1,1.3,2.3,1.9,3.4c1.3,2.1,2.5,4.3,3.7,6.5c0.6,1.1,1.2,2,1.7,3.2c0.4,1,0.7,2.1,1.3,3.1
						c0.8,1.4,1.5,2.4,1.9,4c0.6,2.4,0.9,5.6,2.9,7.3c1,0.9,2.2,1,3.5,0.8c1.4-0.2,0.8-2.3-0.6-2.1c-2.5,0.4-3.1-4-3.4-5.7
						c-0.2-1.1-0.5-2.3-1-3.3c-0.4-0.9-1.1-1.7-1.6-2.6c-0.5-1-0.8-2.2-1.3-3.2c-1-2.2-2.3-4.3-3.5-6.4c-0.6-1.1-1.3-2.1-1.9-3.1
						c-0.6-1.1-1.2-2.2-2-3.3c-1.4-1.9-2.7-3.8-3.8-5.9c-0.5-0.9-1.1-1.9-1.5-2.9c-0.4-1-0.7-2.1-1.2-3.1c-0.9-2-2.3-3.7-3.5-5.5
						c-1.5-2.1-2.7-4.4-4.1-6.6c-1.2-1.9-2.7-3.7-3.6-5.8c-0.8-1.9-0.8-4.3-2.2-5.9c-1.2-1.5-3.1-1.4-4.8-1.3
						c-2.2,0.1-4.3,0.4-6.5,0.9c-2.5,0.5-5.1,0.8-7.6,1.3c-2.6,0.5-5.1,1.2-7.6,1.8c-2.5,0.7-5.1,1.3-7.7,1.8
						c-2.5,0.5-5,0.8-7.5,1.3c-1.1,0.2-2.1,0.6-3.2,0.8c-1.2,0.2-2.5,0.2-3.8,0.4c-1.1,0.2-2.2,0.7-3.4,0.8
						c-1.3,0.1-2.5,0.1-3.8,0.1c-2.3,0-4.5-0.2-6.7-0.5c-1.8-0.3-3.8-0.6-4.6-2.5c-0.7-1.8-0.2-4,0.9-5.4c0.6-0.8,1.3-1.4,1.8-2.2
						c0.7-0.9,1.2-1.9,1.8-2.9c2.7-4.1,6.8-6.5,10.4-9.7c1.9-1.7,3.6-3.5,5.6-5c1.9-1.3,3.5-2.9,5.3-4.3c1.9-1.5,4-2.9,6-4.3
						c1.5-1.1,3.6-2.3,3.7-4.4c0.1-2.1-1.5-3.7-2.1-5.7c-0.7-2.3-1.4-4.6-1.8-7c-0.5-2.4-1.2-4.7-1.7-7.1c-0.5-2.4-0.8-4.9-1.2-7.4
						c-0.3-2.5-0.7-4.9-1.2-7.4c-0.5-2.4-1.4-4.6-2-7c-0.7-2.5-1.3-5-2-7.5c-0.7-2.2-1.3-4.4-1.8-6.7c-0.2-1.2-0.3-2.2-0.3-3.4
						c0.1-1.1,0.1-2.2-0.3-3.3c-0.7-2-2.1-3.6-2.7-5.6c-0.3-1.3-0.7-2.7-2.3-2.9c-0.8-0.1-1.4,1-1,1.7c0.1,0.2,0.2,0.3,0.3,0.5
						C506.6,272.1,508.6,271,507.7,269.8L507.7,269.8z"/>
				</g>
			</g>
			<g>
				<g>
					<path d="M517.6,697.4c5,2.6,9.8,5.2,14.7,7.6c4.2,2.1,6.7,5.7,8.4,9.9c0.9,2.3,0.3,4.4-0.8,6.4c-1.6,2.8-3.9,4.7-6.9,5.9
						c-5.6,2.3-11.5,2.3-17.4,2.1c-7.3-0.2-14.7-0.2-22-0.1c-2.1,0-4.2,0.5-6.3,1c-2.4,0.5-4.6,1.6-6.2,3.5
						c-2.3,2.7-4.7,5.4-6.8,8.2c-4.1,5.5-8.1,11.1-12.1,16.7c-0.6,0.9-1.2,1.6-1,2.9c0.3,1.4-0.7,2.2-2,2.8
						c-0.8,0.3-1.7,0.9-2.2,1.6c-3.9,5.4-7.7,10.9-11.4,16.4c-0.7,1.1-1.1,2.4-1.7,3.6c-1.4,2.8-2.2,6.1-4.3,8.1
						c-4.1,4-5.9,9.2-8.4,14.1c-0.3,0.6-0.5,1.4-1,1.7c-0.6,0.4-1.6,0.8-2.3,0.6c-0.5-0.1-1.2-1.2-1.2-1.7c0.2-1.9,0.5-3.8,1.1-5.6
						c0.7-2.1,1.9-4,2.9-6.2c-5.3-1.9-10.1-4.5-15.5-5.7c-7.8-1.7-15.5-4-22.8-7.5c-5.8-2.7-11.6-5.2-17.4-7.8
						c-11.4-5.1-22.1-11.4-32.1-18.9c-1.9-1.5-4-2.7-5.8-4.3c-4.2-3.4-8.3-6.9-12.4-10.5c-4.8-4.2-9.4-8.5-14.1-12.9
						c-1.3-1.2-2.5-2.6-3.9-4.1c-0.5,0.5-0.9,0.8-1.2,1.1c-3.4,4.1-6.8,8.2-10.2,12.3c-0.8,1-1.5,1.9-1.6,3.3
						c-0.1,1-0.8,1.9-1.4,2.8c-1.1,1.8-2.3,3.5-3.6,5.4c0.6,0.7,1,1.2,1.4,1.6c5.5,5,11.1,10,16.5,15c7,6.5,14.7,11.9,22.8,16.9
						c3,1.8,5.7,3.9,8.5,6c1.3,1,2.9,1.9,2.9,4c0,0.4,0.7,0.8,1.2,1.2c3,2.1,6,4.2,9,6.3c1.1,0.8,2.1,1.7,2.8,2.8
						c0.4,0.6,0.4,1.8,0,2.3c-0.4,0.5-1.5,0.6-2.3,0.5c-0.7-0.1-1.3-0.7-2-1.2c-6.1-4.2-12.3-8.4-18.4-12.7
						c-0.7-0.5-1.5-1.1-1.8-1.8c-1.3-3.4-4.6-4.5-7.1-6.4c-1-0.7-2.3-1.1-3.2-1.9c-4.8-4.3-10-8.2-15.4-11.7
						c-6.6-4.2-13-8.7-18.1-15.1c-1.2,1.4-3.1,1.3-4.1,3c-0.8,1.2-2,0.3-3-0.3c-1.2-0.8-1.9-1.6-1.4-3.1c0.1-0.3,0.3-0.5,0.5-0.7
						c2.3-1.9,3.1-4.8,4.5-7.3c1-1.9,2.3-3.8,3.6-5.6c2-2.8,4.3-5.5,6.1-8.4c3.5-5.7,7.8-10.8,12.3-15.7c1.1-1.2,2.9-2.1,2.1-4.4
						c-0.2-0.4,0.6-1.3,1.1-1.9c1.4-1.6,3-3.1,4.2-4.8c6.1-8.5,13.2-16.1,20.2-23.8c0.8-0.8,1.2-1.6,1.1-2.8
						c-0.1-1.6,0.8-2.2,2.4-1.9c1.4,0.3,2.7,0.5,4.1,0.7c0.3,0,0.8-0.2,1-0.4c3.7-3.3,7.4-6.7,11.1-10c-0.1-0.2-0.2-0.5-0.3-0.7
						c-2.6,0.4-5.3,0.6-7.9,1.1c-10.1,1.9-20.3,3.8-30.4,5.8c-2.3,0.4-4.5,1.1-6.7,1.9c-0.7,0.2-1.4,0.8-2,1.4
						c-1.1,1.2-2.2,1.5-3.2,0.4c-1.2-1.4-2.5-2.8-2.8-4.9c-0.4-2.9-1.1-5.7-1.6-8.5c-1.3-7.7-2.8-15.4-3.9-23.1
						c-1-7.2-1.7-14.4-2.6-21.6c-1-8.3-2.8-16.5-4.8-24.7c-3.5-13.8-6.3-27.9-9.4-41.8c-1.2-5.4-2.9-10.6-4.1-16
						c-1.4-6.8-2.4-13.7-3.7-20.5c-1.4-7.4-3.1-14.7-4.6-22.1c-4.6-22.2-9.2-44.4-13.8-66.6c-0.7-3.4-1.5-6.8-2.3-10.1
						c-0.1-0.6-0.7-1.1-1-1.7c-0.2-0.6-0.3-1.2-0.3-1.8c0-0.5,0.2-1.1,0.1-1.6c-0.6-2.3,0.7-4.1,2.9-4.5c3.7-0.7,7.4-1.3,11-2.3
						c8.6-2.5,17.3-4.7,26.2-6.2c5-0.8,10-2.3,15-3.3c3.2-0.6,6.5-1,9.8-1.2c4.1-0.3,8-1.2,11.8-2.7c6-2.3,12.2-3.6,18.4-4.9
						c6-1.2,12-3,17.9-4.6c11.2-3.1,22.3-6.1,33.5-9.3c7.2-2,14.5-3.3,21.8-4.6c8.7-1.5,17.2-3.6,25.8-5.3
						c17.7-3.3,35.5-6.5,53.3-9.8c2-0.4,3.9-1,5.9-1.6c3.6-1.1,7.1-2.3,10.6-3.6c1.1-0.4,2.2-1.2,3.2-1.9c4.4-3.3,7.5-7.8,11.1-11.8
						c0.8-0.9,0.9-1.8,0.5-2.9c-2.3-7-4.7-13.9-7.4-20.7c-4.2-10.3-8-20.7-11.8-31.1c-0.9-2.4-1.2-5.1-1.7-7.6
						c-0.5-2.2,0.7-3.9,1.9-5.5c0.4-0.5,1.2-0.9,1.7-0.8c1.9,0.3,3.8,0.6,5.6,1.2c1.6,0.5,3.2,1.4,4.8,2c5.2,1.9,10.6,3.6,15.7,5.7
						c3.5,1.5,6.9,3.4,10.3,5.2c4,2.2,7.8,4.7,11.8,6.7c2.6,1.3,5.4,2,8.3,3.1c4.9-4.3,10.4-7.9,14.4-13.3
						c4.5-6.1,9.8-11.4,15.3-16.6c2.9-2.8,5.5-5.9,8.3-8.8c0.9-1,1.9-1.9,3-2.7c4.9-3.4,6.6-2,9.8,2.5c0.9,1.3,1.1,3,1.8,4.9
						c0.9-0.1,1.8-0.2,2.7-0.5c6.1-1.6,12.1-3.4,18.2-4.8c9.9-2.3,18.6-7.1,26.7-12.8c4.9-3.5,9.2-7.9,13.5-12.3
						c8.8-8.9,16.7-18.8,24.4-28.7c0.8-1.1,1.7-2.1,2.4-3.3c4.7-7.6,10.5-14.3,15.8-21.4c5.3-7,9.9-14.5,14.8-21.8
						c5.6-8.2,11.2-16.4,16.9-24.6c1.5-2.1,3-4.3,4.5-6.4c0.9-1.2,0.9-2.4,0.2-3.8c-1.2-2.3-1.1-2.4,1.3-3.6
						c0.6-0.3,1.1-0.8,1.5-1.3c1.4-1.7,2.5-3.7,4.1-5.3c1.8-1.9,3.8-3.5,5.8-5.2c0.5-0.4,1.6-0.5,2-0.2c1.9,1.3,1.6,4.9-0.2,6.2
						c-0.9,0.6-1.8,1.5-2.4,2.4c-1.2,1.9-2.3,4-3.4,6c0.4,1.5,1.3,2.4,2.6,3.2c12.3,6.7,23.5,15.1,34.5,23.9c3,2.4,6,4.9,9.1,7.2
						c9,6.8,16.9,14.7,24,23.4c2.8,3.4,5.6,6.9,8.6,10.2c4.5,5,9.2,9.9,13,15.9c0.9-1.2,1.8-2.1,2.4-3.1c2.8-4.4,5.5-8.9,8.4-13.2
						c1.5-2.2,3.3-4.2,5-6.3c0.1-0.1,0.3-0.2,0.4-0.4c1.1-3.1,4.1-4.8,5.5-7.6c0.6-1.2,2.4-2.2,3.9-2.7c2-0.6,3.1,0.7,2.3,2.5
						c-1.2,2.7-2.4,5.5-4.2,7.8c-7.1,9.6-14.3,19.1-22,28.4c-1.6,1.9-2.9,3.8-5.3,4.6c-0.5,0.2-1.2,0.6-1.3,1c-0.7,2.8-3.5,4-5,6.1
						c-1.6,2.1-3.4,4.2-5.1,6.3c-11.3,12.9-23.5,25.1-35,37.8c-9.1,10-18.9,19.3-28.4,29c-3.8,3.9-7.7,7.9-11.4,11.9
						c-8.3,8.8-17.5,16.6-26.8,24.4c-5.5,4.6-11.5,8.7-17.5,12.9c-6.1,4.2-12.3,8.4-18.6,12.3c-3,1.9-6.4,3.1-9.6,4.6
						c-3.8,1.6-7.7,3-11.5,4.7c-3.1,1.4-6.3,2.3-9.7,2.5c-2.5,2.8-5.7,4.6-9.4,4.7c-7.7,0.2-15.4,1.4-23,2.2
						c-4.6,0.5-9.3,0.5-13.9,0.8c-1.5,0.1-3,0.4-4.7,0.7c0.1,1,0.2,1.8,0.4,2.5c1.9,10.3,4,20.7,5.7,31c1.4,8.9,2.2,17.8,3.7,26.7
						c1.9,11.6,4.1,23.2,6.2,34.8c1.4,8,2.9,15.9,4.4,23.9c0.3,1.9,0.8,3.7,1.7,5.7c0.4-0.8,0.9-1.6,1.2-2.5
						c4-10.6,12.4-15.5,22.9-17.9c7.9-1.8,15.5-1.2,23,1.6c2.9,1.1,5.7,2.2,8.6,3.3c0.3,0.1,0.6,0.3,0.8,0.3
						c3.6-1.2,5.9,1.6,8.6,2.9c1.4,0.7,2.4,1.8,4.2,1.4c0.7-0.1,1.6,0.7,2.7,1.2c8.8-6.3,17.8-12.6,26.7-19
						c-0.2-3.2,0.4-3.7,3.5-2.4c-0.1-0.8-0.4-1.5-0.3-2.2c0.1-0.7,0.3-1.6,0.8-1.9c0.9-0.6,1.6,0,2.1,0.9c0.2,0.3,0.4,0.6,0.8,1.3
						c1-0.7,1.8-1.4,2.8-2c3.6-2.3,7.1-4.7,10.8-6.7c3.8-2.1,7.7-0.8,10.6,2.4c3.4,3.7,6.1,8,8.9,12.1c1.9,2.8,3.2,5.9,4.8,8.9
						c0.8,1.5,1.7,3,2.5,4.5c2.5,4.8,2.1,8.5-1.8,12.2c-2.6,2.6-5.5,4.8-8.3,7.2c-0.7,0.6-1.3,1.1-1.7,1.3c-0.1,1.5,0.2,2.9-0.4,3.5
						c-1.2,1.3-2.4-0.4-3.9-0.7c-9.1,6.9-18.3,13.9-27.6,20.9c1.1,3.2,1.9,6.2,3.1,9.1c4.5,11.7,7.3,24,13.6,35
						c2.3,4,4.5,8.1,6.9,12c4.6,7.6,9.2,15.2,13.9,22.7c1.8,2.9,3.7,5.7,5.7,8.4c6.6,8.9,13.1,17.9,18.8,27.5
						c0.1,0.2,0.2,0.6,0.5,0.7c4.5,3.7,6.6,9.2,10.3,13.6c3.6,4.4,6.9,9.1,10.2,13.7c3.1,4.2,6.3,8.4,9.2,12.7
						c3.5,5.1,6.6,10.4,10.1,15.5c3.4,4.9,6.9,9.8,10.5,14.6c0.7,0.9,2,1.5,3,2.2c1.2,0.8,2.4,4.3,1.8,5.6c-0.5,1.2-1.9,1.5-3.2,0.5
						c-1.7-1.3-3.2-2.8-4.7-4.3c-0.9-0.9-1.7-1.8-2.7-2.8c-0.7,0.4-1.2,0.8-1.7,1.1c-8.7,6.6-17.2,13.4-26.6,19.1
						c-1.1,0.7-2.1,1.4-3.2,1.9c-14.2,7.3-28.1,15.4-43,21.3c-1.4,0.6-2.8,1.3-4.2,2c-5.2,2.7-10.7,4.4-16.5,5.2
						c-2.5,0.3-4.9,1.2-7.3,1.9c-3.8,1-7.6,2.1-11.7,1.3c-1.5-0.3-3,0.2-4.2,0.4c-0.6,1.3-1.1,2.3-1.4,3.3c-0.2,0.7-0.3,1.5-0.2,2.2
						c0.4,2.3,1,4.5,1.5,6.8c0.2,0.8,0.3,1.5,0.3,2.3c0,1.1-0.5,1.9-1.6,2.1c-1.1,0.2-1.9-0.4-2.2-1.4c-0.6-2-1.2-4.1-1.6-6.2
						c-2.3-12.1-6.2-23.7-10-35.3c-0.8-2.6-1.3-5.2-1.9-7.9c-2.4-11.8-4.7-23.7-7-35.5c-0.4-2.3-1-4.5-1.2-6.8
						c-0.2-1.6-1.6-2.4-1.9-3.7c-0.3-1.2,0.5-2.6,0.2-3.9c-1.2-6.4-2.4-12.7-3.7-19c-0.3-1.7-0.8-3.4-1.4-5
						c-1.6-5-3.3-10.1-5.1-15.1c-2.6-7.3-4.7-14.7-8.4-21.6c-1.1-2-1.9-4.2-2.8-6.3c-0.2-0.4-0.3-0.9-0.2-1.4
						c0.2-2.3,0.1-2.6-1.8-3.5c-4.4-2.1-8.7-4.1-13.1-6.2c-3-1.5-6.1-2.9-9-4.7c-1.8-1.1-3.3-2.7-5.4-4.5c0.8,2.5,1.3,4.4,2,6.3
						c0.3,0.8,0.6,1.6,0.9,2.5c0.3,1,0,1.9-0.9,2.5c-3.1,2.1-6.4,3.5-10.1,4.2c-0.2,0-0.4,0.1-0.6,0c-2.4-1.6-4.8-0.3-7.2,0.1
						c-4.6,0.7-9.1,1.5-13.7,2.6c-5.8,1.3-11.7,2.7-17.4,4.4c-10,2.9-20.2,4.4-30.4,5.8c-4.2,0.6-8.4,1.2-12.7,1.9
						c2.5,5.7,1.3,10.4-3.5,14.2c2.4,2.1,4.6,4.2,6.9,6.3c3.2,2.8,4.3,6.4,3.7,10.5c-0.9,6-3.7,10.8-9,14.2
						c-6.3,4-12.3,8.3-18.6,12.3c-3.2,2-6.8,3.7-10.3,5.3c-5.8,2.5-11.8,4.8-17.7,7.1C518.6,696.9,518.1,697.1,517.6,697.4z
						 M342.2,395.7c1.1-0.4,2.3-0.9,3.4-1.3c3.3-1,6.7-2,10-3c0-0.1-0.1-0.3-0.1-0.4c-7.2,1.7-14.4,3.5-21.6,5.2
						c0,0.1,0.1,0.2,0.1,0.4C336.8,396.3,339.5,396,342.2,395.7c-5,1.5-10,2.9-15.3,3.5c1.1-0.5,2.3-1.1,3.4-1.6
						c-0.1-0.2-0.1-0.3-0.2-0.5c-1.6,0.5-3.2,1.1-4.8,1.6c-0.5,2.2-2.4,1.8-3.9,2.2c0.5-0.4,1-0.7,1.6-1.1c0-0.1-0.1-0.2-0.1-0.3
						c-0.9,0.3-1.8,0.5-3.1,0.9c0.8,0.2,1.2,0.3,1.7,0.4c-1.2,0.4-2.3,0.8-3.5,1.1c-4.5,1.2-8.9,2.5-13.4,3.7
						c-6.1,1.6-12.1,3.5-18.2,4.7c-6.2,1.2-12,3.8-18.6,3.5c-2.3-0.1-4.7,1.5-7,2.3c0.6,7,0.5,13.7,2.1,20.2
						c9.2-2.2,18.4-4.2,27.4-6.4c12.5-3,24.9-6.3,37.6-8.3c21.2-3.4,42.1-8,63-12.6c16.9-3.7,33.7-7.8,50.5-11.4
						c11.9-2.6,23.7-5.2,35.4-8.6c5.4-1.6,10.9-2.6,16.3-3.8c0.6-0.1,1.2-0.3,2.2-0.6c-0.8-0.4-1.1-0.5-1.5-0.7
						c-3.6-1.9-4.6-3.8-3.9-7.7c0.2-1.1,0.6-2.2,1.1-3.2c1.9-3.6,4.5-6.7,7.5-9.5c0.6-0.6,1.2-1.2,2.2-2.2c-1.7,0.2-2.7,0.4-3.7,0.5
						c-14.8,2.1-29.3,6-44.2,7c-4,0.3-8.1,0.9-12,1.8c-12.2,2.6-24.3,5.3-36.4,8.2c-10,2.3-19.9,4.9-29.8,7.4
						c-3.3,0.8-6.6,1.8-9.9,2.7c8.4-0.3,16.2-3.2,24.4-4.5c-0.9,0.4-1.8,0.8-2.7,1c-8.5,2.2-16.9,4.6-25.5,6.6
						C354.7,393.4,348.4,394.5,342.2,395.7z M760.6,121.5c-1.5,2-2.9,3.8-4.2,5.7c-2,3-3.7,6.1-5.8,9c-4.8,6.8-9.7,13.5-14.5,20.2
						c-1.9,2.6-3.8,5.1-5.3,7.9c-3.4,6-7.4,11.5-11.6,16.9c-1.6,2.1-3.2,4.1-4.6,6.3c-5.8,8.7-12.2,16.9-19.2,24.6
						c-1.9,2.1-3.7,4.5-5.5,6.7c-2.7,3.3-5.4,6.6-8.1,9.8c-6.9,8.2-15.3,14.3-25,18.9c-1.2,0.6-2.4,1.2-3.6,1.8
						c-7.9,4.2-16.3,7-25,9c-3.7,0.9-7.4,1.5-11,2.3c-3.4,0.8-6.6,2.3-9.2,4.7c-2,1.9-3.2,4.3-2.4,7c0.8,2.8,3.1,4.3,6,4.9
						c1.4,0.3,2.9,0.4,4.3,0.5c2.2,0.2,4.4,0.3,6.6,0.6c6.7,0.8,13.5,1,20.2-0.5c2.5-0.5,5.1-0.9,7.7-1.2c0.7-0.1,1.8,0.2,2,0.7
						c0.3,0.6,0.1,1.8-0.3,2.3c-1.2,1.5-2.5,3-4,4.2c-7.5,6-15.1,12-22.7,18c-0.3,0.2-0.6,0.5-1,0.7c-8,5.1-15.1,11.4-22.3,17.5
						c-3.5,3-5.2,6.9-5.5,11.4c-0.2,2.8,1.1,4.7,3.8,4.8c3.5,0.2,7.2,0.2,10.7-0.3c5.1-0.8,9.7-3.1,14.3-5.3
						c9.5-4.6,19.5-8.5,27.8-15.3c0.7-0.6,1.7-1,2.6-1.2c0.5-0.1,1.3,0.3,1.7,0.7c0.3,0.3,0.2,1.2,0,1.6c-0.4,0.7-1,1.4-1.7,1.9
						c-4.2,3.1-8.4,6.2-12.7,9.1c-4.2,2.8-8.6,5.2-12.8,8c-4.2,2.9-6.9,7-8.1,11.9c-1,4,1,6.8,5.1,7c3.1,0.1,6.3,0.2,9.2-0.5
						c5.6-1.4,11.1-3.2,16.6-5.1c2.6-0.9,5-2.5,7.4-3.9c6.9-4.3,13.6-8.8,20.5-13.1c1.1-0.7,2.1-2,3.6-0.8c0.9,0.7,0.6,1.9-1.2,3.7
						c-2.9,2.9-5.9,5.8-9,8.6c-3.1,2.9-5.5,6.2-7.5,9.9c-0.8,1.4-1.5,2.9-1.3,4.7c2,0.9,4,1.5,6.2,1.2c6.4-0.8,12.6-2.2,18.2-5.3
						c3.1-1.7,6.1-3.3,9.1-5.1c6.9-4.1,14.2-7.4,20.6-12.4c10.5-8.3,21.1-16.6,31.5-25c6.6-5.3,13-11,18.7-17.3
						c5.3-5.8,10.4-11.6,15.7-17.4c8.6-9.4,17.3-18.7,25.9-28.1c7.9-8.6,15.6-17.4,24.2-25.3c2.8-2.5,5.2-5.4,7.2-8.6
						c1.7-2.6,3.9-4.8,5.8-7.2c1.1-1.4,2.3-2.8,3.4-4.2c-2.1-2.3-4.1-4.3-5.9-6.4c-8.8-10.5-18.2-20.5-28.2-29.9c-1-1-1.9-2.2-3-3.2
						c-2.9-2.8-5.8-5.7-8.9-8.3c-6.6-5.5-13.4-10.7-20.1-16.1c-2.3-1.9-4.2-4.3-6.5-6.2C773.8,128.7,767.5,124.9,760.6,121.5z
						 M456.1,759.7c0.7-0.9,1.3-1.5,1.8-2.2c5.7-7.5,11.5-15,17.2-22.6c3.2-4.3,7.2-7.3,12.7-8.5c6.3-1.4,12.6-1.7,19-1.6
						c6.4,0.1,12.7-0.6,19.1-1.2c3.4-0.3,6.6-1.5,9.4-3.5c2.3-1.6,2.8-3.5,1.3-5.7c-2.1-3.1-4.6-5.9-8.2-7.5
						c-4.1-1.8-8.2-3.5-12.2-5.3c-2.7-1.2-5.4-2.6-8.6-1.3c-0.5,0.2-1.7-0.2-2-0.6c-0.3-0.4-0.1-1.4,0.2-2.1
						c0.8-2.1,2.7-2.9,4.5-3.8c5.9-2.9,11.8-5.7,17.7-8.7c6.4-3.3,12.9-6.6,19.2-10.2c5-2.8,9.9-5.9,14.8-9.1c3.4-2.2,6-5.2,7.5-9
						c1-2.7-0.1-7-2.5-8.3c-2.8-1.6-5.9-2.7-9.1-2.5c-5.8,0.5-11.6,0.8-17.2,2.4c-3.9,1.1-7.9,2-11.8,2.9c-1.3,0.3-2.7,0.4-4,0.4
						c-1.3,0-2.2-0.8-2.6-2c-0.4-1.3,0.6-1.7,1.4-2.5c1.6-1.4,3.5-1.5,5.3-2.1c8.4-2.5,16.8-5,25.3-7.5c0.9-0.3,1.9-0.6,2.7-1
						c3.4-1.9,4.3-6.4,1.9-9.5c-0.4-0.5-1.1-0.9-1.7-1c-2.7-0.5-5.3-1-8-1.2c-10.8-0.8-21.4,0.5-31.6,4.4c-2.6,1-5.1,0.2-7.7,0.6
						c-0.4,0.1-1.3-0.6-1.4-1.1c-0.1-0.5,0.2-1.4,0.6-1.7c1.1-0.9,2.3-1.8,3.6-2.4c4.3-2.3,8.8-4.1,13.7-4.6
						c5.6-0.5,10.2-3.3,14.8-6c1.3-0.8,2.5-1.8,3.6-2.9c1.8-1.8,1.8-3.2,0.2-5.3c-0.4-0.5-0.9-1.1-1.2-1.6c-0.5-1.1-1.4-1.6-2.5-1.8
						c-3-0.5-6.1-1.2-9.1-1.6c-10.4-1.1-20.8-0.8-31.1,0.8c-3.9,0.6-7.8,1.5-11.6,2.3c-13,2.7-25.8,5.7-38,11
						c-5.7,2.5-11.5,4.6-17.2,7c-7.2,3-14.6,5.7-21.2,10c-12.9,8.3-25.9,16.5-37.9,26.1c-10.7,8.6-21.3,17.2-30.9,27.1
						c-0.6,0.7-1.2,1.4-2.3,2.6c1,0.7,1.8,1.2,2.5,1.8c7.2,6.5,14.4,13.2,21.7,19.6c11.4,10.2,24.8,17.3,38.2,24.4
						c13.9,7.3,28,14.3,42.1,21.4C449.6,756.8,452.8,758.2,456.1,759.7z M275.6,515.1c4.6-0.1,8.8-0.8,12.9-1.7
						c17.5-3.8,35.1-7.7,52.6-11.6c7.8-1.7,15.6-3.5,23.4-5.2c11.5-2.5,23-5,34.5-7.6c13.8-3.1,27.7-6.2,41.5-9.2
						c14.4-3.1,28.9-6.3,43.3-9.2c11.3-2.3,22.6-4.3,33.8-6.5c13.2-2.6,26.3-5.4,39.4-8c5.7-1.1,11.5-1.8,17-3.3
						c13.2-3.7,26.5-7,40.1-8.6c3.3-0.4,6.6-1,10-1.5c-1-6.4-2-12.7-2.9-19c-1.5-10.5-3-21-4.5-31.5c-0.7-5.2-1.4-10.3-2.1-15.5
						c-0.1-0.6-0.4-1.2-0.8-2.1c-2.2,5.4-3.8,10.5-4.8,15.9c-2.4,12.2-5.1,24.3-7.8,36.5c-0.8,3.5-1.7,6.9-2.9,10.3
						c-1.4,3.8-4.5,4.9-8.1,3.1c-0.7-0.4-1.4-0.8-2.1-1c-2.4-0.8-4.2-2.4-5.4-4.6c-2.4-4.2-4.9-8.3-6.9-12.7
						c-5.2-11.5-11.7-22.2-18.1-33c-0.7-1.2-1.7-2.4-2.7-3.4c-0.5-0.6-1.4-1.1-2.2-1.1c-7.2-0.7-14.4-1.1-21.6-1.8
						c-5.3-0.5-10.4,0-15.5,1.2c-6.3,1.5-12.6,2.7-19,4.1c-6.3,1.4-12.7,2.6-18.9,4.1c-7.6,1.9-15.1,4.1-22.7,5.9
						c-18.2,4.2-36.5,8.2-54.8,12.2c-16,3.5-32,7.2-48.1,10.4c-19.9,3.8-39.9,6.9-59.5,12.2c-8.2,2.2-16.5,3.9-24.8,5.9
						c-1.7,0.4-3.6,0.7-5.2,2C266.3,465.5,272.3,490,275.6,515.1z M300.6,524.1c0.1,1.3,0.1,2,0.2,2.6c1.1,6.3,2,12.6,3.2,18.8
						c1.7,9.4,3.8,18.7,5.4,28.1c1.9,11.4,3.5,22.9,5.3,34.3c0.4,2.3,0.9,4.6,1.4,7.4c1.2-1.3,2-2.1,2.8-3c3.2-3.5,6.2-7.1,9.7-10.4
						c8.1-7.6,16.2-15.2,24.6-22.5c7-6.1,13.8-12.4,20-19.3c10.1-11.1,21.2-20.8,34.4-28c0.6-0.3,1.1-0.8,1.7-1.1
						c3.9-2.2,7.9-4.1,12.4-4.5c4.4-0.4,8.9-0.3,13.3,0.7c3.4,0.7,6.9,1.4,10,2.8c11.4,5.3,22.4,11.3,33.2,17.8
						c2.8,1.7,5.4,3.7,8.3,5.4c11.6,6.9,23.3,13.7,34.9,20.6c1.7,1,3.3,1.9,5.1,3c25.1-20.6,50.2-41.1,75.4-61.7
						c-3.3-16.5-6.4-32.9-10-49.4c-1.1,0.2-1.8,0.1-2.3,0.4c-6.9,3.1-14.3,4.7-21.6,6.4c-11.1,2.5-22.3,4.6-33.5,6.7
						c-6.5,1.2-13.2,1.9-19.7,3.2c-19.5,4.1-38.8,8.7-58.3,12.5c-16.2,3.2-32.3,6.8-48.4,10.3c-14.1,3.1-28.3,6.1-42.5,8.8
						c-9,1.7-18.1,3-27.1,4.4c-9.2,1.4-18.5,2.7-27.8,4.1C307.2,523,304,523.5,300.6,524.1z M562.9,605.2c-0.8-0.8-1.1-1.1-1.5-1.3
						c-3.6-2.3-7.2-4.5-10.7-6.9c-6.2-4.1-12.3-8.4-18.6-12.3c-9.7-6.1-19.7-11.9-29.5-17.8c-8.9-5.4-17.7-11-26.7-16.3
						c-8.2-4.8-16.6-9.4-25.1-13.9c-4.2-2.3-8.6-4.4-13.6-4.6c-2.2-0.1-4.4-0.3-6.7-0.2c-14.3,0.1-26.8,5-37.2,14.9
						c-5,4.8-9.8,9.9-14.9,14.6c-7.4,6.9-15.1,13.5-21.8,21.2c-0.9,1-1.9,2-2.9,2.9c-7.1,6.3-14.3,12.7-21.5,19
						c-1.5,1.3-3.1,2.6-4.5,4.1c-2.7,2.7-5.3,5.4-7.9,8.1c-0.9,1-1.8,2.1-3,3.6c1.8,8.6,3.7,17.9,5.5,27.2c0.3,1.5,1.2,1.8,2.5,1.7
						c2.8-0.2,5.6-0.1,8.4-0.5c8.9-1.2,17.8-2.5,26.6-3.9c8.5-1.3,16.8-3.4,25.5-3.9c1.7-0.1,3.5-0.6,4.9-1.5
						c17.1-11.1,35.6-19.4,54.3-27.1c6.7-2.8,13.5-5.2,20.4-7.3c14.7-4.4,29.7-7.6,45-9.2c10.8-1.1,21.4-0.7,31.9,1.9
						c1.1,0.3,2.3,0.5,3.3,1c3.1,1.4,5.9,3.1,5.5,7.2c0,0.3,0.2,0.7,0.4,1.2C555,606.3,558.7,605.8,562.9,605.2z M804.8,646.6
						c-1-1.5-1.6-2.8-2.4-3.8c-4.9-6.7-9.9-13.3-14.8-20c-8.2-11.2-16.4-22.4-22.9-34.8c-1.7-3.2-3.8-6-5.7-9.1
						c-3.5-5.7-6.8-11.4-8.9-17.8c-2.7-8.6-5.6-17.2-8.5-25.8c-0.3-1-0.8-1.9-1.2-2.9c-0.6,0.4-1,0.5-1.3,0.7
						c-8.8,6.3-17.5,12.7-26.3,19c-1.6,1.1-3.2,2.2-4.7,3.3c-1.1,0.8-2.2,1.6-3.1,2.5c-2.4,2.2-2.7,2.2-4.8-0.1
						c-3.6,1.3-4.3,1.3-7,0.9c-5.4-0.8-9.1-4-12-8.3c-3.9-5.8-6.5-12.1-7.5-18.9c-0.2-1.6-1-2.8-2.1-4c-2.1-2.5-5.3-3.1-8-4.6
						c-1.6-0.9-3.1-0.7-4.7,0.2c-3.1,1.7-5.2,4.3-6.6,7.4c-2.2,4.9-3.1,10.1-2.7,15.5c0.4,5.7,0.7,11.4,1.1,17
						c0.4,5.4,1,10.8,1.7,16.1c0.2,1.3,0.8,2.6,1.3,3.8c1.3,3.4,3.7,6.1,6.2,8.6c3.3,3.3,6.6,6.5,10.8,8.6c3.8,1.9,7.6,3.9,11.4,5.6
						c4.7,2.1,7.8,5.6,10.4,10c3.4,5.8,6.3,11.5,7.7,18.2c1.7,8.1,4.6,15.9,6.9,23.9c1.9,6.6,4.2,13,5.2,19.9
						c0.3,2.3,1.1,4.6,1.8,7.3c2.4-0.3,4.4-0.6,6.5-1c2.6-0.5,5.3-1.2,7.9-1.7c2.4-0.4,4.8-0.5,7.2-0.9c11.9-2.3,22.6-7.8,33.2-13.4
						c8.6-4.5,16.9-9.2,25.5-13.8C798.2,652.2,801.2,649.2,804.8,646.6z M495.5,377.3c0.9,0.3,1.7,0.8,2.5,0.9
						c7.8,0.9,15.5,1.8,23.4,0.3c8.4-1.6,16.7-2.9,25.3-2.7c3.2,0.1,6.3,0.2,9.3,1.5c1.2,0.5,2,1,2.5,2.1c1.2,2.5,2.4,5.1,3.6,7.6
						c1.2,2.5,2.3,5.1,3.8,7.4c4.1,6.1,8.5,11.9,12.7,18c3.2,4.6,6.1,9.3,9.3,14c1.9,2.9,4,5.6,5.9,8.4c0.2-0.1,0.4-0.1,0.6-0.2
						c0.7-2.8,1.3-5.5,2.1-8.3c2.4-8.9,4.2-17.8,5.8-26.9c1.5-8.2,3.5-16.4,5.4-24.6c0.2-0.7,0.6-1.4,1-2.1c1.7-3.1,4.6-4.4,7.7-5
						c4.3-0.9,8.7-1.8,13.1-2.3c9.2-1.1,18.4-1.9,27.6-3c1.9-0.2,4-0.4,5.4-1.5c-0.5-2-1.1-3.6-1.2-5.3c-0.2-3.6-3.6-5.7-6.8-4
						c-4.2,2.3-8.7,3.7-13.3,4.6c-3.4,0.7-6.8,1.3-10.3,1.7c-1.6,0.2-3.3,0.2-4.9-0.1c-4.4-0.7-8-4.7-8.3-9.2
						c-0.2-3.6,0.5-6.9,2.9-9.8c0.5-0.6,0.9-1.2,1.6-2.2c-4.4,1-8.3,1.8-12.2,2.8c-3.7,0.9-7.4,1.1-11.2,0.2c-2-0.5-3.6-1.5-4.5-3.4
						c-1.4-2.7-1.9-5.6-1.1-8.7c1.4-5.3,4.2-9.7,8.2-13.4c3.6-3.2,7.2-6.4,10.9-9.6c1.1-1,1.6-1.9,1.5-3.5
						c-0.4-3.6-0.5-7.1-0.8-10.7c-0.3-2.9-0.6-5.7-1-8.8c-2.3-0.4-4.3-0.8-6.3-1.3c-0.6-0.1-1.3-0.5-1.6-1c-2.1-4-3.7-8.1-2.6-12.7
						c0.4-1.7,1.2-3.2,2.7-4.3c1.7-1.1,3.2-2.4,5.1-3.7c-0.7-1.3-0.3-3-1.7-4.5c-2.3,2.1-4.5,4.1-6.6,6.2c-2,2-3.7,4.2-5.7,6.1
						c-4.7,4.6-9.7,8.9-14.2,13.6c-5.5,5.8-10.7,11.9-16,17.9c-0.8,0.9-1.5,0.8-2.5,0.1c-2.4-1.6-4.9-3.3-7.5-4.6
						c-3.3-1.7-6.8-3.2-10.2-4.8c-10.9-5.3-21.8-10.4-33.3-14.1c-0.8-0.3-1.6-0.4-2.9-0.6c0.7,1.8,1.1,3.2,1.6,4.5
						c1.7,4.2,3.7,8.3,5.3,12.5c3.7,10.2,7.1,20.4,10.8,30.6c1.1,3,2.2,6,3.6,8.8c1.4,2.9,1.5,3.4-0.5,6
						c-5.3,7.3-11.7,13.6-17.8,20.2c-1.6,1.8-3.1,3.7-4.7,5.5c-0.9,1.1-1.9,2.2-2.8,3.3C500.9,369.1,497.2,372.1,495.5,377.3z
						 M276.6,521.3c0.3,1.7,0.5,2.9,0.7,4.1c2.1,10.5,4.3,21,6.3,31.5c1.7,8.7,3.3,17.4,5,26.2c2.1,11.7,4.1,23.4,6.4,35
						c2.4,12.3,5.4,24.5,7.1,37c0.6,4.2,1.7,8.3,3.3,12.3c0.9-0.1,1.7-0.1,2.4-0.2c7.3-0.9,14.5-2,21.8-2.8
						c11.7-1.3,23.3-3.3,34.5-7c0.9-0.3,1.8-0.6,2.6-1.2c4.7-3.3,9.4-6.7,14.1-10.1c0.6-0.4,1.1-0.9,1.7-1.4
						c-1.1-0.4-2.2-0.4-3.1-0.2c-8.2,1.4-16.4,2.6-24.5,4.2c-10.8,2.1-21.8,3.2-32.8,3.7c-2.8,0.1-3.1-0.1-4-2.6
						c-0.3-0.7-0.5-1.5-0.5-2.2c-0.2-5.1-1.4-10.1-2.3-15.1c-3.6-20.3-7.1-40.7-10.6-61c-1-5.9-1.6-11.9-2.7-17.7
						c-1.9-9.9-4-19.7-6-29.5c-0.7-3.4-0.3-4.2,3-5c5.7-1.3,11.5-2.4,17.3-3.4c5.7-0.9,11.5-1.5,17.2-2.4c8.9-1.5,17.9-3.2,26.8-4.7
						c8.6-1.5,17.2-2.7,25.7-4.3c8.6-1.7,17.2-3.8,25.8-5.5c19.9-4.1,39.9-8,59.8-12.3c11.4-2.5,22.8-5.1,34.4-6.5
						c13-1.6,25.6-4.7,38.3-7.9c9.4-2.4,18.8-4.2,28.3-5.9c6.2-1.1,12.6-1.8,18.5-4.4c2.4-1.1,4.6,0.3,5.1,3c0.7,4,1.3,8,2.2,12
						c1.7,8.1,3.8,16.2,5.3,24.3c2.2,11.9,3.8,23.8,6,35.7c2.4,12.6,5.2,25.1,7.8,37.7c0.1,0.6,0.5,1.2,0.8,2
						c4.7-8.2,9.2-16.1,13.9-24.4c-0.4-0.3-0.8-0.6-1.3-0.9c-3-2.3-4.6-5.4-5.5-8.9c-1.1-4.2-1.9-8.5-1.6-12.9
						c0.7-9.2,1.7-18.4,9.9-24.6c1.1-0.9,1.5-2.2,1.2-3.6c-0.5-3.2-0.8-6.5-1.4-9.7c-2.3-13-4.7-26-7.1-39c-0.3-1.7-0.7-3.4-1-5.1
						c-0.8,0.1-1.4,0.2-1.9,0.3c-2.8,0.7-5.6,1.4-8.4,2c-6.4,1.3-12.9,2.4-19.3,3.7c-19.8,3.8-39.6,7.7-59.4,11.6
						c-9.1,1.8-18.1,3.9-27.2,5.7c-15.1,3-30.4,5.6-45.5,8.8c-21.1,4.4-42.1,9.2-63.1,13.8c-18.8,4.1-37.5,8.4-56.3,12.4
						c-18.2,3.9-36.7,6.5-54.6,11.9C285.6,518.5,281.3,519.8,276.6,521.3z M715.6,690.4c0.8,3.7,1.7,7.3,2.4,11
						c1.4,6.9,2.7,13.8,4,20.7c0.5,2.4,1.3,3.1,3.7,3.1c0.6,0,1.2-0.1,1.7-0.1c11.1-1.5,21.6-4.8,31.7-9.7c2.3-1.1,4.7-2.2,7.1-3.2
						c8.3-3.4,16.7-6.7,24.9-10.2c9.3-4,18.2-8.5,25.3-15.9c1.5-1.6,3.4-2.9,5.1-4.3c0.9-0.7,1.9-1.2,2.9-0.3
						c1.1,0.9,0.8,2.1,0.1,3.1c-0.4,0.6-0.9,1.3-1.4,1.8c-1.8,1.7-3.5,3.7-5.6,5.1c-7.9,5.5-15.8,11.1-24.6,15.2
						c-5.4,2.5-10.8,5.2-16.2,7.8c-7.1,3.3-14.1,6.7-21.9,8.2c-4,0.8-7.9,1.8-11.6,3.5c-2,0.9-4.2,1.3-6.3,2c-2.8,1-5.8,1.1-8.4,2.7
						c-1,0.7-2.1,0.3-2.6-0.9c-0.5-1.2-1.3-1.2-2.4-0.8c1.7,12.1,5.9,23.4,9.2,35c1.1-0.1,2,0,2.8-0.2c5.4-1.6,11-2.5,16.7-2.8
						c1.3-0.1,2.7-0.2,4-0.6c7.6-2.5,15.4-4.5,22.7-7.8c9.5-4.2,18.7-9.2,27.8-14.2c14.6-8.1,29.5-15.8,42.1-26.9
						c0.6-0.5,1.1-1,1.6-1.4c-0.1-0.4-0.2-0.6-0.3-0.7c-3.7-4.8-8-9.2-10.7-14.8c-0.2-0.4-0.7-0.6-1.1-0.9c-0.9-0.6-2.1-1-2.8-1.9
						c-2.3-2.7-4.5-5.5-6.6-8.4c-2.8-3.8-5.2-7.9-8.2-11.6c-2.9-3.6-5.4-7.5-7.6-11.6c-1-1.9-2.1-3.7-3.2-5.5
						c-0.7-1.1-1.5-2.2-2.4-3.5c-1.3,1.1-2.5,2-3.5,3c-1.2,1.2-2.4,1.9-3.9,0.8c-5.7,4-11.2,7.9-16.8,11.7c-2.3,1.6-4.7,3.1-7.2,4.3
						c-6.9,3.4-14,6.5-20.9,9.8c-4.7,2.2-9.6,3.4-14.8,3.7c-2.3,0.1-4.7,0.1-6.9,0.6c-6,1.4-12,3-17.9,4.6
						C715.9,690,715.9,690.1,715.6,690.4z M453.3,763.5c-3.3-1.3-6.2-2.4-9.1-3.4c-11.8-4.1-23.1-9.4-33.9-15.6
						c-12.4-7.2-24.9-14.5-35.9-23.9c-0.4-0.4-0.9-0.7-1.4-1c-11.8-8.1-23.4-16.4-34.1-26c-0.5-0.5-1.2-0.9-1.9-1.4
						c-9.1,8.2-17.7,16.5-25.1,26c0.4,0.5,0.5,0.7,0.7,0.9c10.7,10.1,21.6,19.9,34.2,27.6c3.5,2.2,6.8,4.7,10.3,7
						c4.9,3.2,9.9,6.4,14.9,9.5c4.3,2.7,8.7,5.3,13.1,8c7.4,4.5,14.9,8.9,23.1,11.9c6.7,2.5,13.3,5.3,19.9,8c1.4,0.6,2.8,1.2,4,1.7
						c1.7-1.8,3.2-3.3,4.7-4.9c0.6-0.6,1-1.4,1.4-2.2c2.8-4.4,5.6-8.8,8.5-13.1C448.8,769.6,451,766.7,453.3,763.5z M606.2,597
						c1-1.8,1.7-3.4,2.6-4.9c1.4-2.4,2.9-4.8,4.5-7.1c1.7-2.4,2.7-4.8,1-7.6c-0.4-0.6-0.4-1.5-0.5-2.2c-0.7-3.8-1.5-7.6-2.2-11.4
						c-2.6-13.9-5.2-27.9-7.8-41.8c-0.2-1-0.5-2-0.9-3.4c-3.5,2.8-6.6,5.3-9.7,7.8c-6.1,5-12.2,10-18.3,15.1
						c-5.4,4.5-10.8,9-16.3,13.5c-8.6,7-17.3,13.9-26,20.9c-1.1,0.9-2,2-3,3c0.6,0.5,0.8,0.7,1.1,0.9c9.3,6.1,18.6,12.2,27.8,18.3
						c2.3,1.5,4.7,2.8,6.7,4.6c1.7,1.5,3.2,1.6,5.2,1c8.7-2.5,17.6-4.3,26.7-5.2C600.1,598.1,603.2,597.5,606.2,597z M676,524.8
						c0.4,1.6,0.6,3.1,1.1,4.5c1.4,4,2.9,7.9,4.5,11.9c1.2,3,2.5,6.1,4,8.9c1.3,2.4,3.6,3.6,6.3,4.3c1.4,0.4,2.5,0.1,3.7-0.8
						c3.4-2.8,6.8-5.7,10.4-8.2c10.1-7.2,20.3-14,30.3-21.3c9.8-7.2,19.4-14.6,29.1-22c0.8-0.6,1.5-1.4,2.2-2.1
						c-0.4-0.6-0.6-0.9-0.9-1.1c-3.7-3-6.4-6.7-8.6-10.8c-0.5-0.9-1.3-1.7-2-2.4c-2.3-2.2-4.7-4.3-6.9-6.6c-1.3-1.4-2.2-3-3.4-4.7
						c-2.2,1.7-4.3,3.4-6.5,5c-8,5.9-16,11.9-24,17.6c-4.9,3.5-10,6.6-14.8,10.1C692.4,512.8,684.4,518.7,676,524.8z M543.1,618.4
						c0.1,0.2,0.1,0.4,0.2,0.6c1.3,0.1,2.6,0.1,3.9,0.2c4.9,0.2,9.8,0.5,14.4,2.5c0.6,0.3,1.5,0.2,2.2,0.1c4.7-0.9,9.4-2,14.2-2.9
						c12.3-2.4,24.6-4.8,36.9-7.2c9.7-1.9,19.5-3.9,29.2-5.9c1.4-0.3,2.7-0.8,4.4-1.3c-1-4.8-1.9-9.3-2.9-13.7
						c-3.8,0.5-7.4,0.8-10.8,1.4c-4.3,0.7-8.5,1.6-12.6,2.4c-0.7,4.3-1,4.5-5.2,4.9c-3.7,0.4-7.5,0.8-11.2,1.2
						c-7,0.9-14,1.5-20.9,2.8c-7.7,1.4-15.2,3.4-22.9,5c-3.2,0.7-6.5,1-9.7,1.5c-1.3,0.2-2.1,0.7-2.7,2.1c-0.6,1.4-1.9,2.6-3,3.7
						C545.5,616.8,544.3,617.5,543.1,618.4z M651.1,524.4c3.1-3.5,7-5.4,11.1-6.1c0.2-2.6,0.2-4.8,0.5-7c0.8-5.7,3.8-10.5,7.3-14.9
						c5.5-6.8,11.9-12.1,21.3-12.3c1,0,1.9-0.4,3.5-0.7c-3-1.3-5.3-2.5-7.7-3.4c-2.6-0.9-5.3-1.8-8.2-1.4c-3.4,0.5-6.8,1.2-10.2,1.7
						c-4.9,0.8-8.9,3.1-12.1,6.8c-0.5,0.6-1.1,1.1-1.7,1.6c-2.6,2.1-4.1,4.9-5.1,7.9c-1,2.9-1.6,6-2.6,8.9
						c-1.4,4.2-1.1,8.3-0.3,12.6C647.4,520.9,648.8,522.7,651.1,524.4z M648.8,527.5c-0.4-0.5-0.6-0.7-0.8-0.9
						c-5.1-4.5-6.8-10.1-5.9-16.7c0.2-1.3,0.2-2.6,0.3-4c-2.8,0.2-4.6,0.8-6.4,2.2c-3.2,2.5-5.7,5.5-6.8,9.5
						c-2.5,8.3-2.5,16.7,0,25.1c0.7,2.2,1.8,4.2,3.8,5.3c2,1.1,4.1,2.1,6.2,2.6c3.4,0.8,5-0.7,5.2-4.1
						C644.7,540,645.3,533.4,648.8,527.5z M773.5,496.4c3-1.8,6.2-3.5,9.1-5.4c2.8-1.9,3.4-4,2.3-7.3c-0.3-0.9-0.6-1.8-1.1-2.7
						c-1.9-3.2-3.9-6.4-5.9-9.6c-1.7-2.7-3.5-5.3-5.1-8c-1.9-3.2-3.5-3.8-6.9-2c-2.2,1.2-4.3,2.5-6.5,3.9c-1.7,1.1-3.3,2.3-5,3.5
						c0.5,0.9,0.8,1.6,1.2,2.2c1.8,3,3.6,5.9,5.3,8.9c1,1.6,2,3.3,3,4.9c0.7,1.1,1.5,2,2.1,3.1C767.8,491.3,770.3,494.1,773.5,496.4
						z M708.7,492.5c0-0.3-0.1-0.5-0.1-0.8c-4.7-2.2-9.4-4.3-14.8-3.6c-8.6,1-15.2,5.4-20.5,11.8c-3.6,4.3-5.7,9.4-6.6,14.9
						c-0.5,2.9,0.6,4.2,3.4,4.9c1.5,0.4,2.1-0.6,3-1.3c9.4-7.5,19-14.9,29.2-21.3C704.4,495.7,706.5,494.1,708.7,492.5z
						 M633.9,586.3c5.2-1.5,10.3-3,15.4-4.4c-0.1-0.5-0.1-0.9-0.2-1.3c-2.6-7.4-4-15.1-4.2-23c0-1.1-0.3-2.2-0.4-3.2
						c-1.4,0.2-2.5,0.6-3.5,0.4c-1.7-0.2-2.4,0.6-3.1,1.9c-1.9,3.7-3.8,7.4-5.8,11c-2,3.6-4,7.2-6.1,11.1
						C628.5,581.4,631,583.7,633.9,586.3z M637.8,286.2c-6.5-1.4-12.5-2.3-19-2.5c0.4,5.1,0.8,9.9,1.2,15.1
						C626.1,294.5,631.8,290.5,637.8,286.2z M639.4,493.8c0.5,2.7,0.1,5.6,1.7,8C641.1,499,640.5,496.3,639.4,493.8z M654.3,607
						c0.9-0.5,1.4-0.7,1.9-1c-0.6-1.4-1.1-2.5-1.9-4.2C654.3,603.8,654.3,605.3,654.3,607z M309.2,721.9c0.7,1.4,0.7,1.4,2.2,1.8
						C310.6,722.4,310.6,722.4,309.2,721.9z M611.9,593.3c0.2,0.1,0.5,0.3,0.7,0.4c0.5-0.9,1-1.8,1.5-2.8c-0.2-0.1-0.4-0.2-0.6-0.3
						C613,591.5,612.5,592.4,611.9,593.3z M341.3,683.8c-0.1-0.1-0.2-0.2-0.3-0.3c-0.3,0.3-0.5,0.5-0.8,0.8c0.1,0.1,0.1,0.1,0.2,0.2
						C340.7,684.2,341,684,341.3,683.8z"/>
					<path d="M186.4,216.9c-0.2,0.1-0.3,0.2-0.5,0.2c-0.4,1-1.1,1.8-2.2,2.7c-3.9,3-7.7,6.1-9.9,10.8c-3.9,8.3-7,16.9-8,26.2
						c-0.9,8.2-1.3,16.3,0.5,24.5c3.6,17,13.4,28.7,29.2,35.7c0.4,0.2,0.8,0.4,1.4,0.8c-2.6,1.2-5,2.3-7.3,3.4
						c-11,5.5-20.9,12.8-30.5,20.4c-21.5,17.2-42.1,35.5-60.4,56.1c-8.6,9.7-17,19.5-24.5,30.1c-3.3,4.7-6.7,9.5-10.1,14.3
						c-0.4,0-1-0.2-1.6-0.1c-1.4,0.2-2.2,1.1-1.7,2.4c0.7,2,0,3.6-0.9,5.2c-1.1,1.8-2.2,3.6-3.3,5.4c-5,8.3-10,16.5-14.9,24.8
						c-1.7,2.9-3.3,5.9-4.8,8.9c-0.4,0.8-0.7,1.8-0.8,2.7c-0.1,1.3,1.5,2.2,2.4,1.3c1.3-1.2,2.6-2.6,3.4-4.1
						c6.3-12.2,12.9-24.2,20.8-35.5c0.5-0.8,1.1-1.5,1.5-2.1c3.8,2.6,7.3,5.3,11.1,7.7c6.3,3.9,12.7,7.7,19.1,11.4
						c6.7,3.8,13.5,7.5,20.3,11.1c6.6,3.6,13.3,7,19.9,10.7c7.2,4.1,14.5,8.1,22.3,11.1c3.7,1.4,7.4,2.8,11.3,4.3
						c-1.7,3.5-3.3,6.8-4.9,10.1c-5.5,11.5-10,23.4-14.5,35.3c-0.1,0.4-0.4,0.8-0.3,1.1c0.2,0.7,0.5,1.6,1,1.9c0.5,0.3,1.6,0,2-0.4
						c0.7-0.6,1.2-1.5,1.5-2.4c0.8-1.9,1.3-4,2.2-5.9c4.3-8.8,8.5-17.5,12.9-26.2c6.3-12.3,12.6-24.6,19.1-36.7
						c3.2-6,7-11.8,10.6-17.6c2.4-4,4.8-8,7.2-11.9c4.5-7.1,9.1-14.1,13.7-21.2c3.1-4.8,6.2-9.6,9.3-14.3c0.8-1.2,1.7-2.3,2.8-3.3
						c3.1-3,6.2-6.1,9.6-8.9c3.4-2.8,7-5.5,10.7-7.8c6.7-4.2,14.1-6.6,21.7-8.7c7.8-2.2,15.5-4.7,22.5-9c3.6-2.2,6.8-4.7,9.2-8.2
						c2.5-3.7,2-6.9-1.6-9.6c-1.1-0.8-2.4-1.5-3.8-2.4c2-0.8,3.7-1.7,5.5-2.3c4.4-1.6,7-4.9,9.4-8.7c0.5-0.9,0.8-2,1.1-3
						c1.1-5.4-1.2-10.2-6.1-12.7c-0.4-0.2-0.8-0.6-1.5-1c1.1-0.4,1.8-0.8,2.5-1c2.9-0.8,4.8-2.7,6.5-5c5.5-7.4,1.2-15.4-4.6-18.4
						c-6-3.2-12.5-5-19.2-6.3c-3.1-0.6-6.2-1.1-9.3-1.7c0-0.4,0-0.6,0.1-0.8c3.3-5.3,4.9-11.3,5.9-17.4c-0.3-0.9-0.3-1.8,0.2-2.8
						c1-2.3,1.6-4.7,2.2-7.1c-0.1,0-0.2,0.1-0.3,0.1c0.1-1.2,0.1-2.5,0.3-3.7c1.5-10.2,1.3-20.4-1.4-30.4c-1.5-5.7-4.2-10.5-9-14.1
						c-1.1-0.8-2.1-1.8-3.1-2.6c-2.2-1.8-4-3.9-7-4.7c-2.2-0.6-4.2-2.3-6.1-3.8c-4.3-3.5-9.3-5.4-14.7-6.5
						c-3.4-0.7-6.8-1.2-10.3-1.7c-4.9-0.8-9.8-0.2-14.7,0.5c-5.6,0.7-11.3,1.3-16.9,2.2c-6.1,1-12,2.8-17.2,6.3
						c-0.5,0.3-1,0.5-1.9,1c0-0.3,0-0.5,0-0.8 M181.2,299.3c-2.7-4-5.7-7.9-7.7-12.2c-1.7-3.5-2.2-7.6-3.1-11.4
						c-1.7-7.5-0.6-15,0.8-22.4c2.1-10.7,7-19.8,15.3-26.9c0.4-0.4,0.9-0.8,1.3-1.2c5.7-6.4,13.1-9.6,21.1-12
						c7.4-2.3,15-2.6,22.6-2.3c5.8,0.2,11.6,0.5,17.3,1.3c9.2,1.2,17.2,4.9,23.2,12.4c1.9,2.4,3.9,4.8,5.8,7.2
						c4,4.9,6.4,10.5,7.5,16.7c1.5,8,2,16.1,1.5,24.2c-0.1,1.9-0.5,3.8-1.2,5.6c-2.7,7.4-5.9,14.7-9.8,21.6
						c-0.1,0.3-0.3,0.5-0.5,0.7c-2.6,2.7-4.6,6-8.5,7.5c-3.1,1.2-6.2,2.7-9.3,4.1c-4.2-9.6-5-19.7-7.4-29.4c2.2-1.4,4.2-2.6,6-3.9
						c5.5-3.9,8.8-9.1,9.7-15.8c0.5-3.5-1.1-6.6-4.3-8.1c-5.1-2.5-10.1-2.3-14.9,0.8c-2.6,1.7-4,4.2-4.5,7.1
						c-1.1,5.4-0.7,10.8,0.2,16.1c0.1,0.7,0.2,1.5,0.3,2.4c-2.8,1.5-5.7,1.7-8.9,2.1c-0.5-1.2-1-2.4-1.4-3.5
						c-2.4-6.3-5.9-11.9-10.9-16.5c-2.3-2.1-4.8-3.5-7.8-4.1c-6.1-1.1-9.4,1.5-11.2,6.6c-1.5,4.2-1.5,8.6-0.2,12.8
						c1.3,4.2,4,7.2,8.3,8.7c6.3,2.2,12.7,3.5,19.3,1.8c0.5-0.1,1-0.1,1.8-0.2c3.6,9.6,5.5,19.7,9.3,29.7c-2,0.4-3.7,0.7-5.3,0.9
						c-0.4,0.1-1-0.1-1.3-0.4c-2.8-1.7-2.7-1.8-5,0.4c-0.2,0.2-0.4,0.3-0.8,0.6c-1.8-3-4.9-3.4-7.8-4.5c-3.9-1.3-8-1.5-11.8-2.6
						c-5.1-1.5-9.9-3.7-14.9-5.6c-1.4-0.6-2.8-1.3-4.2-1.9C186.3,304.2,183.2,302.3,181.2,299.3z M280.4,340.9
						c-2.7-1.5-5.2-2.9-8-4.5c0.7-0.8,1-1.4,1.5-1.7c1.9-1.1,3.9-2.2,5.9-3c2.3-0.9,3-0.6,4,1.8c0.6,1.3,1.1,2.7,1.8,4.5
						C283.8,338.9,282.1,339.9,280.4,340.9z M281,350l-0.4,0c-0.1-0.6-0.1-1.2-0.2-1.8c0.1,0,0.2,0,0.4,0
						C280.9,348.9,280.9,349.4,281,350z M275.5,330c-2.4,1.3-4.6,3.3-7.5,3.4c-0.5,0-1,0.2-1.4,0c-3.7-1.2-7.5-2.4-11.4-3.7
						c3.2-2.5,6.3-4.8,9.3-7.1c0.7-0.5,1.4-1.1,1.8-1.9c0.3-0.6,0.5-1.6,0.1-2.1c-0.3-0.5-1.3-0.5-2-0.6c-0.3,0-0.7,0.3-1,0.5
						c-7.6,4.8-16.1,6.8-24.7,8.5c-1.1,0.2-2.3,0.1-3.6,0.2c-0.4-0.8-0.8-1.5-1.4-2.6c3.8-1.3,7.3-2.6,10.8-3.7
						c7.1-2.2,14.2-4.1,21.3-6.5c2.8-0.9,5.3-2.7,8.1-4.2c2.8,5.3,4.7,11.3,6.6,16.9C278.7,328.1,277.1,329.1,275.5,330z
						 M250.4,314.7c-0.4,0.2-1.1,0.6-1.8,0.9c-1.3,0.5-2.7,1-4,1.5c-3.1-10-6-19.5-9.1-29.3c2.6-0.9,5.1-1.8,7.8-2.8
						C245.7,295,248,304.7,250.4,314.7z M245.7,262.1c0.2-0.5,0.5-1,0.7-1.5l0.3,0.1c-0.2,0.5-0.4,1.1-0.7,1.6L245.7,262.1z
						 M248.5,266.8c0.3-2.7,1.3-5.2,3.1-7.4c2-2.5,4.9-3.1,7.8-1.7c1.9,0.9,2.6,1.9,2,3.9c-0.6,2.2-1.5,4.4-2.5,6.4
						c-2.1,4-5.3,7-9.5,9.8C248.5,273.9,248.1,270.4,248.5,266.8z M252.4,306.5l1,3.4c-0.2,0.1-0.3,0.2-0.5,0.3
						C252.3,309,251.6,307.9,252.4,306.5z M229.9,283.4c-5.6,2.5-17,1.5-21.3-3.7c-4.5-5.5-4.6-8.8-2.1-14.3
						c1.3-2.9,3.1-3.5,6.2-2.6c4.1,1.2,7.5,3.4,10.1,6.9C225.8,273.9,228,278.4,229.9,283.4z M188.5,309.2c4.4,1.8,9.1,3.1,13,5.9
						C196.6,314.2,192.3,312.3,188.5,309.2z M300.1,373.2c-2.5,2.7-5.5,4.8-8.8,6.5c-9,4.5-18.4,7.4-28.2,9.5
						c-8.8,1.9-17.2,4.8-23.9,11c-3.2,3-5.9,6.6-8.8,10c-2.3,2.7-4.5,5.5-7,8.1c-3.5,3.5-6.5,7.3-8.8,11.8
						c-8.1,15.5-17,30.6-26.9,44.9c-6,8.6-11.4,17.5-16.3,26.7c-0.3,0.5-0.6,1-1,1.7c-2-1.1-4-2-5.9-3.2c-6.2-3.9-12.8-6.7-19.7-8.9
						c-4.2-1.4-8.3-3.2-12-5.6c-1.5-0.9-2.9-1.9-4.5-2.6c-9.9-4.7-18.8-10.9-27.7-17.3c-3.9-2.8-8.1-5.2-12.3-7.7
						c-4.5-2.7-9-5.3-12.9-8.8c-2-1.8-4.3-3.2-6.7-4.9c0.6-0.9,1.2-1.8,1.8-2.7c7.7-10.4,15.3-20.8,23.3-31c4-5.1,8.4-9.8,12.9-14.5
						c7-7.3,14.3-14.3,21.5-21.5c6.8-6.8,14-13.3,21.9-18.9c8.5-6,16.8-12.5,25.6-18c9.9-6.2,20.3-11.6,30.4-17.3
						c0.9-0.5,2-0.7,3-0.6c3.2,0.2,6.3,0.7,9.5,1c1.2,0.1,2.2,0.5,2.9,1.6c1.2,2.1,2.4,4.2,3.6,6.4c-0.8,0.4-1.4,0.7-2,1
						c-6.7,2.7-12.8,6.3-18.3,11c-1,0.8-1.5,1.7-1.2,3c0.4,1.4,1.4,1.8,2.6,1c0.2-0.1,0.5-0.4,0.7-0.6c4.1-3.9,9-6.7,14.1-9
						c2.1-1,4.5-1.7,6.9-2c9.2-1.2,18.3-0.7,27.3,1.5c4.8,1.2,9.4,2.8,13.5,5.8c1,0.7,2.2,1.3,3.2,1.9c3.3,2,5.3,4.9,5.6,8.9
						c0.3,4.1-2.2,7.9-6.2,8.9c-3,0.8-6,1.1-9.2,0.7c-3.6-0.4-7.3-0.3-11-0.2c-2.7,0.1-4.9,1.7-6.8,3.6c-2.1,2.1-4,4.4-6.1,6.6
						c-0.8,0.9-1.8,1.7-2.7,2.6c-0.4,0.4-0.7,0.9-1,1.4c-0.5,1-1.3,2-0.1,3.1c0.9,0.8,2.4,0.8,3.7-0.3c2.7-2.3,5.3-4.8,8-7.1
						c1.9-1.7,3.8-3.3,5.6-5c1.2-1.1,2.7-1.6,4.3-1.5c2.4,0.1,4.8,0.1,7.2,0.4c3.8,0.4,7.5,0,11-1.7c0.9-0.5,1.7-0.4,2.7-0.2
						c4.2,0.5,8.5,0.4,12.7,0.9c2.9,0.3,5.9,0.9,8.7,1.9C302.1,366.9,302.7,370.4,300.1,373.2z M309.7,340.3
						c1.7,1.6,2.2,3.4,1.6,5.7c-1.4,5.3-4.5,9.1-9.9,10.2c-6,1.3-12.2,1.9-18.2,2.8c-0.7,0.1-1.5,0-2.6,0c2.2-4.3,5.2-8,3.1-12.9
						c0.8-0.5,1.4-0.9,2.1-1.2c0.7-0.4,1.4-0.7,2-1.1c4.1-2.4,4.6-3.7,3.6-8.5C298.1,335.2,304.5,335.3,309.7,340.3z M303.2,330.3
						c-4.7,0.5-9.4,0.5-13.9,0c-2.7-5.9-5.4-11.6-8-17.3c-0.4-1-0.8-2-1.4-2.9c-1.1-1.7-0.8-3,1-4.5c4,0.9,8.3,1.5,12.4,2.8
						c5.8,1.9,11.4,4.2,16.9,6.6c1.5,0.6,2.9,1.9,3.9,3.2c1.7,2.1,1.3,4.5-0.4,6.5C310.9,328,307.4,329.8,303.2,330.3z"/>
					<path d="M124.7,648.8c-1.9,0.4-3.8,0.7-5.6,1.2c-6.1,1.7-12,1.2-17.7-1.6c-1.7-0.8-2.8-2-3.4-3.7c-1.3-3.7-1.7-7.6-0.8-11.4
						c0.9-3.9,3.4-6.6,7.2-8c2.6-0.9,5.2-1.3,7.9-1.4c5.2-0.2,10.4-0.8,15.8-1.2c0.3-1.2,0.5-2.4,0.8-3.6c2-9.4,6.4-17.5,12.6-24.7
						c3.7-4.3,7.9-7.9,12.7-10.9c2.1-1.3,4.6-2,6.9-2.8c6.6-2,13.1-3.8,20-4.5c5-0.4,9.8,0.6,14.7,1.1c5.4,0.5,10.5,2.3,15.7,4
						c1.8,0.6,3.4,1.8,5,2.9c3.5,2.5,7.1,5.1,10.3,7.9c2.2,2,4.2,4.3,5.7,6.8c2.3,3.8,4.3,7.8,6.1,11.8c2.5,5.3,2.8,11,2.8,16.7
						c0,3.9,0,7.7,0,11.8c0.6,0.1,1.3,0.4,2.1,0.5c6.5,0.9,13,1.8,19.5,2.5c3.9,0.4,7.9,0.6,11.8,0.8c1.5,0.1,2.7,1.4,2.6,3.1
						c-0.3,5.9-0.5,11.8-1,17.6c-0.7,9.6-1.7,19.2-3.4,28.7c-1.9,10.8-4.1,21.6-6.9,32.3c-0.9,3.4-1.3,7-1.8,10.5
						c-0.5,3.2-0.8,3.5-4.1,3.4c-0.8,0-1.5,0-2.3,0c-9.5,0.3-18.9-0.3-28.3-1.2c-7-0.6-14-1.4-21-2.1c-2.2-0.2-4.4-0.3-6.6-0.4
						c-6.6-0.3-13.1-0.6-19.7-0.8c-3.9-0.1-7.7,0.2-11.6,0.2c-1.9,0-3.9,0.1-5.8,0c-2.8-0.2-3.3-1.2-2.2-3.8
						c0.3-0.8,0.7-1.6,1.2-2.3c3-4.5,4.7-9.5,5.8-14.7c0.8-3.5,1.9-6.9,2.8-10.3c0.3-1.1,0.6-2.2,0.9-3.3c-0.3-0.2-0.5-0.5-0.8-0.5
						c-10.1-2.4-19.2-6.9-27.7-12.7c-7.3-4.9-12.2-11.8-15-20C127.9,660.9,126.5,655,124.7,648.8z M176.7,699.5
						c-0.6,3.3-0.8,6.3-1.6,9.2c-0.9,3.2-2.3,6.3-3.4,9.5c-1.3,3.7-2.4,7.4-3.7,11.3c1.2,0.1,1.9,0.2,2.7,0.2c5,0,10,0.1,15.1,0
						c14.2-0.4,28.4,1.1,42.5,2.2c10.8,0.8,21.5,1.4,32.5,2.1c0.5-1.8,0.9-3.4,1.2-5c1.7-9.8,3.5-19.6,5.1-29.4
						c1.1-6.8,1.9-13.6,2.7-20.4c0.8-6.3,1.4-12.6,2-19c0.4-4.6,0.6-9.2,0.9-13.8c-10.5-1.4-20.8-2.9-31.3-4.3
						c-0.4,3.4-2.2,6.2-1.5,9.6c0.1,0.6-0.3,1.3-0.5,1.9c-1.1,3.5-2.4,6.9-3.3,10.5c-1.6,6.2-4,11.9-8.4,16.6
						c-0.5,0.6-1,1.2-1.3,1.9c-1.8,3.6-4.7,6.1-8,8.1c-3.6,2.1-7.3,3.9-11.4,4.9c-2,0.5-4,0.9-5.8,1.7c-5.6,2.3-11.3,3-17.3,2.4
						c-1.5-0.2-3.1-0.2-4.6-0.3C178.3,699.5,177.4,699.5,176.7,699.5z M132.2,632.9c0.1,2.6,0.2,5.2,0.5,7.8c0.1,1.4,0.7,2.8,1,4.1
						c0.2,1.1,0.3,2.3,0.5,3.4c2,8.1,6.3,14.8,12.7,20.2c3.2,2.7,6.4,5.2,10.2,6.9c7.3,3.3,14.8,5.5,22.6,6.9
						c4.9,0.9,9.8,1.1,14.7,0.4c7.2-1.1,13.9-3.8,19.9-8.1c2.3-1.7,4.7-3.4,7.2-4.9c5.7-3.5,8.8-8.7,10.7-14.9
						c0.5-1.6,0.8-3.2,1.4-4.7c2.7-6.8,3.4-13.8,3.3-21c-0.1-7.1-2-13.7-5.2-20c-2.1-4-4.4-8-6.7-11.8c-1.2-2-2.4-4-4.1-5.5
						c-5.3-4.9-11.3-8.7-18.5-10.4c-5.5-1.3-11.1-2.7-16.8-2.5c-8.8,0.2-17.4,2.2-25.8,4.9c-0.7,0.2-1.4,0.6-2,1.1
						c-2.6,1.8-5.3,3.6-7.8,5.5c-1.7,1.3-3.5,2.5-4.7,4.2c-4.2,6.1-7.9,12.6-10.1,19.8C133.4,620.4,132.8,626.6,132.2,632.9z
						 M226,673.4c-0.1-0.1-0.3-0.2-0.4-0.3c-0.6,0.4-1.2,0.9-1.8,1.3c-3.2,2-6.5,3.9-9.5,6.1c-4.7,3.4-9.6,6-15.4,6.6
						c-1,0.1-2.3,0.2-3,0.8c-1.8,1.5-3.8,1.6-6,1.7c-2,0.1-4,0.2-6.1,0.4c-6.3,0.5-12.3-0.2-18.1-2.7c-3.8-1.7-7.5-3.4-11.4-4.9
						c-1.9-0.8-3.7-1.6-5.1-3.2c-3.6-4-7.1-8.1-10.7-12.2c-0.7-0.8-1.3-1.6-2.3-3c0.1,1,0,1.4,0.1,1.7c1.8,5.6,4.8,10.5,8.5,15
						c0.9,1.1,2.2,1.9,3.4,2.6c5.7,3.2,11.4,6.4,17.2,9.6c2.6,1.4,5.3,2.3,8.2,2.5c8.5,0.7,17,0.7,25.2-2.1
						c9.5-3.3,18.3-7.8,24.4-16.2C224.2,675.7,225.1,674.5,226,673.4z M127.6,626.7c-2,0.2-3.5,0.2-5,0.4c-2.8,0.4-5.5,0.8-8.3,1.4
						c-2.8,0.6-5.5,1.5-8.3,2.2c-1.4,0.4-2.1,1.3-2.1,2.7c0.1,3.1,0.2,6.2,0.5,9.2c0.1,0.7,0.8,1.5,1.5,1.9c2.4,1.5,5,1.8,7.8,1.1
						c3.4-0.8,6.8-1.2,10.2-1.8c1-0.2,2-0.3,3-0.4C127.1,638,127.4,632.6,127.6,626.7z"/>
					<path class="st2" d="M760.6,121.5c6.9,3.4,13.2,7.1,19,11.6c2.4,1.8,4.2,4.3,6.5,6.2c6.6,5.4,13.5,10.7,20.1,16.1
						c3.1,2.6,6,5.5,8.9,8.3c1,1,1.9,2.2,3,3.2c9.9,9.5,19.3,19.4,28.2,29.9c1.8,2.1,3.8,4.1,5.9,6.4c-1.2,1.4-2.3,2.8-3.4,4.2
						c-2,2.4-4.1,4.6-5.8,7.2c-2.1,3.2-4.5,6.1-7.2,8.6c-8.6,7.9-16.3,16.7-24.2,25.3c-8.6,9.4-17.3,18.7-25.9,28.1
						c-5.3,5.8-10.5,11.6-15.7,17.4c-5.7,6.3-12,12-18.7,17.3c-10.5,8.4-21,16.7-31.5,25c-6.3,5-13.7,8.3-20.6,12.4
						c-3,1.8-6.1,3.4-9.1,5.1c-5.7,3.1-11.9,4.5-18.2,5.3c-2.2,0.3-4.2-0.3-6.2-1.2c-0.2-1.8,0.5-3.3,1.3-4.7c2-3.7,4.4-7,7.5-9.9
						c3-2.8,6-5.7,9-8.6c1.8-1.8,2.1-2.9,1.2-3.7c-1.5-1.2-2.5,0.1-3.6,0.8c-6.8,4.3-13.6,8.8-20.5,13.1c-2.4,1.5-4.8,3-7.4,3.9
						c-5.4,1.9-11,3.8-16.6,5.1c-2.9,0.7-6.1,0.6-9.2,0.5c-4.1-0.2-6-2.9-5.1-7c1.2-5,3.9-9.1,8.1-11.9c4.2-2.8,8.6-5.2,12.8-8
						c4.3-2.9,8.5-6,12.7-9.1c0.7-0.5,1.3-1.2,1.7-1.9c0.2-0.4,0.3-1.3,0-1.6c-0.4-0.4-1.2-0.8-1.7-0.7c-0.9,0.2-1.9,0.6-2.6,1.2
						c-8.3,6.8-18.3,10.7-27.8,15.3c-4.6,2.2-9.2,4.6-14.3,5.3c-3.5,0.5-7.1,0.5-10.7,0.3c-2.7-0.1-4-2-3.8-4.8
						c0.3-4.5,1.9-8.4,5.5-11.4c7.2-6.1,14.2-12.5,22.3-17.5c0.3-0.2,0.7-0.4,1-0.7c7.6-6,15.2-11.9,22.7-18c1.5-1.2,2.8-2.7,4-4.2
						c0.4-0.6,0.6-1.7,0.3-2.3c-0.2-0.4-1.3-0.7-2-0.7c-2.6,0.3-5.2,0.6-7.7,1.2c-6.7,1.4-13.4,1.3-20.2,0.5
						c-2.2-0.3-4.4-0.4-6.6-0.6c-1.4-0.1-2.9-0.2-4.3-0.5c-2.8-0.6-5.1-2.1-6-4.9c-0.8-2.7,0.4-5.1,2.4-7c2.6-2.4,5.7-3.9,9.2-4.7
						c3.7-0.8,7.4-1.5,11-2.3c8.7-2,17.1-4.8,25-9c1.2-0.6,2.4-1.2,3.6-1.8c9.6-4.6,18.1-10.7,25-18.9c2.7-3.2,5.4-6.5,8.1-9.8
						c1.8-2.2,3.6-4.6,5.5-6.7c7-7.7,13.4-15.9,19.2-24.6c1.4-2.2,3-4.3,4.6-6.3c4.2-5.4,8.3-10.9,11.6-16.9
						c1.6-2.8,3.5-5.3,5.3-7.9c4.8-6.8,9.7-13.4,14.5-20.2c2.1-2.9,3.8-6,5.8-9C757.7,125.3,759.1,123.5,760.6,121.5z"/>
					<path class="st2" d="M456.1,759.7c-3.3-1.5-6.5-2.9-9.7-4.5c-14-7.1-28.1-14.1-42.1-21.4c-13.4-7-26.8-14.2-38.2-24.4
						c-7.3-6.5-14.4-13.1-21.7-19.6c-0.7-0.6-1.6-1.1-2.5-1.8c1.1-1.2,1.7-1.9,2.3-2.6c9.5-9.9,20.2-18.5,30.9-27.1
						c12-9.7,25-17.8,37.9-26.1c6.6-4.3,14-7,21.2-10c5.7-2.3,11.5-4.5,17.2-7c12.2-5.3,25.1-8.3,38-11c3.9-0.8,7.7-1.7,11.6-2.3
						c10.3-1.6,20.7-1.9,31.1-0.8c3.1,0.3,6.1,1,9.1,1.6c1.1,0.2,2,0.7,2.5,1.8c0.3,0.6,0.8,1.1,1.2,1.6c1.6,2.1,1.6,3.5-0.2,5.3
						c-1.1,1.1-2.3,2.1-3.6,2.9c-4.6,2.8-9.2,5.5-14.8,6c-4.8,0.4-9.4,2.3-13.7,4.6c-1.3,0.7-2.5,1.5-3.6,2.4
						c-0.4,0.4-0.8,1.2-0.6,1.7c0.1,0.5,1,1.2,1.4,1.1c2.5-0.4,5.1,0.4,7.7-0.6c10.2-3.9,20.7-5.3,31.6-4.4c2.7,0.2,5.4,0.7,8,1.2
						c0.6,0.1,1.3,0.5,1.7,1c2.4,3.1,1.5,7.6-1.9,9.5c-0.8,0.5-1.8,0.7-2.7,1c-8.4,2.5-16.8,5-25.3,7.5c-1.8,0.5-3.7,0.7-5.3,2.1
						c-0.8,0.7-1.8,1.2-1.4,2.5c0.4,1.2,1.4,1.9,2.6,2c1.3,0,2.7-0.1,4-0.4c4-0.9,7.9-1.8,11.8-2.9c5.6-1.6,11.4-1.9,17.2-2.4
						c3.2-0.3,6.3,0.9,9.1,2.5c2.3,1.3,3.5,5.5,2.5,8.3c-1.5,3.8-4.1,6.8-7.5,9c-4.8,3.2-9.8,6.2-14.8,9.1
						c-6.3,3.5-12.7,6.9-19.2,10.2c-5.8,3-11.8,5.7-17.7,8.7c-1.8,0.9-3.7,1.7-4.5,3.8c-0.2,0.7-0.5,1.6-0.2,2.1
						c0.3,0.5,1.5,0.8,2,0.6c3.2-1.3,5.8,0,8.6,1.3c4,1.8,8.1,3.5,12.2,5.3c3.6,1.6,6.1,4.4,8.2,7.5c1.5,2.2,1,4.1-1.3,5.7
						c-2.8,2-5.9,3.2-9.4,3.5c-6.3,0.6-12.7,1.3-19.1,1.2c-6.4-0.1-12.7,0.2-19,1.6c-5.4,1.2-9.4,4.1-12.7,8.5
						c-5.7,7.6-11.4,15.1-17.2,22.6C457.4,758.1,456.8,758.8,456.1,759.7z"/>
					<path class="st3" d="M275.6,515.1c-3.3-25.1-9.3-49.6-12.6-74.7c1.6-1.3,3.4-1.6,5.2-2c8.3-2,16.6-3.6,24.8-5.9
						c19.6-5.3,39.7-8.3,59.5-12.2c16.1-3.1,32.1-6.8,48.1-10.4c18.3-4,36.6-8,54.8-12.2c7.6-1.7,15.1-4,22.7-5.9
						c6.3-1.5,12.6-2.8,18.9-4.1c6.3-1.4,12.7-2.6,19-4.1c5.1-1.2,10.2-1.7,15.5-1.2c7.2,0.7,14.4,1.2,21.6,1.8
						c0.8,0.1,1.6,0.6,2.2,1.1c1,1,1.9,2.2,2.7,3.4c6.4,10.8,12.9,21.5,18.1,33c2,4.4,4.5,8.5,6.9,12.7c1.2,2.2,3,3.8,5.4,4.6
						c0.7,0.2,1.4,0.7,2.1,1c3.5,1.8,6.7,0.7,8.1-3.1c1.2-3.4,2.1-6.8,2.9-10.3c2.7-12.1,5.4-24.3,7.8-36.5c1-5.3,2.6-10.4,4.8-15.9
						c0.4,0.9,0.7,1.5,0.8,2.1c0.7,5.2,1.4,10.3,2.1,15.5c1.5,10.5,3,21,4.5,31.5c0.9,6.3,1.9,12.5,2.9,19c-3.4,0.5-6.7,1.1-10,1.5
						c-13.6,1.7-26.9,4.9-40.1,8.6c-5.6,1.6-11.4,2.2-17,3.3c-13.2,2.6-26.3,5.4-39.4,8c-11.3,2.2-22.6,4.2-33.8,6.5
						c-14.5,3-28.9,6.1-43.3,9.2c-13.9,3-27.7,6.2-41.5,9.2c-11.5,2.5-23,5-34.5,7.6c-7.8,1.7-15.6,3.5-23.4,5.2
						c-17.5,3.9-35.1,7.7-52.6,11.6C284.4,514.3,280.2,515,275.6,515.1z M362.9,478.6c1.4-0.2,2.9-0.3,4.3-0.6
						c4.6-1,9.2-2.1,13.8-3.3c8.7-2.1,17.4-4.3,26.1-6.5c4.4-1.1,8.8-2.3,13.1-3.5c2.1-0.6,4.3-1.1,6.4-1.7c5-1.3,10.1-2.7,15.1-4
						c3.6-1,7.2-2.2,10.9-3c6-1.3,12.1-2.3,18.2-3.3c13.3-2.3,26.6-4.7,39.9-7c8.2-1.4,16.3-3,24.2-5.7c5.8-1.9,11.4-4.2,16.5-7.6
						c3.6-2.5,5-7,3-10c-1.5-2.3-3.5-4-6.3-4.8c-3.6-1-7.2-1.3-10.9-0.6c-11.9,2.3-23.8,4.6-35.5,8.3c-7.2,2.3-14.8,3.7-22.3,5.1
						c-11.1,2.1-22.3,3.4-33.4,5.7c-12.8,2.7-25.5,6.1-38.2,9.2c-10.2,2.4-20.5,4.7-30.7,7.1c-5.6,1.3-11.3,2.6-16.5,5.2
						c-2.9,1.5-5.8,3.1-7.8,5.8c-1.9,2.5-2.2,5.3-1.2,8.2C353.1,475.8,356.6,478.4,362.9,478.6z M451.4,415.6c0.4,2,0.8,3.8,1.2,5.7
						c0.3,1.2,0.6,2.5,1.2,3.5c0.3,0.5,1.4,0.9,1.9,0.7c0.5-0.2,0.8-1.1,0.9-1.8c0.1-0.4-0.3-0.9-0.4-1.4c-0.5-2.7-1.1-5.4-1.6-8.2
						c2.2-0.8,4.1-1.4,6.1-2.1c0.3,1,0.5,1.8,0.7,2.6c0.5,1.9,0.9,3.8,1.5,5.6c0.2,0.8,0.7,1.7,1.3,2.1c0.6,0.4,1.7,0.5,2.3,0.2
						c0.9-0.5,0.7-1.4,0.2-2.3c-0.6-1.1-1.1-2.2-1.4-3.4c-0.5-1.7-0.7-3.4-1.3-5c-0.3-0.8-1.2-1.9-1.8-1.9c-2.2-0.2-4.4-1-6.6,0.4
						c-0.4,0.2-0.9,0.2-1.5,0.3c-0.2-0.7-0.4-1.4-0.6-2c-0.4-1.6-0.9-3.2-1.3-4.7c-0.3-1-0.9-1.5-2-1.2c-1,0.3-1.4,1-1.2,2
						c0.1,0.7,0.4,1.3,0.6,1.9c0.4,1.7,0.9,3.5,1.3,5.3c-1.3,0.7-2.3,1.2-3.2,1.7c-0.9-0.6-1.6-1.4-2.4-1.7
						c-1.2-0.3-2.4-0.2-3.6-0.2c-0.6,0-1.3,0.3-1.8,0.7c-2.2,1.6-3.4,6.8-2.4,9.3c1.1,2.7,3.8,3.4,6.1,1.5c0.6-0.5,1.1-1,1.8-1.7
						c0.3,1.1,0.5,2,0.9,2.9c0.4,1,1.2,1.9,2.4,1.4c1.1-0.5,1-1.4,0.7-2.4c-0.6-2.2-1.1-4.4-1.6-6.7
						C449.2,416.4,450.2,416,451.4,415.6z M536.5,396c-3.8-2.5-5.7-1.8-7.3,2.5c-0.3,0.7-0.5,1.4-0.8,2.3c-1.7-4.6-3.5-5.9-7.5-5.4
						c-2.2,0.2-4.1,2.6-4.5,5.7c-0.4,3.2,0.7,5.5,3.1,6.5c3.1,1.3,5.8,0,9-4.1c0.1,0.8,0.1,1.4,0.2,2.1c0.1,0.7,0.3,1.3,0.5,2
						c0.4,1,1.1,1.7,2.2,1.3c1.3-0.4,1.4-1.3,0.9-2.5c-1.1-2.9-0.6-5.6,1.1-8.6c0.8,1.4,1.3,2.4,2,3.3c1.1,1.6,2.4,1.5,3.2-0.3
						c0.3-0.6,0.6-1.3,1.1-2.6c0.7,2,1.1,3.5,1.6,4.9c0.5,1.4,1.5,2.6,3.1,2.6c0.7,0,1.6-0.6,2-1.3c0.5-0.8,0.1-1.8-0.9-2.1
						c-1.3-0.3-1.6-1.2-1.9-2.3c-0.3-1.1-0.6-2.2-1-3.3c-1.3-3.4-2.9-3.7-5.4-1.2C537,395.7,536.7,395.8,536.5,396z M509.1,403.9
						c0.2,0.7,0.4,1.1,0.5,1.6c0.2,1.4,0.3,2.9,0.7,4.3c0.2,0.6,1,1.3,1.6,1.3c1,0.1,1.5-0.7,1.6-1.7c0-0.6-0.2-1.1-0.3-1.7
						c-0.2-1.7-1-3.3,0.5-4.9c0.3-0.3-0.1-1.6-0.5-2c-1.2-0.9-1.4-2-1.5-3.3c-0.1-1.1-0.3-2.1-0.4-3.1c-0.1-1-0.5-1.7-1.6-1.7
						c-1.2,0-1.6,0.9-1.6,2c0,0.7,0.1,1.3,0.2,2c0.2,1.3,0.3,2.6,0.5,4c-2.1,0.7-4,1.4-6,2c-0.2-1.2-0.3-1.9-0.4-2.7
						c-0.1-1.1-0.3-2.1-0.4-3.2c-0.2-1.1-0.7-1.9-1.9-1.7c-1.2,0.2-1.3,1.2-1.3,2.2c0,0.3,0.1,0.6,0.1,0.9c0,2.3,1,4.5,0.1,6.9
						c-0.1,0.3,0.2,0.9,0.4,1.3c0.3,0.9,0.6,1.8,0.8,2.7c0.2,0.9,0.3,1.9,0.7,2.8c0.2,0.5,1,1,1.5,1c0.5,0,1.2-0.7,1.4-1.2
						c0.2-0.7,0-1.5-0.1-2.2c-0.2-1.1-0.4-2.2-0.6-3.5C505.2,405.2,507.1,404.6,509.1,403.9z M339.5,439.9c-2.1-2.3-3.8-4.2-5.5-6
						c-1.4-1.5-2.2-1.8-3.1-1.1c-0.8,0.7-0.7,1.7,0.7,3.2c1.6,1.8,3.2,3.6,4.9,5.3c1.4,1.5,2,3.1,1.3,5.2c-0.9,2.5-1.5,5.2-2.2,7.8
						c-0.3,1.2-0.8,2.4-0.9,3.6c-0.1,0.6,0.3,1.5,0.8,1.9c0.8,0.5,1.7,0.1,2.1-0.8c0.2-0.3,0.3-0.7,0.4-1.1c2.2-8.7,4.5-17.3,6.7-26
						c0.5-2.1,0.1-3.2-1.2-3.3c-1.8-0.1-1.8,1.5-2,2.6C340.8,434,340.2,436.6,339.5,439.9z M399.6,424.9c0.1,0.5,0.1,1.4,0.3,2.3
						c1,3.9,5.5,6.8,8.8,5.4c2.2-0.9,3.8-2.5,5.1-4.5c0.6-0.9,0.6-1.8-0.4-2.5c-0.9-0.6-1.6-0.1-2.2,0.6c-0.8,0.9-1.6,1.9-2.5,2.7
						c-1.2,1.1-2.6,1.1-3.6,0c-0.9-0.9-1.9-2.1-2.1-3.3c-0.3-2.7,0.4-5.4,2.3-7.5c0.7-0.7,1.7-1.4,2.6-1.6c0.6-0.1,1.4,0.7,2.2,0.9
						c0.6,0.2,1.5,0.3,1.8,0c0.4-0.5,0.8-1.6,0.5-2c-0.6-0.9-1.6-1.8-2.5-2.1c-2.3-0.8-4.4,0.1-6.1,1.6
						C400.9,417.6,399.9,420.9,399.6,424.9z M367.1,438c-0.5-0.6-1-0.9-1.1-1.3c-0.6-1.8-1.2-3.7-1.6-5.5c-0.3-1.1-0.4-2.1-1.9-2.1
						c-1.1,0-1.7,1.1-1.4,2.7c0.4,1.9,0.8,3.8,1.5,5.6c0.4,1.1,1.3,2.2,2.2,3c1.7,1.5,3.4,1.2,4.8-0.4c0.5-0.6,1-1.2,1.6-2.1
						c0.7,1.7,1.2,3,1.8,4.3c0.6,1.3,1.6,1.8,2.4,1.2c1-0.7,1.2-1.6,0.7-2.8c-1.3-3.2-2.6-6.4-3.9-9.6c-0.5-1.1-0.5-2.6-2.2-2.7
						c-1.1,0-1.5,0.9-1.6,3.2C368.5,433.6,368.5,435.8,367.1,438z M359.9,437.5c0.1-2.1-1.7-4-3.3-5.8c-0.4-0.4-1.2-0.6-1.9-0.6
						c-3-0.3-5.6,1.3-6.6,4.1c-0.5,1.6-0.8,3.4-0.8,5.1c0,2.6,1.4,4.3,3.8,5.2c2.5,0.9,4.8,0.3,6.5-1.7
						C359.1,442.2,359.8,440.3,359.9,437.5z M549.4,400.1c3-1.5,4-2.4,4.8-4.2c0.7-1.7,0.2-3.3-1.2-4.4c-1.4-1-3.1-0.9-4.5,0.4
						c-2,2.1-3,4.7-2.6,7.7c0.4,2.9,2.6,4.8,5.5,5c2.6,0.1,6-2.2,6.4-4.5c0.1-0.5-0.3-1.4-0.7-1.7c-0.4-0.3-1.3-0.1-1.8,0.2
						c-0.6,0.4-1,1.2-1.5,1.7C552.4,401.7,551.6,401.7,549.4,400.1z M430.2,425.2c1.7-1.8,3-3,4-4.5c0.9-1.4,0.4-3.3-0.9-4.5
						c-1.3-1.2-2.9-1.4-4.3-0.5c-2.2,1.4-2.8,4-3.5,6.1c-0.4,1.1,0.6,3,1.5,4.2c2.2,3.2,6.4,3.2,8.9,0.2c0.6-0.8,1.2-1.6,0.4-2.6
						c-0.8-0.9-1.7-0.6-2.5,0.2c-0.3,0.3-0.7,0.8-1.1,0.9C432,425,431.3,425,430.2,425.2z M483,411.8c1.2-1.5,2.5-2.6,3.3-4.1
						c0.8-1.6-0.2-3.7-1.6-4.5c-1.4-0.7-2.8-0.2-4,1.3c-2.1,2.6-2.4,5.5-1,8.2c1.1,2,2.9,2.9,5,2.5c1.9-0.4,4.4-2.8,4.4-4.5
						c0-0.5-0.4-1.4-0.9-1.6c-0.4-0.2-1.3,0-1.8,0.4c-0.6,0.5-0.9,1.3-1.4,1.8C484.4,412.2,483.7,412.7,483,411.8z M378.5,428.6
						c-0.1-0.2-0.3-0.7-0.8-1c-0.5-0.3-1.4-0.7-1.7-0.4c-0.5,0.4-1,1.4-0.9,1.9c1.1,3.1,2.2,6.1,3.5,9.1c0.2,0.5,1.3,0.9,1.9,0.8
						c0.5-0.2,0.9-1.1,1.1-1.7c0.1-0.4-0.1-0.9-0.2-1.4c-0.1-1.2-0.2-2.5-0.1-3.7c0.3-2.3,1.1-2.7,3.5-2.6c0.6,0,1.6-0.4,1.8-0.9
						c0.2-0.5-0.1-1.7-0.5-2c-0.8-0.5-2.1-1-2.9-0.7C381.6,426.6,380.2,427.7,378.5,428.6z M472.2,413.3c-1.2-1.9-2.1-3.5-3.1-5
						c-0.5-0.8-1.2-1.3-2.2-0.8c-1,0.6-1.1,1.5-0.6,2.5c1.2,2.2,2.5,4.4,3.7,6.5c0.7,1.1,1.5,2.1,3,1.8c1.3-0.3,1.7-1.4,2-2.6
						c0.8-2.7,1.6-5.3,2.3-8c0.1-0.6-0.2-1.6-0.7-1.9c-0.5-0.2-1.6,0-1.9,0.5c-0.6,0.8-1,1.8-1.4,2.8
						C473,410.3,472.6,411.6,472.2,413.3z M417.7,420.8c-0.6-0.5-1.1-1.2-1.7-1.5c-0.4-0.2-1.3-0.2-1.6,0c-0.4,0.4-0.8,1.2-0.6,1.7
						c0.9,2.4,1.9,4.8,2.8,7.2c0.4,0.9,1,1.6,2,1.2c0.5-0.2,0.8-1.1,1.1-1.8c0.1-0.3,0-0.8-0.1-1.1c-0.1-2.9,1-4.5,3.7-5.5
						c0.4-0.1,0.9,0,1.1-0.3c0.4-0.4,1-1.1,0.9-1.6c-0.1-0.5-0.7-1.3-1.2-1.4c-0.7-0.2-1.6-0.1-2.2,0.3
						C420.6,418.8,419.2,419.8,417.7,420.8z M463,403.6c0-1.7-0.9-2.7-1.9-2.6c-1,0.1-1.6,0.7-1.6,1.7c0,1.1,1,2.3,1.9,2.1
						C462.2,404.6,462.7,403.9,463,403.6z"/>
					<path class="st2" d="M300.6,524.1c3.4-0.5,6.6-1.1,9.8-1.5c9.3-1.4,18.5-2.6,27.8-4.1c9.1-1.4,18.1-2.7,27.1-4.4
						c14.2-2.8,28.4-5.7,42.5-8.8c16.1-3.5,32.2-7.2,48.4-10.3c19.5-3.8,38.9-8.4,58.3-12.5c6.5-1.4,13.2-2,19.7-3.2
						c11.2-2.1,22.4-4.2,33.5-6.7c7.3-1.7,14.7-3.3,21.6-6.4c0.6-0.3,1.3-0.2,2.3-0.4c3.6,16.5,6.7,33,10,49.4
						c-25.2,20.6-50.3,41.2-75.4,61.7c-1.8-1.1-3.5-2-5.1-3c-11.7-6.8-23.3-13.7-34.9-20.6c-2.8-1.7-5.5-3.7-8.3-5.4
						c-10.7-6.5-21.8-12.5-33.2-17.8c-3.1-1.4-6.6-2.1-10-2.8c-4.4-0.9-8.8-1-13.3-0.7c-4.5,0.4-8.5,2.3-12.4,4.5
						c-0.6,0.3-1.1,0.8-1.7,1.1c-13.2,7.2-24.3,16.9-34.4,28c-6.2,6.9-13,13.2-20,19.3c-8.4,7.3-16.5,14.9-24.6,22.5
						c-3.4,3.2-6.5,6.9-9.7,10.4c-0.8,0.8-1.6,1.7-2.8,3c-0.5-2.8-1-5.1-1.4-7.4c-1.8-11.4-3.3-22.9-5.3-34.3
						c-1.6-9.4-3.6-18.8-5.4-28.1c-1.2-6.3-2.2-12.6-3.2-18.8C300.7,526,300.7,525.4,300.6,524.1z M517.3,510.1
						c0.5,2.9,0.7,5.7,1.5,8.4c1.3,4.7,4.4,7.9,9,9.5c6.4,2.3,17.1-1.2,21-6.9c0.8-1.2,1.1-2.9,2.8-3.4c0.3-0.1,0.6-1,0.5-1.5
						c-0.4-3.5-0.4-7.2-2.1-10.4c-2.7-5.1-6.6-8.8-12.6-9.5c-5.8-0.7-11.1,1.1-15.9,4.2c-1.3,0.8-2.3,2.4-2.8,3.9
						C517.9,506.1,517.7,508.1,517.3,510.1z"/>
					<path class="st2" d="M562.9,605.2c-4.2,0.6-7.9,1.1-11.6,1.6c-0.2-0.5-0.4-0.9-0.4-1.2c0.4-4.1-2.4-5.8-5.5-7.2
						c-1-0.5-2.2-0.7-3.3-1c-10.5-2.5-21.1-3-31.9-1.9c-15.3,1.6-30.3,4.8-45,9.2c-6.9,2.1-13.8,4.5-20.4,7.3
						c-18.7,7.7-37.2,16-54.3,27.1c-1.4,0.9-3.2,1.4-4.9,1.5c-8.6,0.5-17,2.5-25.5,3.9c-8.9,1.4-17.7,2.7-26.6,3.9
						c-2.8,0.4-5.6,0.3-8.4,0.5c-1.3,0.1-2.2-0.3-2.5-1.7c-1.9-9.3-3.8-18.5-5.5-27.2c1.3-1.5,2.1-2.6,3-3.6
						c2.6-2.7,5.2-5.5,7.9-8.1c1.4-1.4,3-2.7,4.5-4.1c7.2-6.3,14.3-12.6,21.5-19c1-0.9,2-1.8,2.9-2.9c6.7-7.7,14.4-14.2,21.8-21.2
						c5.1-4.8,9.8-9.8,14.9-14.6c10.4-9.9,22.9-14.7,37.2-14.9c2.2,0,4.4,0.1,6.7,0.2c5,0.2,9.4,2.4,13.6,4.6
						c8.4,4.5,16.8,9.1,25.1,13.9c9,5.3,17.8,10.9,26.7,16.3c9.8,6,19.7,11.8,29.5,17.8c6.3,3.9,12.4,8.2,18.6,12.3
						c3.5,2.3,7.1,4.6,10.7,6.9C561.8,604.1,562,604.4,562.9,605.2z"/>
					<path class="st2" d="M804.8,646.6c-3.6,2.7-6.6,5.7-10.4,7.7c-8.5,4.6-16.9,9.3-25.5,13.8c-10.6,5.5-21.3,11-33.2,13.4
						c-2.4,0.5-4.8,0.5-7.2,0.9c-2.7,0.5-5.3,1.2-7.9,1.7c-2,0.4-4.1,0.6-6.5,1c-0.7-2.7-1.4-5-1.8-7.3c-1-6.8-3.3-13.3-5.2-19.9
						c-2.2-8-5.2-15.8-6.9-23.9c-1.4-6.7-4.3-12.5-7.7-18.2c-2.6-4.4-5.8-7.9-10.4-10c-3.9-1.8-7.6-3.8-11.4-5.6
						c-4.2-2.1-7.6-5.4-10.8-8.6c-2.5-2.5-4.9-5.2-6.2-8.6c-0.5-1.2-1.1-2.5-1.3-3.8c-0.7-5.4-1.2-10.7-1.7-16.1
						c-0.5-5.7-0.7-11.4-1.1-17c-0.4-5.4,0.5-10.6,2.7-15.5c1.4-3.2,3.5-5.8,6.6-7.4c1.6-0.8,3.1-1,4.7-0.2c2.7,1.5,5.8,2.1,8,4.6
						c1,1.2,1.8,2.4,2.1,4c1,6.9,3.7,13.2,7.5,18.9c2.9,4.3,6.6,7.6,12,8.3c2.7,0.4,3.4,0.4,7-0.9c2.1,2.4,2.4,2.4,4.8,0.1
						c1-0.9,2.1-1.7,3.1-2.5c1.6-1.1,3.2-2.2,4.7-3.3c8.8-6.3,17.5-12.7,26.3-19c0.3-0.2,0.7-0.4,1.3-0.7c0.4,1,0.9,1.9,1.2,2.9
						c2.8,8.6,5.7,17.2,8.5,25.8c2,6.4,5.3,12.2,8.9,17.8c1.9,3,4,5.9,5.7,9.1c6.5,12.4,14.7,23.6,22.9,34.8
						c4.9,6.7,9.9,13.3,14.8,20C803.2,643.8,803.8,645,804.8,646.6z"/>
					<path class="st0" d="M495.5,377.3c1.7-5.1,5.4-8.2,8.7-11.6c1-1,1.9-2.2,2.8-3.3c1.6-1.8,3.1-3.7,4.7-5.5
						c6.1-6.6,12.4-13,17.8-20.2c1.9-2.6,1.9-3.1,0.5-6c-1.4-2.9-2.6-5.8-3.6-8.8c-3.6-10.2-7.1-20.4-10.8-30.6
						c-1.5-4.3-3.5-8.4-5.3-12.5c-0.5-1.3-1-2.7-1.6-4.5c1.3,0.3,2.1,0.4,2.9,0.6c11.5,3.7,22.4,8.8,33.3,14.1
						c3.4,1.6,6.9,3.1,10.2,4.8c2.6,1.4,5.1,3,7.5,4.6c1,0.7,1.7,0.8,2.5-0.1c5.3-6,10.5-12.1,16-17.9c4.5-4.7,9.5-9.1,14.2-13.6
						c2-1.9,3.7-4.2,5.7-6.1c2.1-2.1,4.3-4.1,6.6-6.2c1.4,1.5,1,3.1,1.7,4.5c-1.8,1.3-3.4,2.6-5.1,3.7c-1.5,1.1-2.3,2.6-2.7,4.3
						c-1,4.6,0.5,8.8,2.6,12.7c0.3,0.5,1,0.9,1.6,1c2,0.5,4.1,0.8,6.3,1.3c0.3,3.1,0.7,5.9,1,8.8c0.3,3.6,0.5,7.1,0.8,10.7
						c0.2,1.5-0.3,2.5-1.5,3.5c-3.7,3.1-7.3,6.3-10.9,9.6c-4,3.6-6.9,8-8.2,13.4c-0.8,3.1-0.3,5.9,1.1,8.7c0.9,1.8,2.5,2.9,4.5,3.4
						c3.7,0.9,7.4,0.7,11.2-0.2c3.9-1,7.8-1.8,12.2-2.8c-0.7,1-1.1,1.6-1.6,2.2c-2.3,2.9-3.1,6.2-2.9,9.8c0.3,4.4,3.9,8.5,8.3,9.2
						c1.6,0.2,3.3,0.3,4.9,0.1c3.4-0.5,6.9-1.1,10.3-1.7c4.7-0.9,9.2-2.3,13.3-4.6c3.2-1.8,6.6,0.4,6.8,4c0.1,1.7,0.8,3.3,1.2,5.3
						c-1.4,1.1-3.4,1.2-5.4,1.5c-9.2,1-18.4,1.9-27.6,3c-4.4,0.5-8.8,1.4-13.1,2.3c-3.1,0.7-6,2-7.7,5c-0.4,0.7-0.8,1.3-1,2.1
						c-1.8,8.2-3.9,16.3-5.4,24.6c-1.6,9-3.4,18-5.8,26.9c-0.7,2.7-1.4,5.5-2.1,8.3c-0.2,0.1-0.4,0.1-0.6,0.2c-2-2.8-4-5.6-5.9-8.4
						c-3.1-4.6-6.1-9.4-9.3-14c-4.2-6-8.6-11.9-12.7-18c-1.6-2.3-2.6-4.9-3.8-7.4c-1.2-2.5-2.4-5-3.6-7.6c-0.5-1.1-1.4-1.6-2.5-2.1
						c-3-1.3-6.1-1.4-9.3-1.5c-8.6-0.2-16.9,1.1-25.3,2.7c-7.8,1.5-15.6,0.5-23.4-0.3C497.2,378,496.4,377.6,495.5,377.3z"/>
					<path class="st2" d="M276.6,521.3c4.7-1.4,9-2.7,13.3-4c17.9-5.4,36.4-8,54.6-11.9c18.8-4,37.5-8.3,56.3-12.4
						c21-4.6,42-9.4,63.1-13.8c15.1-3.2,30.3-5.8,45.5-8.8c9.1-1.8,18.1-3.9,27.2-5.7c19.8-3.9,39.6-7.7,59.4-11.6
						c6.4-1.2,12.9-2.4,19.3-3.7c2.8-0.6,5.6-1.3,8.4-2c0.5-0.1,1.1-0.2,1.9-0.3c0.3,1.8,0.7,3.5,1,5.1c2.4,13,4.7,26,7.1,39
						c0.6,3.2,0.9,6.5,1.4,9.7c0.2,1.5-0.1,2.8-1.2,3.6c-8.2,6.2-9.2,15.4-9.9,24.6c-0.3,4.4,0.5,8.7,1.6,12.9
						c0.9,3.5,2.6,6.7,5.5,8.9c0.5,0.4,0.9,0.7,1.3,0.9c-4.7,8.2-9.2,16.2-13.9,24.4c-0.3-0.8-0.7-1.4-0.8-2
						c-2.6-12.6-5.5-25.1-7.8-37.7c-2.2-11.9-3.8-23.8-6-35.7c-1.5-8.2-3.6-16.2-5.3-24.3c-0.8-4-1.5-8-2.2-12c-0.5-2.7-2.7-4-5.1-3
						c-5.9,2.6-12.3,3.3-18.5,4.4c-9.5,1.7-19,3.5-28.3,5.9c-12.6,3.2-25.3,6.3-38.3,7.9c-11.6,1.4-23,4.1-34.4,6.5
						c-19.9,4.3-39.9,8.2-59.8,12.3c-8.6,1.8-17.1,3.9-25.8,5.5c-8.5,1.6-17.1,2.9-25.7,4.3c-8.9,1.5-17.8,3.2-26.8,4.7
						c-5.7,0.9-11.5,1.5-17.2,2.4c-5.8,1-11.6,2.1-17.3,3.4c-3.3,0.8-3.7,1.6-3,5c2,9.8,4.1,19.6,6,29.5c1.1,5.9,1.7,11.8,2.7,17.7
						c3.5,20.4,7,40.7,10.6,61c0.9,5,2.1,10,2.3,15.1c0,0.8,0.3,1.5,0.5,2.2c0.9,2.6,1.2,2.8,4,2.6c11-0.5,21.9-1.6,32.8-3.7
						c8.1-1.6,16.4-2.8,24.5-4.2c1-0.2,2-0.2,3.1,0.2c-0.6,0.5-1.1,1-1.7,1.4c-4.7,3.4-9.4,6.8-14.1,10.1c-0.8,0.5-1.7,0.9-2.6,1.2
						c-11.2,3.7-22.8,5.7-34.5,7c-7.3,0.8-14.6,1.9-21.8,2.8c-0.8,0.1-1.5,0.1-2.4,0.2c-1.6-4-2.7-8.1-3.3-12.3
						c-1.7-12.4-4.7-24.6-7.1-37c-2.3-11.6-4.2-23.4-6.4-35c-1.6-8.7-3.2-17.5-5-26.2c-2.1-10.5-4.2-21-6.3-31.5
						C277.1,524.2,276.9,522.9,276.6,521.3z"/>
					<path class="st2" d="M715.6,690.4c0.3-0.3,0.3-0.4,0.4-0.4c6-1.5,11.9-3.2,17.9-4.6c2.2-0.5,4.6-0.5,6.9-0.6
						c5.2-0.3,10.1-1.5,14.8-3.7c7-3.3,14-6.4,20.9-9.8c2.5-1.2,4.9-2.8,7.2-4.3c5.6-3.8,11.1-7.7,16.8-11.7
						c1.4,1.1,2.7,0.4,3.9-0.8c1-1,2.2-1.8,3.5-3c0.9,1.3,1.7,2.4,2.4,3.5c1.1,1.8,2.2,3.6,3.2,5.5c2.2,4.1,4.7,7.9,7.6,11.6
						c3,3.7,5.4,7.8,8.2,11.6c2.1,2.9,4.3,5.7,6.6,8.4c0.7,0.8,1.8,1.2,2.8,1.9c0.4,0.3,0.9,0.5,1.1,0.9c2.7,5.5,7,9.9,10.7,14.8
						c0.1,0.1,0.1,0.3,0.3,0.7c-0.5,0.4-1,0.9-1.6,1.4c-12.7,11.1-27.6,18.8-42.1,26.9c-9.1,5.1-18.3,10-27.8,14.2
						c-7.3,3.2-15.1,5.3-22.7,7.8c-1.3,0.4-2.7,0.5-4,0.6c-5.7,0.3-11.2,1.2-16.7,2.8c-0.8,0.2-1.7,0.1-2.8,0.2
						c-3.4-11.6-7.6-22.9-9.2-35c1.1-0.5,1.9-0.4,2.4,0.8c0.5,1.2,1.6,1.5,2.6,0.9c2.6-1.6,5.7-1.7,8.4-2.7c2.1-0.8,4.3-1.2,6.3-2
						c3.7-1.6,7.6-2.7,11.6-3.5c7.8-1.5,14.8-4.9,21.9-8.2c5.4-2.5,10.8-5.2,16.2-7.8c8.8-4.1,16.7-9.7,24.6-15.2
						c2-1.4,3.7-3.3,5.6-5.1c0.6-0.5,1-1.2,1.4-1.8c0.7-1.1,0.9-2.2-0.1-3.1c-1-0.8-2-0.4-2.9,0.3c-1.7,1.4-3.6,2.7-5.1,4.3
						c-7.1,7.4-16.1,11.9-25.3,15.9c-8.2,3.5-16.6,6.8-24.9,10.2c-2.4,1-4.8,2-7.1,3.2c-10.1,4.9-20.6,8.2-31.7,9.7
						c-0.6,0.1-1.2,0.1-1.7,0.1c-2.5,0-3.3-0.6-3.7-3.1c-1.4-6.9-2.7-13.8-4-20.7C717.3,697.8,716.4,694.1,715.6,690.4z"/>
					<path class="st2" d="M321.3,401c1.5-0.4,3.5,0,4-2.2c1.6-0.5,3.2-1.1,4.8-1.6c0.1,0.2,0.1,0.3,0.2,0.5
						c-1.1,0.5-2.3,1.1-3.4,1.6c5.3-0.6,10.4-2,15.4-3.6l-0.1,0.1c6.2-1.3,12.5-2.3,18.7-3.8c8.5-2.1,17-4.4,25.5-6.6
						c0.9-0.2,1.8-0.6,2.7-1c-8.1,1.3-16,4.2-24.4,4.5c3.3-0.9,6.6-1.9,9.9-2.7c9.9-2.5,19.8-5.1,29.8-7.4
						c12.1-2.9,24.3-5.6,36.4-8.2c4-0.9,8-1.5,12-1.8c15-1,29.5-4.9,44.2-7c1-0.1,2-0.3,3.7-0.5c-1.1,1.1-1.6,1.7-2.2,2.2
						c-3,2.8-5.5,5.9-7.5,9.5c-0.5,1-0.9,2.1-1.1,3.2c-0.7,4,0.3,5.8,3.9,7.7c0.3,0.2,0.7,0.3,1.5,0.7c-1,0.3-1.6,0.5-2.2,0.6
						c-5.4,1.3-11,2.3-16.3,3.8c-11.7,3.4-23.5,6.1-35.4,8.6c-16.9,3.6-33.7,7.7-50.5,11.4c-20.9,4.6-41.8,9.2-63,12.6
						c-12.7,2-25.1,5.3-37.6,8.3c-9.1,2.2-18.2,4.3-27.4,6.4c-1.6-6.5-1.6-13.2-2.1-20.2c2.3-0.8,4.7-2.4,7-2.3
						c6.5,0.3,12.4-2.3,18.6-3.5c6.1-1.2,12.2-3.1,18.2-4.7c4.5-1.2,8.9-2.4,13.4-3.7C319,401.7,320.2,401.3,321.3,401L321.3,401z
						 M272.2,427.6c2.2,0,4-1.6,4.4-3.8c0.1-0.7-0.1-1.7,0.3-2.2c1.2-1.4,0.6-2.5-0.4-3.5c-1.2-1.3-2.8-1.7-4.2-0.8
						c-2.2,1.2-3.8,3-4.2,5.6C267.7,425.4,269.6,427.5,272.2,427.6z M292.4,419.1c0-2.7-1.6-4.3-4.5-4.4c-2.6-0.1-5,2.6-5,5.3
						c0,2.1,1.7,3.7,3.9,3.8C289.6,423.9,292.4,421.5,292.4,419.1z M300.6,419.6c1.1-0.4,2.5-0.6,3.6-1.2c2-1.2,2.4-4.3,0.8-5.8
						c-1.5-1.4-3.4-1.9-5.4-1.2c-2,0.7-3.3,2.2-3.7,4.4c-0.2,1.4,0.4,2.5,1.7,3C298.5,419.1,299.5,419.3,300.6,419.6z"/>
					<path class="st2" d="M453.3,763.5c-2.3,3.2-4.6,6.1-6.6,9.1c-2.9,4.3-5.7,8.7-8.5,13.1c-0.5,0.7-0.9,1.5-1.4,2.2
						c-1.4,1.6-3,3.2-4.7,4.9c-1.1-0.5-2.5-1.1-4-1.7c-6.6-2.7-13.2-5.5-19.9-8c-8.2-3-15.7-7.3-23.1-11.9c-4.4-2.7-8.8-5.3-13.1-8
						c-5-3.1-9.9-6.3-14.9-9.5c-3.5-2.3-6.8-4.8-10.3-7c-12.6-7.8-23.5-17.5-34.2-27.6c-0.2-0.2-0.3-0.5-0.7-0.9
						c7.4-9.5,16-17.8,25.1-26c0.7,0.5,1.3,0.9,1.9,1.4c10.6,9.6,22.3,17.9,34.1,26c0.5,0.3,1,0.6,1.4,1c11,9.3,23.5,16.6,35.9,23.9
						c10.8,6.3,22.1,11.5,33.9,15.6C447.1,761.1,450,762.3,453.3,763.5z"/>
					<path class="st2" d="M606.2,597c-3,0.5-6,1.1-9.1,1.4c-9.1,0.9-17.9,2.7-26.7,5.2c-2,0.6-3.5,0.4-5.2-1c-2-1.8-4.4-3.1-6.7-4.6
						c-9.3-6.1-18.6-12.2-27.8-18.3c-0.3-0.2-0.6-0.5-1.1-0.9c1-1.1,1.9-2.2,3-3c8.6-7,17.3-13.9,26-20.9c5.5-4.4,10.8-9,16.3-13.5
						c6.1-5,12.2-10.1,18.3-15.1c3.1-2.5,6.3-5,9.7-7.8c0.4,1.5,0.7,2.4,0.9,3.4c2.6,13.9,5.2,27.9,7.8,41.8
						c0.7,3.8,1.5,7.6,2.2,11.4c0.1,0.8,0.2,1.6,0.5,2.2c1.7,2.8,0.8,5.2-1,7.6c-1.6,2.3-3,4.7-4.5,7.1
						C607.9,593.6,607.1,595.1,606.2,597z"/>
					<path class="st3" d="M676,524.8c8.4-6.1,16.3-12.1,24.4-17.9c4.9-3.5,10-6.6,14.8-10.1c8.1-5.8,16-11.7,24-17.6
						c2.2-1.6,4.3-3.3,6.5-5c1.2,1.7,2.1,3.4,3.4,4.7c2.2,2.3,4.6,4.4,6.9,6.6c0.8,0.7,1.5,1.5,2,2.4c2.2,4.1,5,7.8,8.6,10.8
						c0.3,0.2,0.5,0.6,0.9,1.1c-0.7,0.7-1.4,1.5-2.2,2.1c-9.7,7.4-19.3,14.9-29.1,22c-10,7.3-20.3,14.1-30.3,21.3
						c-3.6,2.6-7,5.4-10.4,8.2c-1.2,1-2.3,1.2-3.7,0.8c-2.6-0.7-5-1.9-6.3-4.3c-1.6-2.9-2.8-5.9-4-8.9c-1.6-3.9-3.1-7.9-4.5-11.9
						C676.6,527.9,676.4,526.4,676,524.8z"/>
					<path class="st2" d="M543.1,618.4c1.1-0.8,2.4-1.5,3.4-2.5c1.1-1.1,2.4-2.3,3-3.7c0.6-1.4,1.4-1.9,2.7-2.1
						c3.2-0.5,6.5-0.8,9.7-1.5c7.6-1.6,15.2-3.6,22.9-5c6.9-1.2,13.9-1.9,20.9-2.8c3.7-0.5,7.5-0.9,11.2-1.2
						c4.2-0.4,4.5-0.6,5.2-4.9c4.1-0.8,8.4-1.7,12.6-2.4c3.5-0.6,7-0.9,10.8-1.4c0.9,4.3,1.9,8.9,2.9,13.7c-1.6,0.5-3,1-4.4,1.3
						c-9.7,2-19.5,4-29.2,5.9c-12.3,2.4-24.6,4.8-36.9,7.2c-4.7,0.9-9.4,2-14.2,2.9c-0.7,0.1-1.6,0.2-2.2-0.1
						c-4.6-2-9.5-2.3-14.4-2.5c-1.3-0.1-2.6-0.1-3.9-0.2C543.2,618.7,543.2,618.5,543.1,618.4z"/>
					<path class="st2" d="M651.1,524.4c-2.2-1.7-3.7-3.5-4.2-6.1c-0.8-4.2-1.1-8.4,0.3-12.6c1-2.9,1.6-6,2.6-8.9
						c1-3.1,2.5-5.8,5.1-7.9c0.6-0.5,1.2-1,1.7-1.6c3.2-3.7,7.2-6,12.1-6.8c3.4-0.6,6.8-1.2,10.2-1.7c2.8-0.4,5.6,0.4,8.2,1.4
						c2.4,0.9,4.8,2,7.7,3.4c-1.5,0.3-2.5,0.7-3.5,0.7c-9.4,0.2-15.8,5.4-21.3,12.3c-3.5,4.4-6.5,9.2-7.3,14.9
						c-0.3,2.2-0.3,4.4-0.5,7C658,519,654.1,520.9,651.1,524.4z"/>
					<path class="st2" d="M648.8,527.5c-3.5,5.9-4.1,12.5-4.4,19c-0.2,3.4-1.8,4.8-5.2,4.1c-2.2-0.5-4.3-1.5-6.2-2.6
						c-2-1.1-3.1-3.1-3.8-5.3c-2.5-8.4-2.5-16.7,0-25.1c1.2-3.9,3.7-7,6.8-9.5c1.8-1.4,3.6-2,6.4-2.2c-0.1,1.3-0.1,2.7-0.3,4
						c-0.9,6.6,0.8,12.2,5.9,16.7C648.2,526.8,648.4,527,648.8,527.5z"/>
					<path class="st2" d="M773.5,496.4c-3.2-2.4-5.7-5.1-7.5-8.5c-0.6-1.1-1.4-2.1-2.1-3.1c-1-1.6-2-3.3-3-4.9
						c-1.8-3-3.6-5.9-5.3-8.9c-0.4-0.6-0.7-1.3-1.2-2.2c1.7-1.2,3.3-2.4,5-3.5c2.1-1.3,4.3-2.7,6.5-3.9c3.3-1.8,5-1.2,6.9,2
						c1.6,2.7,3.4,5.4,5.1,8c2,3.2,4,6.4,5.9,9.6c0.5,0.8,0.8,1.8,1.1,2.7c1.1,3.2,0.5,5.4-2.3,7.3
						C779.6,492.9,776.5,494.6,773.5,496.4z"/>
					<path class="st2" d="M708.7,492.5c-2.2,1.5-4.3,3.1-6.6,4.6c-10.2,6.4-19.8,13.8-29.2,21.3c-0.8,0.7-1.5,1.7-3,1.3
						c-2.9-0.8-3.9-2-3.4-4.9c1-5.5,3.1-10.6,6.6-14.9c5.4-6.4,12-10.8,20.5-11.8c5.5-0.6,10.2,1.5,14.8,3.6
						C708.6,492,708.7,492.3,708.7,492.5z"/>
					<path class="st2" d="M633.9,586.3c-2.8-2.6-5.4-5-8-7.4c2.1-3.8,4.2-7.4,6.1-11.1c2-3.6,3.9-7.3,5.8-11
						c0.7-1.3,1.4-2.1,3.1-1.9c1,0.1,2.1-0.2,3.5-0.4c0.1,1,0.4,2.1,0.4,3.2c0.2,7.9,1.5,15.5,4.2,23c0.1,0.4,0.1,0.7,0.2,1.3
						C644.1,583.4,639,584.9,633.9,586.3z"/>
					<path class="st2" d="M342.3,395.7c-2.7,0.3-5.5,0.6-8.2,1c0-0.1-0.1-0.2-0.1-0.4c7.2-1.7,14.4-3.5,21.6-5.2
						c0,0.1,0.1,0.3,0.1,0.4c-3.3,1-6.7,2-10,3C344.5,394.8,343.4,395.3,342.3,395.7C342.2,395.7,342.3,395.7,342.3,395.7z"/>
					<path class="st2" d="M639.4,493.8c1.2,2.5,1.7,5.2,1.7,8C639.5,499.3,639.9,496.5,639.4,493.8z"/>
					<path class="st2" d="M654.3,607c0-1.8,0-3.2,0-5.1c0.7,1.6,1.2,2.8,1.9,4.2C655.7,606.3,655.1,606.6,654.3,607z"/>
					<path class="st2" d="M309.2,721.9c1.4,0.5,1.4,0.5,2.2,1.8C309.9,723.3,309.9,723.3,309.2,721.9z"/>
					<path class="st2" d="M611.9,593.3c0.5-0.9,1.1-1.8,1.6-2.7c0.2,0.1,0.4,0.2,0.6,0.3c-0.5,0.9-1,1.8-1.5,2.8
						C612.4,593.6,612.1,593.4,611.9,593.3z"/>
					<path class="st2" d="M321.4,400.9c-0.4-0.1-0.9-0.2-1.7-0.4c1.2-0.4,2.1-0.6,3.1-0.9c0,0.1,0.1,0.2,0.1,0.3
						C322.4,400.2,321.8,400.6,321.4,400.9C321.3,401,321.4,400.9,321.4,400.9z"/>
					<path class="st2" d="M341.3,683.8c-0.3,0.2-0.6,0.5-0.9,0.7c-0.1-0.1-0.1-0.1-0.2-0.2c0.3-0.3,0.5-0.5,0.8-0.8
						C341.1,683.6,341.2,683.7,341.3,683.8z"/>
					<path class="st2" d="M68.6,444.4c0.6-0.9,1.2-1.8,1.8-2.7c7.7-10.4,15.3-20.8,23.3-31c4-5.1,8.4-9.8,12.9-14.5
						c7-7.3,14.3-14.3,21.5-21.5c6.8-6.8,14-13.3,21.9-18.9c8.5-6,16.8-12.5,25.6-18c9.9-6.2,20.3-11.6,30.4-17.3
						c0.9-0.5,2-0.7,3-0.6c3.2,0.2,6.3,0.7,9.5,1c1.2,0.1,2.2,0.5,2.9,1.6c1.2,2.1,2.4,4.2,3.6,6.4c-0.8,0.4-1.4,0.7-2,1
						c-6.7,2.7-12.8,6.3-18.3,11c-1,0.8-1.5,1.7-1.2,3c0.4,1.4,1.4,1.8,2.6,1c0.2-0.1,0.5-0.4,0.7-0.6c4.1-3.9,9-6.7,14.1-9
						c2.1-1,4.5-1.7,6.9-2c9.2-1.2,18.3-0.7,27.3,1.5c4.8,1.2,9.4,2.8,13.5,5.8c1,0.7,2.2,1.3,3.2,1.9c3.3,2,5.3,4.9,5.6,8.9
						c0.3,4.1-2.2,7.9-6.2,8.9c-3,0.8-6,1.1-9.2,0.7c-3.6-0.4-7.3-0.3-11-0.2c-2.7,0.1-4.9,1.7-6.8,3.6c-2.1,2.1-4,4.4-6.1,6.6
						c-0.8,0.9-1.8,1.7-2.7,2.6c-0.4,0.4-0.7,0.9-1,1.4c-0.5,1-1.3,2-0.1,3.1c0.9,0.8,2.4,0.8,3.7-0.3c2.7-2.3,5.3-4.8,8-7.1
						c1.9-1.7,3.8-3.3,5.6-5c1.2-1.1,2.7-1.6,4.3-1.5c2.4,0.1,4.8,0.1,7.2,0.4c3.8,0.4,7.5,0,11-1.7c0.9-0.5,1.7-0.4,2.7-0.2
						c4.2,0.5,8.5,0.4,12.7,0.9c2.9,0.3,5.9,0.9,8.7,1.9c3.6,1.4,4.3,4.8,1.6,7.6c-2.5,2.7-5.5,4.8-8.8,6.5
						c-9,4.5-18.4,7.4-28.2,9.5c-8.8,1.9-17.2,4.8-23.9,11c-3.2,3-5.9,6.6-8.8,10c-2.3,2.7-4.5,5.5-7,8.1c-3.5,3.5-6.5,7.3-8.8,11.8
						c-8.1,15.5-17,30.6-26.9,44.9c-6,8.6-11.4,17.5-16.3,26.7c-0.3,0.5-0.6,1-1,1.7c-2-1.1-4-2-5.9-3.2c-6.2-3.9-12.8-6.7-19.7-8.9
						c-4.2-1.4-8.3-3.2-12-5.6c-1.5-0.9-2.9-1.9-4.5-2.6c-9.9-4.7-18.8-10.9-27.7-17.3c-3.9-2.8-8.1-5.2-12.3-7.7
						c-4.5-2.7-9-5.3-12.9-8.8C73.3,447.5,71,446.1,68.6,444.4z"/>
					<path class="st2" d="M289.2,330.2c-2.7-5.9-5.4-11.6-8-17.3c-0.4-1-0.8-2-1.4-2.9c-1.1-1.7-0.8-3,1-4.5c4,0.9,8.3,1.5,12.4,2.8
						c5.8,1.9,11.4,4.2,16.9,6.6c1.5,0.6,2.9,1.9,3.9,3.2c1.7,2.1,1.3,4.5-0.4,6.5c-2.8,3.2-6.3,5-10.5,5.4
						C298.5,330.7,293.8,330.8,289.2,330.2z"/>
					<path class="st2" d="M280.6,359.1c2.2-4.3,5.2-8,3.1-12.9c0.8-0.5,1.4-0.9,2.1-1.2c0.7-0.4,1.4-0.7,2-1.1
						c4.1-2.4,4.6-3.7,3.6-8.5c6.7-0.2,13.1-0.2,18.3,4.9c1.7,1.6,2.2,3.4,1.6,5.7c-1.4,5.3-4.5,9.1-9.9,10.2
						c-6,1.3-12.2,1.9-18.2,2.8C282.5,359.2,281.7,359.1,280.6,359.1z"/>
					<path class="st2" d="M255.2,329.7c3.2-2.5,6.3-4.8,9.3-7.1c0.7-0.5,1.4-1.1,1.8-1.9c0.3-0.6,0.5-1.6,0.1-2.1
						c-0.3-0.5-1.3-0.5-2-0.6c-0.3,0-0.7,0.3-1,0.5c-7.6,4.8-16.1,6.8-24.7,8.5c-1.1,0.2-2.3,0.1-3.6,0.2c-0.4-0.8-0.8-1.5-1.4-2.6
						c3.8-1.3,7.3-2.6,10.8-3.7c7.1-2.2,14.2-4.1,21.3-6.5c2.8-0.9,5.3-2.7,8.1-4.2c2.8,5.3,4.7,11.3,6.6,16.9c-1.8,1.1-3.3,2.1-5,3
						c-2.4,1.3-4.6,3.3-7.5,3.4c-0.5,0-1,0.2-1.4,0C262.8,332.2,259.1,331,255.2,329.7z"/>
					<path class="st2" d="M285.6,337.9c-1.8,1-3.5,2-5.2,3c-2.7-1.5-5.2-2.9-8-4.5c0.7-0.8,1-1.4,1.5-1.7c1.9-1.1,3.9-2.2,5.9-3
						c2.3-0.9,3-0.6,4,1.8C284.4,334.8,284.9,336.2,285.6,337.9z"/>
					<path class="st2" d="M201.5,315c-4.9-0.9-9.2-2.8-13-5.9C192.9,311,197.6,312.3,201.5,315z"/>
					<path class="st2" d="M252.8,310.1c-0.5-1.1-1.2-2.2-0.5-3.6c0.3,1.1,0.6,2.3,1,3.4C253.2,310,253,310,252.8,310.1z"/>
					<path class="st2" d="M280.6,350.1c-0.1-0.6-0.1-1.2-0.2-1.8c0.1,0,0.2,0,0.4,0c0.1,0.6,0.1,1.2,0.2,1.8
						C280.9,350.1,280.8,350.1,280.6,350.1z"/>
					<path class="st2" d="M245.7,262.1c0.2-0.5,0.5-1,0.7-1.5c0.1,0,0.2,0.1,0.3,0.1c-0.2,0.5-0.4,1.1-0.7,1.6
						C246,262.3,245.8,262.2,245.7,262.1z"/>
					<path class="st2" d="M132.2,632.9c0.5-6.3,1.1-12.5,3-18.6c2.2-7.2,5.9-13.6,10.1-19.8c1.2-1.7,3-2.9,4.7-4.2
						c2.5-1.9,5.2-3.7,7.8-5.5c0.6-0.4,1.3-0.8,2-1.1c8.4-2.7,16.9-4.7,25.8-4.9c5.7-0.2,11.3,1.2,16.8,2.5
						c7.1,1.7,13.1,5.5,18.5,10.4c1.7,1.5,2.9,3.6,4.1,5.5c2.3,3.9,4.7,7.8,6.7,11.8c3.2,6.3,5.1,12.9,5.2,20
						c0.1,7.2-0.6,14.3-3.3,21c-0.6,1.5-0.9,3.1-1.4,4.7c-1.9,6.2-5,11.4-10.7,14.9c-2.5,1.5-4.9,3.2-7.2,4.9
						c-6,4.4-12.7,7-19.9,8.1c-4.9,0.7-9.8,0.5-14.7-0.4c-7.8-1.5-15.4-3.6-22.6-6.9c-3.9-1.7-7.1-4.2-10.2-6.9
						c-6.4-5.4-10.7-12.1-12.7-20.2c-0.3-1.1-0.3-2.3-0.5-3.4c-0.3-1.4-0.8-2.7-1-4.1C132.4,638.1,132.4,635.5,132.2,632.9z
						 M188.8,675.9c4.7-0.3,8.1-0.2,11.5-0.7c9.1-1.4,15.7-6.9,21.8-13.3c2.9-3.1,4.6-6.9,5.8-10.9c1.2-4.3,2-8.6,3.1-12.9
						c2.3-8.9,1.1-17.5-2.1-25.8c-2.5-6.4-6.6-12-11.9-16.5c-1.5-1.3-3.2-2.4-4.6-3.8c-2.8-2.8-6-4.1-9.9-4
						c-1.2,0.1-2.5-0.2-3.6-0.7c-2.1-0.9-4.2-1.4-6.5-1.3c-2.7,0.1-5.4,0.5-8.1,0.3c-4.8-0.4-9.5,0.3-14,1.7
						c-6.7,2-13.2,4.7-17.8,10.3c-4.3,5.2-8,10.9-9.8,17.6c-0.9,3.1-1.4,6.3-2.5,9.3c-0.5,1.3-0.8,2.9-0.6,4.2
						c0.4,2.2,0.4,4.4,0.2,6.7c-0.1,0.9,0.5,1.8,0.8,2.7c0.4,1.1,1.2,2.2,1.1,3.2c-0.3,3.2,1.3,6,2.1,8.8c1.4,4.8,5,8.6,8.3,12.4
						c4.5,5,10.6,7.5,16.6,9.7C175.4,675.2,182.6,677.2,188.8,675.9z"/>
					<path class="st0" d="M226,673.4c-0.9,1.2-1.8,2.3-2.7,3.5c-6.1,8.4-14.9,12.9-24.4,16.2c-8.2,2.9-16.7,2.9-25.2,2.1
						c-2.9-0.3-5.7-1.1-8.2-2.5c-5.7-3.2-11.5-6.4-17.2-9.6c-1.2-0.7-2.5-1.5-3.4-2.6c-3.7-4.5-6.8-9.4-8.5-15
						c-0.1-0.3-0.1-0.7-0.1-1.7c1,1.3,1.6,2.2,2.3,3c3.5,4.1,7.1,8.1,10.7,12.2c1.4,1.5,3.2,2.4,5.1,3.2c3.9,1.5,7.6,3.3,11.4,4.9
						c5.8,2.5,11.9,3.3,18.1,2.7c2-0.2,4-0.3,6.1-0.4c2.1-0.1,4.2-0.2,6-1.7c0.7-0.6,2-0.7,3-0.8c5.8-0.6,10.8-3.2,15.4-6.6
						c3-2.2,6.3-4,9.5-6.1c0.6-0.4,1.2-0.8,1.8-1.3C225.8,673.1,225.9,673.2,226,673.4z"/>
					<path class="st0" d="M127.6,626.7c-0.2,5.9-0.5,11.2-0.7,16.9c-1,0.1-2,0.3-3,0.4c-3.4,0.6-6.9,1-10.2,1.8
						c-2.8,0.6-5.4,0.4-7.8-1.1c-0.7-0.4-1.4-1.2-1.5-1.9c-0.3-3.1-0.4-6.1-0.5-9.2c0-1.4,0.7-2.4,2.1-2.7c2.8-0.7,5.5-1.6,8.3-2.2
						c2.7-0.6,5.5-1,8.3-1.4C124.1,626.9,125.6,626.9,127.6,626.7z"/>
					<path d="M362.9,478.6c-6.3-0.2-9.8-2.7-11.2-7c-1-2.9-0.7-5.7,1.2-8.2c2.1-2.7,4.9-4.3,7.8-5.8c5.2-2.7,10.9-3.9,16.5-5.2
						c10.2-2.4,20.5-4.7,30.7-7.1c12.8-3,25.4-6.5,38.2-9.2c11-2.3,22.3-3.7,33.4-5.7c7.5-1.4,15-2.8,22.3-5.1
						c11.6-3.6,23.6-5.9,35.5-8.3c3.6-0.7,7.3-0.4,10.9,0.6c2.8,0.8,4.8,2.5,6.3,4.8c2,3.1,0.6,7.6-3,10c-5.1,3.5-10.7,5.7-16.5,7.6
						c-7.9,2.6-16,4.3-24.2,5.7c-13.3,2.3-26.6,4.6-39.9,7c-6.1,1.1-12.2,2.1-18.2,3.3c-3.7,0.8-7.2,2-10.9,3
						c-5,1.4-10.1,2.7-15.1,4c-2.1,0.6-4.3,1.1-6.4,1.7c-4.4,1.2-8.7,2.4-13.1,3.5c-8.7,2.2-17.4,4.3-26.1,6.5
						c-4.6,1.1-9.2,2.2-13.8,3.3C365.7,478.3,364.3,478.4,362.9,478.6z M362.3,475.3c1.8-0.2,3-0.2,4.3-0.5c4.2-1,8.5-2,12.7-3
						c8.6-2.2,17.2-4.3,25.8-6.5c4.7-1.2,9.3-2.4,14-3.6c2.1-0.6,4.3-1.2,6.4-1.7c3.8-1,7.8-1.5,11.5-2.9c9.8-3.6,20-5.2,30.1-7.1
						c11.6-2.1,23.2-4.2,34.7-6.2c1.6-0.3,3.2-0.5,4.9-0.7c10.2-1.4,20.2-3.4,29.8-7c4.4-1.6,8.5-4,12.8-6.1
						c1.7-0.9,2.9-2.5,2.8-4.4c-0.1-2.1-1.7-3.4-3.5-4.3c-0.3-0.2-0.7-0.3-1.1-0.4c-3-1-6.1-1.3-9.2-0.7c-7.9,1.5-15.8,2.9-23.5,4.9
						c-10.4,2.7-20.5,6.1-31.1,7.9c-6.7,1.1-13.3,2.1-20,3.3c-6.1,1-12.2,2-18.2,3.3c-12.7,2.5-24.9,6.9-37.7,9.2
						c-9.7,1.8-19.2,4.3-28.8,6.6c-5.7,1.3-11.6,2.4-16.8,5.3c-2.3,1.3-4.7,2.7-6.5,4.6c-2.6,2.8-1.2,7.8,2.4,9.1
						C359.5,474.9,361.2,475.1,362.3,475.3z"/>
					<path d="M451.4,415.6c-1.3,0.4-2.2,0.8-3.5,1.2c0.5,2.2,1,4.5,1.6,6.7c0.3,1,0.4,2-0.7,2.4c-1.3,0.5-2-0.4-2.4-1.4
						c-0.4-0.9-0.6-1.8-0.9-2.9c-0.7,0.6-1.2,1.2-1.8,1.7c-2.3,1.8-5,1.2-6.1-1.5c-1.1-2.5,0.2-7.7,2.4-9.3c0.5-0.4,1.2-0.7,1.8-0.7
						c1.2-0.1,2.5-0.1,3.6,0.2c0.8,0.2,1.5,1,2.4,1.7c0.9-0.5,1.9-1,3.2-1.7c-0.4-1.8-0.8-3.6-1.3-5.3c-0.2-0.7-0.5-1.3-0.6-1.9
						c-0.2-1,0.2-1.7,1.2-2c1-0.3,1.7,0.3,2,1.2c0.5,1.6,0.9,3.2,1.3,4.7c0.2,0.6,0.4,1.3,0.6,2c0.6-0.1,1.1-0.1,1.5-0.3
						c2.1-1.3,4.4-0.5,6.6-0.4c0.7,0,1.5,1.1,1.8,1.9c0.6,1.6,0.8,3.4,1.3,5c0.3,1.2,0.8,2.3,1.4,3.4c0.5,0.9,0.7,1.8-0.2,2.3
						c-0.6,0.3-1.7,0.2-2.3-0.2c-0.6-0.4-1.1-1.4-1.3-2.1c-0.6-1.8-1-3.7-1.5-5.6c-0.2-0.8-0.4-1.6-0.7-2.6
						c-2.1,0.7-3.9,1.3-6.1,2.1c0.5,2.8,1.1,5.5,1.6,8.2c0.1,0.5,0.5,1,0.4,1.4c-0.1,0.7-0.4,1.6-0.9,1.8c-0.5,0.2-1.6-0.2-1.9-0.7
						c-0.6-1.1-0.9-2.3-1.2-3.5C452.2,419.4,451.8,417.6,451.4,415.6z M441.8,415.2c-1.1,1.8-2.1,3.6-0.9,5.8
						C443.7,418.7,444,416.9,441.8,415.2z"/>
					<path d="M536.5,396c0.2-0.2,0.4-0.3,0.6-0.5c2.5-2.6,4.1-2.3,5.4,1.2c0.4,1.1,0.7,2.2,1,3.3c0.3,1,0.5,2,1.9,2.3
						c1,0.2,1.4,1.3,0.9,2.1c-0.4,0.6-1.3,1.3-2,1.3c-1.6,0-2.6-1.1-3.1-2.6c-0.5-1.4-1-2.8-1.6-4.9c-0.5,1.2-0.8,1.9-1.1,2.6
						c-0.8,1.8-2.1,1.9-3.2,0.3c-0.6-0.9-1.2-2-2-3.3c-1.7,3-2.2,5.7-1.1,8.6c0.5,1.2,0.3,2.1-0.9,2.5c-1.1,0.4-1.8-0.3-2.2-1.3
						c-0.2-0.6-0.4-1.3-0.5-2c-0.1-0.6-0.1-1.3-0.2-2.1c-3.1,4.2-5.9,5.4-9,4.1c-2.4-1-3.5-3.3-3.1-6.5c0.4-3.1,2.3-5.4,4.5-5.7
						c4-0.4,5.8,0.8,7.5,5.4c0.3-0.9,0.6-1.6,0.8-2.3C530.8,394.2,532.8,393.5,536.5,396z M520.7,398.5c-0.5,1.2-1,2.3-1.3,3.3
						c-0.3,1.5,0.4,2.6,1.6,2.9c1.5,0.4,3.2-0.8,3.7-2.4c0.4-1.5-0.1-2.3-1.8-2.9C522.4,399.2,521.8,398.9,520.7,398.5z"/>
					<path d="M509.1,403.9c-2,0.7-3.9,1.3-6,2.1c0.2,1.2,0.4,2.4,0.6,3.5c0.1,0.7,0.3,1.6,0.1,2.2c-0.2,0.5-0.9,1.1-1.4,1.2
						c-0.5,0-1.3-0.5-1.5-1c-0.4-0.9-0.4-1.9-0.7-2.8c-0.2-0.9-0.5-1.8-0.8-2.7c-0.1-0.5-0.5-1-0.4-1.3c1-2.3-0.1-4.6-0.1-6.9
						c0-0.3-0.1-0.6-0.1-0.9c-0.1-1,0-2,1.3-2.2c1.2-0.2,1.7,0.6,1.9,1.7c0.2,1,0.3,2.1,0.4,3.2c0.1,0.8,0.2,1.5,0.4,2.7
						c2-0.7,3.9-1.3,6-2c-0.2-1.4-0.4-2.7-0.5-4c-0.1-0.7-0.2-1.3-0.2-2c0-1.1,0.4-1.9,1.6-2c1.1,0,1.5,0.7,1.6,1.7
						c0.1,1.1,0.3,2.1,0.4,3.1c0.1,1.3,0.3,2.4,1.5,3.3c0.4,0.3,0.8,1.7,0.5,2c-1.5,1.6-0.7,3.3-0.5,4.9c0.1,0.6,0.3,1.1,0.3,1.7
						c0,1-0.6,1.8-1.6,1.7c-0.6-0.1-1.4-0.7-1.6-1.3c-0.4-1.4-0.5-2.8-0.7-4.3C509.5,405,509.3,404.5,509.1,403.9z"/>
					<path d="M339.5,439.9c0.8-3.3,1.4-5.9,2-8.5c0.3-1.2,0.2-2.7,2-2.6c1.2,0,1.7,1.2,1.2,3.3c-2.2,8.7-4.5,17.3-6.7,26
						c-0.1,0.4-0.2,0.7-0.4,1.1c-0.5,0.9-1.3,1.3-2.1,0.8c-0.5-0.3-0.9-1.3-0.8-1.9c0.1-1.2,0.6-2.4,0.9-3.6
						c0.7-2.6,1.3-5.2,2.2-7.8c0.7-2.1,0.1-3.7-1.3-5.2c-1.6-1.8-3.3-3.5-4.9-5.3c-1.3-1.5-1.5-2.5-0.7-3.2c0.9-0.7,1.7-0.4,3.1,1.1
						C335.6,435.7,337.3,437.6,339.5,439.9z"/>
					<path d="M399.6,424.9c0.3-4,1.2-7.4,4.1-9.9c1.8-1.5,3.8-2.4,6.1-1.6c1,0.3,1.9,1.2,2.5,2.1c0.3,0.4-0.1,1.5-0.5,2
						c-0.3,0.3-1.2,0.1-1.8,0c-0.8-0.2-1.6-1-2.2-0.9c-1,0.2-2,0.8-2.6,1.6c-1.9,2.1-2.6,4.8-2.3,7.5c0.1,1.2,1.1,2.4,2.1,3.3
						c1.1,1.1,2.5,1.1,3.6,0c0.9-0.9,1.7-1.8,2.5-2.7c0.6-0.7,1.3-1.2,2.2-0.6c1,0.7,1,1.6,0.4,2.5c-1.3,2-2.9,3.7-5.1,4.5
						c-3.3,1.3-7.8-1.5-8.8-5.4C399.7,426.3,399.7,425.5,399.6,424.9z"/>
					<path d="M367.1,438c1.4-2.3,1.4-4.4,1.5-6.5c0.1-2.3,0.5-3.2,1.6-3.2c1.7,0.1,1.7,1.6,2.2,2.7c1.3,3.2,2.6,6.4,3.9,9.6
						c0.5,1.1,0.3,2.1-0.7,2.8c-0.8,0.6-1.8,0.1-2.4-1.2c-0.6-1.3-1.1-2.6-1.8-4.3c-0.6,0.8-1.1,1.5-1.6,2.1
						c-1.5,1.6-3.2,1.8-4.8,0.4c-0.9-0.8-1.8-1.9-2.2-3c-0.7-1.8-1.2-3.7-1.5-5.6c-0.3-1.6,0.3-2.7,1.4-2.7c1.4-0.1,1.6,1,1.9,2.1
						c0.4,1.9,1,3.7,1.6,5.5C366.1,437.1,366.6,437.4,367.1,438z"/>
					<path d="M359.9,437.5c-0.1,2.8-0.8,4.6-2.2,6.2c-1.7,2-4,2.5-6.5,1.7c-2.4-0.9-3.9-2.6-3.8-5.2c0-1.7,0.3-3.5,0.8-5.1
						c0.9-2.8,3.6-4.4,6.6-4.1c0.6,0.1,1.5,0.2,1.9,0.6C358.2,433.6,360,435.4,359.9,437.5z M350.6,438.6c-0.1,2.6,0.4,3.4,1.9,3.8
						c1.5,0.4,2.6-0.2,3.5-1.8c1-2,0.8-3.8-0.6-5.3c-1.2-1.3-3-1.2-3.8,0.4C350.9,436.7,350.7,438,350.6,438.6z"/>
					<path d="M549.4,400.1c2.2,1.6,3,1.6,4.4,0.2c0.5-0.5,0.9-1.3,1.5-1.7c0.5-0.3,1.4-0.4,1.8-0.2c0.4,0.3,0.8,1.1,0.7,1.7
						c-0.5,2.3-3.8,4.6-6.4,4.5c-2.9-0.1-5.2-2.1-5.5-5c-0.4-3,0.6-5.5,2.6-7.7c1.3-1.4,3.1-1.5,4.5-0.4c1.4,1,1.9,2.7,1.2,4.4
						C553.4,397.6,552.3,398.6,549.4,400.1z"/>
					<path d="M430.2,425.2c1.1-0.2,1.8-0.2,2.5-0.4c0.4-0.1,0.7-0.6,1.1-0.9c0.8-0.8,1.7-1,2.5-0.2c0.9,0.9,0.3,1.8-0.4,2.6
						c-2.5,3-6.8,3-8.9-0.2c-0.8-1.2-1.8-3.1-1.5-4.2c0.7-2.2,1.3-4.7,3.5-6.1c1.3-0.9,3-0.6,4.3,0.5c1.3,1.2,1.8,3,0.9,4.5
						C433.3,422.2,431.9,423.4,430.2,425.2z"/>
					<path d="M483,411.8c0.7,0.9,1.4,0.3,2.1-0.3c0.5-0.5,0.8-1.4,1.4-1.8c0.4-0.3,1.3-0.6,1.8-0.4c0.5,0.2,0.9,1,0.9,1.6
						c0,1.7-2.6,4.1-4.4,4.5c-2.1,0.4-4-0.5-5-2.5c-1.5-2.8-1.1-5.7,1-8.2c1.2-1.5,2.7-2,4-1.3c1.5,0.7,2.5,2.9,1.6,4.5
						C485.5,409.2,484.2,410.4,483,411.8z"/>
					<path d="M378.5,428.6c1.7-0.9,3.2-2,4.8-2.6c0.8-0.3,2,0.2,2.9,0.7c0.4,0.3,0.8,1.4,0.5,2c-0.2,0.5-1.2,0.9-1.8,0.9
						c-2.4-0.1-3.1,0.3-3.5,2.6c-0.2,1.2,0,2.5,0.1,3.7c0,0.5,0.3,1,0.2,1.4c-0.2,0.7-0.6,1.6-1.1,1.7c-0.5,0.2-1.6-0.3-1.9-0.8
						c-1.3-3-2.5-6.1-3.5-9.1c-0.2-0.5,0.4-1.5,0.9-1.9c0.3-0.2,1.2,0.1,1.7,0.4C378.2,427.9,378.4,428.5,378.5,428.6z"/>
					<path d="M472.2,413.3c0.5-1.7,0.8-3,1.2-4.2c0.4-1,0.7-2,1.4-2.8c0.4-0.4,1.5-0.7,1.9-0.5c0.5,0.2,0.8,1.3,0.7,1.9
						c-0.7,2.7-1.5,5.3-2.3,8c-0.3,1.1-0.7,2.3-2,2.6c-1.5,0.3-2.3-0.7-3-1.8c-1.3-2.1-2.5-4.3-3.7-6.5c-0.5-1-0.5-1.9,0.6-2.5
						c1-0.5,1.7,0,2.2,0.8C470.1,409.8,471,411.3,472.2,413.3z"/>
					<path d="M417.7,420.8c1.6-1,2.9-2,4.4-2.7c0.6-0.3,1.5-0.4,2.2-0.3c0.5,0.1,1.1,0.9,1.2,1.4c0.1,0.5-0.5,1.1-0.9,1.6
						c-0.2,0.2-0.7,0.1-1.1,0.3c-2.7,1-3.8,2.6-3.7,5.5c0,0.4,0.2,0.8,0.1,1.1c-0.3,0.6-0.6,1.5-1.1,1.8c-0.9,0.4-1.6-0.3-2-1.2
						c-1-2.4-2-4.8-2.8-7.2c-0.2-0.5,0.2-1.3,0.6-1.7c0.3-0.3,1.1-0.3,1.6,0C416.6,419.6,417.1,420.3,417.7,420.8z"/>
					<path d="M463,403.6c-0.4,0.3-0.9,1-1.6,1.1c-0.9,0.2-1.9-1-1.9-2.1c0-1,0.6-1.6,1.6-1.7C462.2,400.9,463,402,463,403.6z"/>
					<path d="M517.3,510.1c0.4-1.9,0.6-4,1.4-5.8c0.6-1.5,1.6-3,2.8-3.9c4.8-3.1,10-5,15.9-4.2c6,0.8,9.9,4.4,12.6,9.5
						c1.7,3.2,1.7,6.9,2.1,10.4c0.1,0.5-0.2,1.4-0.5,1.5c-1.8,0.5-2,2.2-2.8,3.4c-3.8,5.7-14.6,9.2-21,6.9c-4.5-1.7-7.7-4.8-9-9.5
						C518,515.8,517.8,513,517.3,510.1z M536.3,501.5c-4.1-0.3-7.8,1.4-11.3,3.5c-3.1,1.9-4,4.5-2.7,7.9c0.9,2.2,1.8,4.5,3,6.6
						c2.2,4,5.6,5.4,10,4.5c1.1-0.2,2.2-0.6,3.3-1c4.1-1.2,6-4.2,6.8-8.2c0.4-2.3,0.7-4.6,0.9-6.8c0.1-0.7-0.2-1.5-0.7-2
						C543.2,503.1,540.4,501.1,536.3,501.5z"/>
					<path d="M272.2,427.6c-2.6,0-4.5-2.2-4.1-4.8c0.4-2.6,2-4.4,4.2-5.6c1.4-0.8,3-0.4,4.2,0.8c1,1.1,1.5,2.1,0.4,3.5
						c-0.4,0.5-0.2,1.5-0.3,2.2C276.2,426,274.4,427.6,272.2,427.6z M272.1,421.5c-0.4,1-1.4,1.7-0.2,2.6c0.2,0.2,0.8,0.1,1-0.1
						C273.8,422.9,272.9,422.4,272.1,421.5z"/>
					<path d="M292.4,419.1c0,2.4-2.8,4.8-5.6,4.8c-2.2,0-3.9-1.6-3.9-3.8c-0.1-2.8,2.4-5.4,5-5.3
						C290.7,414.8,292.4,416.4,292.4,419.1z M288.5,420c-0.8-0.7-1.6-2-2.2-0.4c-0.1,0.2,0.1,0.5,0.2,1
						C287.2,420.4,287.8,420.2,288.5,420z"/>
					<path d="M300.6,419.6c-1.2-0.3-2.1-0.4-3-0.8c-1.3-0.6-1.9-1.7-1.7-3c0.4-2.2,1.7-3.7,3.7-4.4c2-0.7,3.9-0.1,5.4,1.2
						c1.6,1.4,1.2,4.6-0.8,5.8C303.1,419,301.7,419.2,300.6,419.6z M301,416c0-0.2,0.1-0.4,0.1-0.5c-0.4-0.1-0.9-0.1-1.4-0.2
						c0,0-0.1,0.3-0.1,0.5C300.1,415.8,300.5,415.9,301,416z"/>
					<path d="M228,698.9c0.2-2,0.5-4,0.7-6c0.1-0.9,0.4-1.9,1.6-1.6c1.2,0.2,1,1.3,0.9,2.1c-0.2,2.4-0.5,4.8-0.5,7.2
						c0,2.4,0.5,4.8,1.9,6.9c1.6,2.5,3.7,3.1,6.2,1.6c1.9-1.2,3.9-2.6,5.3-4.4c3.6-4.5,6.9-9.3,10.2-14c0.3-0.4,0.3-1,0.7-1.2
						c0.4-0.3,1.1-0.5,1.5-0.3c0.4,0.2,0.6,0.9,0.7,1.4c0,0.4-0.3,0.9-0.6,1.3c-3.4,4.7-6.6,9.5-10.2,14c-1.7,2.1-4,3.9-6.4,5.4
						c-3.9,2.4-7.5,1.2-9.8-2.8C228.5,705.5,228,702.3,228,698.9z"/>
					<path d="M241.2,679.3c-0.6,2.1-1.1,3.8-1.5,5.4c-0.4,1.5-0.6,3-1,4.5c-0.1,0.5-0.3,1.2-0.7,1.5c-0.5,0.4-1.3,0.5-1.9,0.8
						c-0.2-0.6-0.6-1.3-0.5-1.8c0.9-3.6,2-7.2,3.1-10.8c0.1-0.5,0.9-0.7,1.4-1.1C240.6,678.4,241,678.9,241.2,679.3z"/>
					<path d="M246.1,692.3c-0.3-0.5-0.9-1.1-0.8-1.5c0.8-3.3,1.7-6.5,2.7-9.7c0.1-0.4,1-0.6,1.5-0.9c0.2,0.6,0.7,1.1,0.7,1.6
						c-0.1,0.9-0.5,1.8-0.7,2.8c-0.4,1.9-0.8,3.7-1.1,5.6C248.2,691.4,247.5,692,246.1,692.3z"/>
					<path d="M188.8,675.9c-6.2,1.3-13.4-0.7-20.2-3.2c-6-2.2-12.1-4.7-16.6-9.7c-3.4-3.7-6.9-7.5-8.3-12.4
						c-0.8-2.8-2.5-5.6-2.1-8.8c0.1-1-0.7-2.1-1.1-3.2c-0.3-0.9-0.8-1.8-0.8-2.7c0.2-2.2,0.2-4.4-0.2-6.7c-0.3-1.3,0.1-2.9,0.6-4.2
						c1.1-3.1,1.6-6.2,2.5-9.3c1.9-6.6,5.6-12.3,9.8-17.6c4.6-5.6,11-8.3,17.8-10.3c4.5-1.4,9.2-2,14-1.7c2.7,0.2,5.4-0.2,8.1-0.3
						c2.2,0,4.4,0.4,6.5,1.3c1.1,0.5,2.4,0.8,3.6,0.7c3.9-0.2,7.2,1.2,9.9,4c1.4,1.4,3.1,2.6,4.6,3.8c5.4,4.5,9.4,10.1,11.9,16.5
						c3.2,8.3,4.4,16.9,2.1,25.8c-1.1,4.3-1.9,8.7-3.1,12.9c-1.1,4-2.8,7.8-5.8,10.9c-6.1,6.3-12.7,11.9-21.8,13.3
						C196.9,675.7,193.5,675.7,188.8,675.9z M225.2,617c0.4,4.4,1.5,8.6,0.8,12.9c-0.3,1.9-0.9,3.7-1.5,5.5c-0.3,1-0.6,1.9-0.9,2.9
						c-0.1,0.5-0.1,1.2-0.2,1.7c-1.3,4.4-2.4,8.8-3.8,13.1c-0.9,2.8-2.2,5.5-4.6,6.6c-1.1,1.8-1.6,3.4-2.8,4.5
						c-2.8,2.5-6,4.4-9.6,5.5c-0.8,0.2-2,0.1-2.2,1.4c4,0,6.9-1,9.6-2.7c7.8-4.7,11.7-12.2,14.3-20.4c2.2-6.8,2.9-14,3-21.1
						C227.3,623.6,226.6,620.2,225.2,617z"/>
					<path class="st2" d="M362.3,475.3c-1.1-0.3-2.8-0.5-4.3-1.1c-3.6-1.4-5-6.4-2.4-9.1c1.8-1.9,4.2-3.4,6.5-4.6
						c5.2-2.9,11.1-3.9,16.8-5.3c9.6-2.3,19.1-4.8,28.8-6.6c12.8-2.3,25-6.7,37.7-9.2c6.1-1.2,12.2-2.2,18.2-3.3
						c6.7-1.1,13.3-2.1,20-3.3c10.6-1.8,20.8-5.2,31.1-7.9c7.7-2,15.6-3.4,23.5-4.9c3-0.6,6.2-0.3,9.2,0.7c0.4,0.1,0.8,0.2,1.1,0.4
						c1.8,0.9,3.4,2.2,3.5,4.3c0.1,1.9-1,3.6-2.8,4.4c-4.2,2.1-8.4,4.5-12.8,6.1c-9.6,3.6-19.7,5.6-29.8,7c-1.6,0.2-3.2,0.5-4.9,0.7
						c-11.6,2.1-23.2,4.1-34.7,6.2c-10.1,1.9-20.4,3.4-30.1,7.1c-3.7,1.4-7.7,1.9-11.5,2.9c-2.2,0.5-4.3,1.2-6.4,1.7
						c-4.7,1.2-9.3,2.4-14,3.6c-8.6,2.2-17.2,4.4-25.8,6.5c-4.2,1.1-8.4,2.1-12.7,3C365.3,475.1,364,475.1,362.3,475.3z
						 M375.8,469.7c1.9,0,2.8-0.8,2.6-2c-0.2-1.2-1.1-1.4-2.2-1.4c-2,0-3.4-0.5-4.2-2.7c-0.6-1.6-1.9-3-3.7-3.3
						c-3.2-0.6-6.8,2.8-6.7,6.1c0.2,3.4,3.7,6,6.7,4.6C371.1,469.7,373.4,468.3,375.8,469.7z"/>
					<path class="st4" d="M441.8,415.2c2.2,1.7,1.9,3.5-0.9,5.8C439.7,418.8,440.7,417,441.8,415.2z"/>
					<path class="st4" d="M520.7,398.5c1.1,0.4,1.7,0.7,2.3,0.9c1.7,0.5,2.2,1.3,1.8,2.9c-0.4,1.7-2.2,2.8-3.7,2.4
						c-1.3-0.3-2-1.3-1.6-2.9C519.7,400.7,520.2,399.7,520.7,398.5z"/>
					<path class="st4" d="M350.6,438.6c0.2-0.5,0.3-1.8,0.9-2.9c0.8-1.6,2.6-1.7,3.8-0.4c1.5,1.5,1.7,3.3,0.6,5.3
						c-0.9,1.6-2,2.2-3.5,1.8C351,442,350.5,441.1,350.6,438.6z"/>
					<path class="st0" d="M536.3,501.5c4.1-0.5,6.9,1.6,9.3,4.4c0.4,0.5,0.7,1.4,0.7,2c-0.2,2.3-0.5,4.6-0.9,6.8
						c-0.7,4-2.6,7-6.8,8.2c-1.1,0.3-2.2,0.7-3.3,1c-4.4,0.9-7.8-0.5-10-4.5c-1.2-2.1-2.2-4.3-3-6.6c-1.3-3.4-0.4-6,2.7-7.9
						C528.4,502.9,532.1,501.2,536.3,501.5z"/>
					<path class="st2" d="M272.1,421.5c0.9,0.8,1.7,1.4,0.7,2.5c-0.2,0.2-0.8,0.3-1,0.1C270.7,423.2,271.7,422.5,272.1,421.5z"/>
					<path class="st2" d="M288.5,420c-0.6,0.2-1.3,0.4-2,0.6c-0.1-0.5-0.3-0.8-0.2-1C286.9,418,287.7,419.3,288.5,420z"/>
					<path class="st2" d="M301,416c-0.5-0.1-0.9-0.1-1.4-0.2c0-0.2,0.1-0.5,0.1-0.5c0.5,0,0.9,0.1,1.4,0.2
						C301,415.6,301,415.8,301,416z"/>
					<path class="st2" d="M225.2,617c1.5,3.1,2.1,6.5,2.1,10c-0.1,7.2-0.8,14.3-3,21.1c-2.6,8.2-6.6,15.7-14.3,20.4
						c-2.8,1.7-5.6,2.6-9.6,2.7c0.3-1.3,1.5-1.1,2.2-1.4c3.6-1.1,6.9-3,9.6-5.5c1.1-1,1.7-2.7,2.8-4.5c2.4-1.1,3.7-3.8,4.6-6.6
						c1.4-4.3,2.6-8.8,3.8-13.1c0.2-0.5,0.1-1.1,0.2-1.7c0.2-1,0.6-1.9,0.9-2.9c0.5-1.8,1.1-3.7,1.5-5.5
						C226.7,625.6,225.6,621.4,225.2,617z"/>
					<path d="M375.8,469.7c-2.5-1.4-4.8,0-7.3,1.3c-3,1.5-6.5-1.1-6.7-4.6c-0.2-3.2,3.5-6.6,6.7-6.1c1.9,0.3,3.1,1.7,3.7,3.3
						c0.8,2.1,2.2,2.7,4.2,2.7c1.1,0,2,0.2,2.2,1.4C378.7,468.9,377.8,469.7,375.8,469.7z M367.4,463.6c-1.4,0.6-2.5,1.3-2.3,2.8
						c0.1,0.6,0.8,1.4,1.3,1.6c1.5,0.4,2.4-0.7,3.3-2.1C369,465,368.2,464.3,367.4,463.6z"/>
					<path class="st2" d="M367.4,463.6c0.8,0.7,1.6,1.4,2.4,2.2c-0.9,1.4-1.8,2.5-3.3,2.1c-0.6-0.1-1.3-1-1.3-1.6
						C364.9,464.9,366,464.2,367.4,463.6z"/>
				</g>
			</g>
			<path d="M414.8,95.8c0.4,6.3,1.4,12.3,1.2,18.3c-0.7,17.6-7.7,32.6-20.6,44.7c-7.1,6.6-15.5,9.6-25.2,7.5
				c-5.3-1.2-9.7-4.1-13.5-7.9c-15.9-15.8-15.6-43.7,0.6-59c6.3-6,13.9-9.9,22.3-11.6c6.6-1.4,13.5-1.5,20.3-2.1
				c0.6-0.1,1.3,0,2.4,0c-1.3-2.4-2.4-4.5-3.6-6.5c-13-21.9-32.6-33.1-57.7-35.3c-14.8-1.3-29.2,1.1-43.1,6.4
				c-20.2,7.7-38.5,18.5-54.7,32.7c-6.1,5.4-11.4,11.5-15.1,18.8c-0.7,1.5-1.2,3.2-1.5,4.9c-0.4,2.1-1.5,3.4-3.6,3.5
				c-2.1,0.1-3.8-0.9-4.1-2.9c-0.2-1.8,0.1-3.9,0.8-5.5c4.1-10,10.9-18.2,19.1-25.1c22.4-19,47.3-33.4,76.6-39
				c16.3-3.1,32.6-2.4,48.4,3.2c21.8,7.7,36.6,22.8,46.1,43.5c0.8,1.8,1.8,2.8,3.9,3.3c11.2,2.8,21.1,8.3,30.3,15
				c19.6,14.3,35.1,32.5,48.4,52.7c0.5,0.8,1.1,1.6,1.6,2.4c0.1,0.1,0.3,0.2,0.9,0.6c-0.5-4.7-0.9-9.1-1.3-13.5
				c-0.3-3.9-0.6-7.9-0.8-11.8c-0.1-3,1.3-4.7,3.8-4.8c2.2-0.1,3.5,1.6,3.8,4.5c1.4,13.9,2.8,27.8,4.2,41.7c0.1,1.4,0.3,2.9,0.3,4.3
				c0,4.7-3.4,7-7.6,4.9c-4.5-2.2-9-4.5-13.1-7.2c-8.2-5.3-16-11.1-24.2-16.3c-3.3-2.1-7.3-3.3-10.8-5.2c-1.2-0.7-2.4-2.2-2.7-3.6
				c-0.4-1.9,1-3.5,2.9-3.6c2-0.1,4.4,0.1,6.1,1.1c6.2,3.6,12.3,7.5,18.4,11.5c6.7,4.4,13.4,9,20.7,14c-0.2-1.3-0.2-1.6-0.4-1.9
				c-12.2-19.9-25.6-38.9-43.4-54.5c-9.9-8.7-20.4-16.4-32.9-21C416.8,96.5,415.7,96.2,414.8,95.8z M408.9,110
				c-0.7-3.6-1.6-8.9-2.8-14.1c-0.2-0.9-1.4-2.1-2.3-2.2c-11-1.5-21.7-0.2-31.8,4.8c-20.4,10-26,33.7-12.4,51.9
				c7.8,10.5,19.4,12.2,29.4,3.8C402.1,143.2,407.7,128.5,408.9,110z"/>
			<g>
				<path d="M644,718.1c0,6.7,0.3,13.5-0.1,20.2c-0.2,4.7-1.3,9.3-2,14c-0.5,2.9-2.1,4.3-4.4,3.9c-2.4-0.4-3.4-2.2-3-5.3
					c0.8-6.3,1.9-12.6,2.3-18.9c0.3-4.8-0.3-9.7-0.6-14.5c-0.2,0-0.5,0-0.7-0.1c-0.4,0.6-0.8,1.2-1.1,1.9
					c-6.3,13-14.7,24.6-24.1,35.5c-1.5,1.7-3.2,2.1-5.1,0.9c-1.8-1.1-2.3-3.6-0.9-5.6c0.9-1.3,2-2.3,3-3.5
					c11.5-13.8,20.6-29,27-45.8c0.5-1.5,2.1-3,3.5-3.5c2-0.7,3.4,1,4.5,2.8c8.9,14.9,18,29.6,30.4,42c2.4,2.4,2.5,4.9,0.5,6.5
					c-1.8,1.4-3.7,1-5.8-1.1c-8.2-8-14.9-17.1-21.1-26.7c-0.6-0.9-1.2-1.9-1.9-2.8C644.4,717.9,644.2,718,644,718.1z"/>
				<path d="M616.6,810.9c-1.3-0.9-2.8-1.4-3.2-2.4c-0.5-1.1-0.5-3.1,0.2-4c4.7-5.9,6.6-12.9,9.4-19.7c1.4-3.5,2.9-6.9,4.6-10.2
					c0.8-1.7,2.4-2.5,4.3-1.9c2,0.6,2.9,2,2.7,3.9c-0.1,1.2-0.6,2.4-1.1,3.6c-2.8,6.7-5.6,13.5-8.6,20.1c-1.3,2.9-3.2,5.6-5.1,8.3
					C619.1,809.5,617.8,810,616.6,810.9z"/>
				<path d="M606.8,831.5c-0.6,0.6-1.7,1.7-2.8,2.6c-0.7,0.6-1.8,0.6-2.5,1.2c-4.2,3.7-8.2,7.5-12.4,11.1c-2.6,2.3-5.5,4.2-8.2,6.3
					c-1.9,1.5-3.8,1.4-5.4-0.4c-1.6-1.9-1.2-3.9,0.6-5.3c3.5-2.9,7.2-5.5,10.7-8.4c3.1-2.6,6-5.3,8.8-8.2c2-2.1,4.1-3.7,7.2-3.7
					C605.2,826.8,606.9,828.4,606.8,831.5z"/>
				<path d="M564.2,863.9c-0.5,0.5-1.4,1.9-2.6,2.4c-5.4,2.1-10.8,3.9-16.2,5.7c-4.1,1.3-8.3,2.5-12.4,3.6c-2.3,0.6-4.3,0-5.1-2.5
					c-0.7-2,0.5-4,3-4.8c9.1-3.1,18.1-6.2,27.2-9.3C561.3,858,564.3,859.9,564.2,863.9z"/>
				<path d="M504.1,872.1c2,0.8,4.1,1.3,6,2.4c1.7,1,1.8,2.9,0.9,4.6c-1,1.8-2.5,2.1-4.4,1.8c-1.8-0.3-3.8-0.5-5.6-0.3
					c-7.3,0.7-14.5,1.6-21.8,2.4c-0.8,0.1-1.7,0.1-2.6-0.1c-2-0.4-3.1-1.7-3-3.7c0.1-1.9,1.1-3.4,3.1-3.6c9.1-1,18.2-1.9,27.3-2.9
					C504,872.5,504,872.3,504.1,872.1z"/>
			</g>
		</g>
	</g>
</g>
</svg>
