<?xml version="1.0" encoding="utf-8"?>
<!-- Generator: Adobe Illustrator 25.4.1, SVG Export Plug-In . SVG Version: 6.00 Build 0)  -->
<svg version="1.1" id="Capa_1" xmlns="http://www.w3.org/2000/svg" xmlns:xlink="http://www.w3.org/1999/xlink" x="0px" y="0px"
	 viewBox="0 0 16 16" style="enable-background:new 0 0 16 16;" xml:space="preserve">
<style type="text/css">
	.st0{fill:none;stroke:#BF2C23;stroke-width:0.25;stroke-miterlimit:10;}
	.st1{fill:#FFFFFF;}
	.st2{fill:#2C3C7E;stroke:#2C3C7E;stroke-width:0.75;stroke-miterlimit:10;}
	.st3{fill:#48B7B7;}
	.st4{fill:#002828;}
</style>
<path class="st0" d="M22.8,14.9"/>
<path class="st0" d="M22.8,14.9"/>
<path class="st1" d="M12.4,14.5H3.6c-1.2,0-2.1-0.9-2.1-2.1V3.6c0-1.2,0.9-2.1,2.1-2.1h8.8c1.2,0,2.1,0.9,2.1,2.1v8.8
	C14.5,13.6,13.6,14.5,12.4,14.5z"/>
<path class="st1" d="M3.6,16c-2,0-3.6-1.6-3.6-3.6V3.6C0,1.6,1.6,0,3.6,0h8.7c2,0,3.6,1.6,3.6,3.6v8.7c0,2-1.6,3.6-3.6,3.6H3.6z"/>
<path class="st2" d="M12.4,15H3.6C2.2,15,1,13.8,1,12.4V3.6C1,2.2,2.2,1,3.6,1h8.7C13.8,1,15,2.2,15,3.6v8.7
	C15,13.8,13.8,15,12.4,15z M3.6,2C2.7,2,2,2.7,2,3.6v8.7C2,13.3,2.7,14,3.6,14h8.7c0.9,0,1.6-0.7,1.6-1.6V3.6C14,2.7,13.3,2,12.4,2
	H3.6z"/>
<path class="st3" d="M12.4,5.2L12,4.7c-0.2-0.2-0.5-0.2-0.7,0L7.2,9C7.1,9.1,6.8,9.1,6.5,9L4.8,7.2C4.7,7,4.3,7,4.1,7.2L3.6,7.7
	c-0.2,0.2-0.2,0.5,0,0.7l2.9,2.9c0.2,0.2,0.5,0.2,0.7,0L8,10.5l0,0l4.4-4.5C12.6,5.8,12.6,5.5,12.4,5.2z"/>
<path class="st4" d="M20.2,9.5"/>
</svg>
