<?xml version="1.0" encoding="utf-8"?>
<!-- Generator: Adobe Illustrator 28.0.0, SVG Export Plug-In . SVG Version: 6.00 Build 0)  -->
<svg version="1.1" id="Layer_1" xmlns="http://www.w3.org/2000/svg" xmlns:xlink="http://www.w3.org/1999/xlink" x="0px" y="0px"
	 viewBox="0 0 126 126" style="enable-background:new 0 0 126 126;" xml:space="preserve">
<style type="text/css">
	.st0{fill:#FFFFFF;}
</style>
<circle cx="62.5" cy="63" r="63"/>
<g>
	<path class="st0" d="M17.8,84.3L27,42.2h11.9L48,84.3H38l-1.4-8.2h-7.7l-1.2,8.2H17.8z M32.9,49.8h-0.1l-2.9,18.8h5.7L32.9,49.8z"
		/>
	<path class="st0" d="M50.8,42.2h9.9v31.7c0,2,0.6,3.8,3.4,3.8c2.6,0,3.4-2.2,3.4-4V42.2h9.9v30.5c0,7.1-3.2,12.6-13.3,12.6
		c-8.4,0-13.2-4-13.2-12.6V42.2z"/>
	<path class="st0" d="M89.7,70.2v3c0,2.4,0.8,4.5,3.9,4.5c2.3,0,3.3-2.1,3.3-4.2c0-3.5-2.9-4.9-5.5-6.4c-3-1.7-5.6-3.4-7.5-5.5
		c-1.8-2.1-2.9-4.7-2.9-8.4c0-7.9,4.8-11.9,12.4-11.9c8.6,0,13,5.7,12.5,13.6h-9.1c-0.1-2.5,0-5.8-3.3-6.1c-2-0.2-3.2,1-3.4,2.8
		c-0.3,2.5,1,3.8,3,5.2c3.7,2.4,6.9,3.8,9.2,5.9c2.3,2.1,3.6,4.9,3.6,10c0,8.1-4.5,12.6-12.7,12.6c-9,0-12.8-5-12.8-10.6v-4.5H89.7z
		"/>
</g>
</svg>
