<?xml version="1.0" encoding="utf-8"?>
<!-- Generator: Adobe Illustrator 28.0.0, SVG Export Plug-In . SVG Version: 6.00 Build 0)  -->
<svg version="1.1" id="Layer_1" xmlns="http://www.w3.org/2000/svg" xmlns:xlink="http://www.w3.org/1999/xlink" x="0px" y="0px"
	 viewBox="0 0 38.65 38.74" style="enable-background:new 0 0 38.65 38.74;" xml:space="preserve">
<style type="text/css">
	.st0{fill:#FFFFFF;stroke:#020202;stroke-miterlimit:10;}
	.st1{fill:#007F51;}
	.st2{fill:#AAAAAA;}
	.st3{font-family:'Consolas-Bold';}
	.st4{font-size:3.5982px;}
</style>
<rect x="1.92" y="2.14" width="36.68" height="36.68"/>
<rect x="1.06" y="1.07" class="st0" width="34.68" height="34.89"/>
<g>
	<path class="st1" d="M47.89,17.54v-2.38c0-0.09,0-0.16-0.01-0.23c0-0.07-0.01-0.12-0.03-0.16s-0.03-0.08-0.06-0.1
		c-0.03-0.02-0.06-0.03-0.11-0.03c-0.07,0-0.14,0.05-0.21,0.14c-0.07,0.1-0.15,0.26-0.23,0.49v2.27h-0.72v-2.38
		c0-0.09,0-0.16-0.01-0.23s-0.01-0.12-0.03-0.16s-0.03-0.08-0.06-0.1s-0.06-0.03-0.11-0.03c-0.06,0-0.13,0.05-0.2,0.14
		c-0.07,0.1-0.15,0.26-0.24,0.49v2.27h-0.73v-3.5h0.62l0.01,0.51c0.05-0.1,0.1-0.19,0.15-0.26s0.1-0.13,0.16-0.18
		c0.06-0.05,0.12-0.08,0.18-0.1c0.07-0.02,0.14-0.03,0.22-0.03c0.19,0,0.34,0.05,0.45,0.15c0.1,0.1,0.16,0.24,0.17,0.42
		c0.06-0.1,0.11-0.19,0.16-0.26s0.11-0.13,0.17-0.18s0.12-0.08,0.19-0.1c0.07-0.02,0.14-0.03,0.23-0.03c0.25,0,0.44,0.09,0.56,0.27
		c0.12,0.18,0.18,0.44,0.18,0.79v2.51H47.89z"/>
	<path class="st1" d="M51.77,17.54v-2.38c0-0.09,0-0.16-0.01-0.23c0-0.07-0.01-0.12-0.03-0.16s-0.03-0.08-0.06-0.1
		c-0.03-0.02-0.06-0.03-0.11-0.03c-0.07,0-0.14,0.05-0.21,0.14c-0.07,0.1-0.15,0.26-0.23,0.49v2.27H50.4v-2.38
		c0-0.09,0-0.16-0.01-0.23s-0.01-0.12-0.03-0.16s-0.03-0.08-0.06-0.1s-0.06-0.03-0.11-0.03c-0.06,0-0.13,0.05-0.2,0.14
		c-0.07,0.1-0.15,0.26-0.24,0.49v2.27h-0.73v-3.5h0.62l0.01,0.51c0.05-0.1,0.1-0.19,0.15-0.26s0.1-0.13,0.16-0.18
		c0.06-0.05,0.12-0.08,0.18-0.1c0.07-0.02,0.14-0.03,0.22-0.03c0.19,0,0.34,0.05,0.45,0.15c0.1,0.1,0.16,0.24,0.17,0.42
		c0.06-0.1,0.11-0.19,0.16-0.26s0.11-0.13,0.17-0.18s0.12-0.08,0.19-0.1c0.07-0.02,0.14-0.03,0.23-0.03c0.25,0,0.44,0.09,0.56,0.27
		c0.12,0.18,0.18,0.44,0.18,0.79v2.51H51.77z"/>
	<path d="M55.8,14.66c0.06,0.08,0.11,0.16,0.14,0.25c0.03,0.09,0.04,0.18,0.04,0.27c0,0.19-0.03,0.37-0.1,0.52s-0.16,0.27-0.29,0.37
		s-0.27,0.18-0.44,0.23s-0.36,0.08-0.57,0.08c-0.12,0-0.23-0.01-0.34-0.04c-0.1-0.02-0.18-0.05-0.23-0.08
		c-0.04,0.04-0.07,0.08-0.1,0.13c-0.03,0.05-0.04,0.1-0.04,0.16c0,0.04,0.01,0.07,0.03,0.11c0.02,0.04,0.05,0.07,0.08,0.1
		c0.04,0.03,0.08,0.05,0.13,0.07c0.05,0.02,0.1,0.03,0.17,0.03l0.83,0.03c0.19,0,0.35,0.03,0.5,0.07c0.15,0.04,0.28,0.1,0.39,0.18
		c0.11,0.08,0.19,0.17,0.25,0.28c0.06,0.11,0.09,0.24,0.09,0.38c0,0.16-0.04,0.32-0.11,0.46c-0.07,0.14-0.18,0.27-0.33,0.38
		c-0.15,0.11-0.33,0.19-0.55,0.25c-0.22,0.06-0.48,0.09-0.77,0.09c-0.28,0-0.52-0.02-0.73-0.07c-0.2-0.04-0.37-0.11-0.5-0.19
		c-0.13-0.08-0.23-0.18-0.29-0.29c-0.06-0.11-0.09-0.23-0.09-0.37c0-0.08,0.01-0.15,0.03-0.22s0.05-0.13,0.09-0.2
		s0.09-0.12,0.15-0.18c0.06-0.06,0.14-0.12,0.22-0.18c-0.11-0.06-0.2-0.15-0.26-0.25s-0.09-0.21-0.09-0.32
		c0-0.08,0.01-0.15,0.03-0.22c0.02-0.07,0.05-0.13,0.08-0.19c0.03-0.06,0.07-0.12,0.12-0.18c0.04-0.06,0.09-0.11,0.14-0.17
		c-0.08-0.08-0.16-0.19-0.21-0.31s-0.08-0.27-0.08-0.45c0-0.19,0.03-0.37,0.1-0.52c0.07-0.15,0.17-0.28,0.29-0.39
		s0.27-0.18,0.44-0.24s0.36-0.08,0.56-0.08c0.1,0,0.2,0.01,0.3,0.02s0.18,0.03,0.26,0.05h1.21v0.61H55.8z M53.82,18
		c0,0.14,0.07,0.24,0.2,0.3c0.14,0.06,0.33,0.1,0.58,0.1c0.16,0,0.29-0.01,0.4-0.04c0.11-0.03,0.2-0.07,0.27-0.12
		c0.07-0.05,0.12-0.1,0.15-0.17c0.03-0.06,0.04-0.13,0.04-0.2c0-0.06-0.01-0.11-0.04-0.16c-0.03-0.04-0.07-0.08-0.12-0.11
		c-0.05-0.03-0.11-0.05-0.18-0.07c-0.07-0.01-0.15-0.02-0.23-0.03l-0.74-0.01c-0.07,0.05-0.12,0.09-0.16,0.13
		c-0.04,0.04-0.08,0.08-0.1,0.12c-0.02,0.04-0.04,0.08-0.05,0.12C53.82,17.91,53.82,17.96,53.82,18z M53.96,15.2
		c0,0.19,0.05,0.33,0.16,0.44s0.26,0.16,0.46,0.16c0.1,0,0.19-0.02,0.27-0.05c0.08-0.03,0.14-0.08,0.19-0.14s0.09-0.12,0.11-0.2
		s0.04-0.15,0.04-0.24c0-0.19-0.05-0.35-0.16-0.46c-0.11-0.11-0.26-0.16-0.46-0.16c-0.1,0-0.19,0.02-0.27,0.05s-0.14,0.08-0.19,0.14
		c-0.05,0.06-0.09,0.13-0.11,0.2S53.96,15.11,53.96,15.2z"/>
	<path d="M60.2,15.76c0,0.28-0.04,0.53-0.12,0.76s-0.19,0.42-0.34,0.59c-0.15,0.16-0.33,0.29-0.54,0.38s-0.46,0.13-0.73,0.13
		c-0.26,0-0.49-0.04-0.69-0.11c-0.2-0.08-0.38-0.19-0.52-0.34s-0.25-0.34-0.33-0.56c-0.08-0.23-0.11-0.49-0.11-0.79
		c0-0.28,0.04-0.53,0.12-0.76c0.08-0.23,0.19-0.42,0.34-0.58s0.33-0.28,0.54-0.37s0.45-0.13,0.72-0.13c0.26,0,0.49,0.04,0.7,0.12
		c0.2,0.08,0.38,0.19,0.52,0.34c0.14,0.15,0.25,0.34,0.33,0.56C60.16,15.21,60.2,15.47,60.2,15.76z M59.32,15.78
		c0-0.36-0.07-0.63-0.2-0.82c-0.14-0.18-0.34-0.27-0.6-0.27c-0.15,0-0.27,0.03-0.37,0.09c-0.1,0.06-0.19,0.14-0.25,0.24
		c-0.07,0.1-0.12,0.22-0.15,0.35s-0.05,0.28-0.05,0.43c0,0.36,0.07,0.64,0.22,0.82c0.15,0.18,0.35,0.28,0.6,0.28
		c0.14,0,0.26-0.03,0.36-0.08c0.1-0.06,0.19-0.13,0.25-0.23c0.06-0.1,0.11-0.22,0.14-0.35C59.31,16.08,59.32,15.94,59.32,15.78z"/>
	<path d="M63.01,17.54v-2.28c0-0.38-0.14-0.57-0.43-0.57c-0.14,0-0.28,0.06-0.41,0.17c-0.13,0.11-0.27,0.27-0.41,0.47v2.21h-0.84
		v-3.5h0.73l0.02,0.52c0.07-0.09,0.15-0.17,0.22-0.24c0.08-0.07,0.16-0.14,0.25-0.19c0.09-0.05,0.19-0.09,0.29-0.12
		s0.22-0.04,0.35-0.04c0.18,0,0.33,0.03,0.47,0.09c0.13,0.06,0.24,0.14,0.33,0.25s0.16,0.24,0.2,0.39c0.04,0.15,0.07,0.32,0.07,0.5
		v2.35H63.01z"/>
	<path d="M66.88,17.54v-2.28c0-0.38-0.14-0.57-0.43-0.57c-0.14,0-0.28,0.06-0.41,0.17c-0.13,0.11-0.27,0.27-0.41,0.47v2.21H64.8
		v-3.5h0.73l0.02,0.52c0.07-0.09,0.15-0.17,0.22-0.24c0.08-0.07,0.16-0.14,0.25-0.19c0.09-0.05,0.19-0.09,0.29-0.12
		c0.1-0.03,0.22-0.04,0.35-0.04c0.18,0,0.33,0.03,0.47,0.09c0.13,0.06,0.24,0.14,0.33,0.25s0.16,0.24,0.2,0.39
		c0.04,0.15,0.07,0.32,0.07,0.5v2.35H66.88z"/>
	<path d="M70.86,17.54l-0.02-0.46c-0.07,0.08-0.15,0.15-0.23,0.22c-0.08,0.07-0.17,0.12-0.26,0.17c-0.1,0.05-0.2,0.09-0.31,0.11
		c-0.11,0.03-0.24,0.04-0.37,0.04c-0.18,0-0.34-0.03-0.47-0.08c-0.14-0.05-0.25-0.13-0.34-0.22c-0.09-0.09-0.16-0.21-0.21-0.34
		s-0.07-0.28-0.07-0.44c0-0.17,0.03-0.32,0.1-0.46c0.07-0.14,0.18-0.26,0.32-0.36c0.14-0.1,0.32-0.18,0.54-0.24
		c0.21-0.06,0.47-0.09,0.75-0.09h0.46v-0.21c0-0.09-0.01-0.17-0.04-0.24c-0.03-0.07-0.07-0.13-0.12-0.18
		c-0.06-0.05-0.13-0.09-0.22-0.12s-0.2-0.04-0.33-0.04c-0.21,0-0.41,0.02-0.61,0.07c-0.2,0.05-0.4,0.11-0.58,0.2V14.2
		c0.17-0.07,0.36-0.12,0.58-0.17c0.22-0.04,0.45-0.07,0.68-0.07c0.26,0,0.48,0.02,0.67,0.07c0.19,0.05,0.34,0.12,0.46,0.22
		c0.12,0.1,0.21,0.22,0.27,0.37c0.06,0.15,0.09,0.32,0.09,0.52v2.39H70.86z M70.74,15.99h-0.51c-0.14,0-0.26,0.01-0.36,0.04
		c-0.1,0.03-0.18,0.07-0.24,0.11c-0.06,0.05-0.11,0.1-0.14,0.17s-0.04,0.13-0.04,0.2c0,0.14,0.05,0.25,0.14,0.33
		c0.09,0.07,0.22,0.11,0.37,0.11c0.12,0,0.24-0.04,0.36-0.13c0.13-0.08,0.26-0.21,0.42-0.36V15.99z"/>
	<path d="M74.79,15.4c0-0.13,0-0.24-0.02-0.33c-0.02-0.09-0.04-0.17-0.08-0.23s-0.08-0.1-0.14-0.13s-0.12-0.04-0.19-0.04
		c-0.12,0-0.25,0.05-0.38,0.15c-0.13,0.1-0.28,0.27-0.44,0.5v2.21h-0.86v-3.5h0.76l0.03,0.51c0.06-0.09,0.12-0.17,0.19-0.24
		c0.07-0.07,0.15-0.13,0.24-0.18c0.09-0.05,0.19-0.09,0.29-0.12c0.11-0.03,0.23-0.04,0.35-0.04c0.18,0,0.33,0.03,0.47,0.09
		c0.14,0.06,0.25,0.15,0.34,0.27s0.16,0.27,0.21,0.45c0.04,0.18,0.06,0.39,0.06,0.62H74.79z"/>
</g>
<g>
	<g>
		<path class="st1" d="M48.33,29.68v-2.4c0-0.09,0-0.16-0.01-0.23c0-0.07-0.01-0.12-0.03-0.16c-0.01-0.04-0.03-0.08-0.06-0.1
			c-0.03-0.02-0.06-0.03-0.11-0.03c-0.07,0-0.14,0.05-0.21,0.15s-0.15,0.26-0.24,0.5v2.28h-0.72v-2.4c0-0.09,0-0.16-0.01-0.23
			c0-0.07-0.01-0.12-0.03-0.16c-0.01-0.04-0.03-0.08-0.06-0.1s-0.06-0.03-0.11-0.03c-0.06,0-0.13,0.05-0.2,0.15s-0.16,0.26-0.25,0.5
			v2.28h-0.73v-3.52h0.63l0.01,0.51c0.05-0.1,0.1-0.19,0.15-0.27c0.05-0.07,0.11-0.13,0.16-0.18s0.12-0.08,0.19-0.1
			c0.07-0.02,0.14-0.03,0.22-0.03c0.2,0,0.35,0.05,0.45,0.15c0.1,0.1,0.16,0.25,0.17,0.43c0.06-0.1,0.11-0.19,0.16-0.27
			c0.05-0.07,0.11-0.13,0.17-0.18s0.12-0.08,0.19-0.1c0.07-0.02,0.14-0.03,0.23-0.03c0.26,0,0.45,0.09,0.57,0.27s0.18,0.44,0.18,0.8
			v2.53H48.33z"/>
		<path class="st1" d="M52.23,29.68v-2.4c0-0.09,0-0.16-0.01-0.23c0-0.07-0.01-0.12-0.03-0.16c-0.01-0.04-0.03-0.08-0.06-0.1
			s-0.06-0.03-0.11-0.03c-0.07,0-0.14,0.05-0.21,0.15c-0.07,0.1-0.15,0.26-0.24,0.5v2.28h-0.72v-2.4c0-0.09,0-0.16-0.01-0.23
			c0-0.07-0.01-0.12-0.03-0.16c-0.01-0.04-0.03-0.08-0.06-0.1c-0.03-0.02-0.06-0.03-0.11-0.03c-0.06,0-0.13,0.05-0.2,0.15
			c-0.07,0.1-0.16,0.26-0.25,0.5v2.28h-0.73v-3.52h0.63l0.01,0.51c0.05-0.1,0.1-0.19,0.15-0.27c0.05-0.07,0.11-0.13,0.16-0.18
			c0.06-0.05,0.12-0.08,0.19-0.1c0.07-0.02,0.14-0.03,0.22-0.03c0.2,0,0.35,0.05,0.45,0.15c0.1,0.1,0.16,0.25,0.17,0.43
			c0.06-0.1,0.11-0.19,0.16-0.27c0.05-0.07,0.11-0.13,0.17-0.18c0.06-0.05,0.12-0.08,0.19-0.1c0.07-0.02,0.14-0.03,0.23-0.03
			c0.26,0,0.45,0.09,0.57,0.27c0.12,0.18,0.18,0.44,0.18,0.8v2.53H52.23z"/>
		<path d="M56.29,26.78c0.06,0.08,0.11,0.17,0.14,0.25s0.04,0.18,0.04,0.27c0,0.2-0.03,0.37-0.1,0.52
			c-0.07,0.15-0.16,0.28-0.29,0.38c-0.12,0.1-0.27,0.18-0.44,0.23s-0.36,0.08-0.57,0.08c-0.12,0-0.24-0.01-0.34-0.04
			s-0.18-0.05-0.24-0.08c-0.04,0.04-0.07,0.08-0.1,0.13s-0.04,0.1-0.04,0.16c0,0.04,0.01,0.07,0.03,0.11s0.05,0.07,0.08,0.1
			c0.04,0.03,0.08,0.05,0.13,0.07c0.05,0.02,0.11,0.03,0.17,0.03l0.83,0.03c0.19,0,0.36,0.03,0.51,0.07s0.28,0.1,0.39,0.18
			c0.11,0.08,0.19,0.17,0.25,0.29c0.06,0.11,0.09,0.24,0.09,0.38c0,0.16-0.04,0.32-0.11,0.46c-0.07,0.15-0.19,0.27-0.33,0.38
			c-0.15,0.11-0.33,0.19-0.56,0.25c-0.22,0.06-0.48,0.09-0.77,0.09c-0.28,0-0.53-0.02-0.73-0.07s-0.37-0.11-0.5-0.19
			c-0.13-0.08-0.23-0.18-0.29-0.29c-0.06-0.11-0.09-0.24-0.09-0.37c0-0.08,0.01-0.16,0.03-0.23c0.02-0.07,0.05-0.14,0.09-0.2
			c0.04-0.06,0.09-0.13,0.16-0.19c0.06-0.06,0.14-0.12,0.22-0.18c-0.11-0.06-0.2-0.15-0.26-0.25c-0.06-0.1-0.09-0.21-0.09-0.33
			c0-0.08,0.01-0.15,0.03-0.22c0.02-0.07,0.05-0.13,0.08-0.2s0.07-0.12,0.12-0.18c0.04-0.06,0.09-0.11,0.14-0.17
			c-0.09-0.09-0.16-0.19-0.21-0.31s-0.08-0.27-0.08-0.46c0-0.2,0.04-0.37,0.11-0.52c0.07-0.15,0.17-0.28,0.29-0.39
			s0.27-0.18,0.45-0.24c0.17-0.05,0.36-0.08,0.56-0.08c0.1,0,0.2,0.01,0.3,0.02c0.1,0.01,0.18,0.03,0.26,0.05h1.22v0.62H56.29z
			 M54.3,30.15c0,0.14,0.07,0.24,0.21,0.3c0.14,0.06,0.33,0.1,0.58,0.1c0.16,0,0.29-0.02,0.4-0.05c0.11-0.03,0.2-0.07,0.27-0.12
			c0.07-0.05,0.12-0.11,0.15-0.17c0.03-0.06,0.05-0.13,0.05-0.2c0-0.06-0.01-0.11-0.04-0.16c-0.03-0.04-0.07-0.08-0.12-0.11
			c-0.05-0.03-0.11-0.05-0.18-0.07c-0.07-0.02-0.15-0.02-0.23-0.03l-0.74-0.01c-0.07,0.05-0.12,0.09-0.16,0.13s-0.08,0.08-0.1,0.12
			c-0.02,0.04-0.04,0.08-0.05,0.12C54.3,30.06,54.3,30.1,54.3,30.15z M54.44,27.32c0,0.19,0.05,0.34,0.16,0.45
			c0.11,0.11,0.26,0.16,0.46,0.16c0.1,0,0.19-0.02,0.27-0.05s0.14-0.08,0.19-0.14s0.09-0.12,0.11-0.2c0.03-0.08,0.04-0.16,0.04-0.24
			c0-0.2-0.05-0.35-0.16-0.46c-0.11-0.11-0.26-0.16-0.46-0.16c-0.1,0-0.19,0.02-0.27,0.05s-0.14,0.08-0.19,0.14
			c-0.05,0.06-0.09,0.13-0.11,0.21C54.45,27.16,54.44,27.24,54.44,27.32z"/>
		<path d="M60.72,27.89c0,0.28-0.04,0.53-0.12,0.76c-0.08,0.23-0.19,0.43-0.34,0.59s-0.33,0.29-0.54,0.38
			c-0.21,0.09-0.46,0.14-0.73,0.14c-0.26,0-0.49-0.04-0.7-0.11c-0.21-0.08-0.38-0.19-0.52-0.34s-0.25-0.34-0.33-0.57
			c-0.08-0.23-0.11-0.49-0.11-0.8c0-0.28,0.04-0.53,0.12-0.76c0.08-0.23,0.19-0.42,0.34-0.59c0.15-0.16,0.33-0.29,0.55-0.38
			c0.21-0.09,0.46-0.13,0.73-0.13c0.26,0,0.5,0.04,0.7,0.12s0.38,0.19,0.52,0.34c0.14,0.15,0.25,0.34,0.33,0.57
			C60.68,27.34,60.72,27.6,60.72,27.89z M59.84,27.91c0-0.36-0.07-0.64-0.21-0.82c-0.14-0.18-0.34-0.28-0.61-0.28
			c-0.15,0-0.27,0.03-0.38,0.09s-0.19,0.14-0.26,0.24c-0.07,0.1-0.12,0.22-0.15,0.35s-0.05,0.28-0.05,0.43
			c0,0.37,0.07,0.64,0.22,0.83c0.15,0.19,0.35,0.28,0.61,0.28c0.14,0,0.26-0.03,0.37-0.08s0.19-0.14,0.25-0.24
			c0.06-0.1,0.11-0.22,0.15-0.36C59.83,28.22,59.84,28.07,59.84,27.91z"/>
		<path d="M63.55,29.68v-2.29c0-0.39-0.14-0.58-0.43-0.58c-0.14,0-0.28,0.06-0.41,0.17c-0.13,0.12-0.27,0.27-0.41,0.47v2.23h-0.85
			v-3.52h0.73l0.02,0.52c0.07-0.09,0.15-0.17,0.22-0.25c0.08-0.07,0.16-0.14,0.25-0.19c0.09-0.05,0.19-0.09,0.29-0.12
			c0.1-0.03,0.22-0.04,0.35-0.04c0.18,0,0.34,0.03,0.47,0.09s0.25,0.14,0.34,0.25c0.09,0.11,0.16,0.24,0.2,0.39
			c0.05,0.15,0.07,0.32,0.07,0.51v2.36H63.55z"/>
		<path d="M67.45,29.68v-2.29c0-0.39-0.14-0.58-0.43-0.58c-0.14,0-0.28,0.06-0.41,0.17c-0.13,0.12-0.27,0.27-0.41,0.47v2.23h-0.85
			v-3.52h0.73l0.02,0.52c0.07-0.09,0.15-0.17,0.22-0.25c0.08-0.07,0.16-0.14,0.25-0.19c0.09-0.05,0.19-0.09,0.29-0.12
			c0.1-0.03,0.22-0.04,0.35-0.04c0.18,0,0.34,0.03,0.47,0.09c0.13,0.06,0.25,0.14,0.34,0.25c0.09,0.11,0.16,0.24,0.2,0.39
			c0.05,0.15,0.07,0.32,0.07,0.51v2.36H67.45z"/>
		<path d="M71.46,29.68l-0.02-0.46c-0.07,0.08-0.15,0.15-0.23,0.22c-0.08,0.07-0.17,0.12-0.27,0.17c-0.1,0.05-0.2,0.09-0.32,0.11
			c-0.11,0.03-0.24,0.04-0.38,0.04c-0.18,0-0.34-0.03-0.47-0.08c-0.14-0.05-0.25-0.13-0.34-0.22s-0.16-0.21-0.21-0.34
			s-0.07-0.28-0.07-0.44c0-0.17,0.04-0.32,0.11-0.46c0.07-0.14,0.18-0.26,0.32-0.36c0.14-0.1,0.32-0.18,0.54-0.24
			c0.22-0.06,0.47-0.09,0.76-0.09h0.46v-0.21c0-0.09-0.01-0.17-0.04-0.24c-0.03-0.07-0.07-0.13-0.12-0.19
			c-0.06-0.05-0.13-0.09-0.22-0.12c-0.09-0.03-0.2-0.04-0.33-0.04c-0.21,0-0.41,0.02-0.61,0.07c-0.2,0.05-0.4,0.11-0.59,0.2v-0.68
			c0.17-0.07,0.36-0.12,0.58-0.17c0.22-0.04,0.45-0.07,0.69-0.07c0.26,0,0.49,0.02,0.67,0.07c0.19,0.05,0.34,0.12,0.46,0.22
			c0.12,0.1,0.21,0.22,0.27,0.37c0.06,0.15,0.09,0.32,0.09,0.52v2.4H71.46z M71.34,28.12h-0.52c-0.14,0-0.26,0.01-0.36,0.04
			c-0.1,0.03-0.18,0.07-0.24,0.11c-0.06,0.05-0.11,0.1-0.14,0.17c-0.03,0.06-0.04,0.13-0.04,0.2c0,0.14,0.05,0.25,0.14,0.33
			c0.09,0.08,0.22,0.11,0.38,0.11c0.12,0,0.24-0.04,0.37-0.13c0.13-0.09,0.27-0.21,0.42-0.37V28.12z"/>
		<path d="M75.42,27.53c0-0.13,0-0.24-0.02-0.34c-0.02-0.09-0.05-0.17-0.08-0.23s-0.08-0.1-0.14-0.13s-0.12-0.04-0.19-0.04
			c-0.12,0-0.25,0.05-0.39,0.15c-0.13,0.1-0.28,0.27-0.44,0.51v2.23H73.3v-3.52h0.77l0.03,0.51c0.06-0.09,0.12-0.17,0.2-0.24
			s0.15-0.13,0.24-0.19c0.09-0.05,0.19-0.09,0.3-0.12c0.11-0.03,0.23-0.04,0.36-0.04c0.18,0,0.34,0.03,0.47,0.09
			c0.14,0.06,0.25,0.15,0.35,0.27c0.09,0.12,0.16,0.27,0.21,0.45c0.05,0.18,0.06,0.39,0.06,0.63H75.42z"/>
	</g>
</g>
<g>
	<path class="st1" d="M52.65,1.53v-2.98c0-0.11,0-0.2-0.01-0.29c-0.01-0.08-0.02-0.15-0.03-0.2c-0.02-0.05-0.04-0.1-0.08-0.12
		c-0.03-0.03-0.08-0.04-0.14-0.04c-0.09,0-0.18,0.06-0.26,0.18c-0.09,0.12-0.18,0.33-0.29,0.62v2.84h-0.9v-2.98
		c0-0.11,0-0.2-0.01-0.29c-0.01-0.08-0.02-0.15-0.03-0.2c-0.02-0.05-0.04-0.1-0.08-0.12c-0.03-0.03-0.08-0.04-0.14-0.04
		c-0.07,0-0.16,0.06-0.25,0.18c-0.09,0.12-0.19,0.33-0.31,0.62v2.84h-0.91v-4.37H50l0.02,0.64c0.06-0.13,0.13-0.24,0.19-0.33
		s0.13-0.17,0.2-0.23c0.07-0.06,0.15-0.1,0.23-0.13c0.08-0.03,0.17-0.04,0.28-0.04c0.24,0,0.43,0.06,0.56,0.19s0.2,0.3,0.22,0.53
		c0.07-0.13,0.14-0.24,0.2-0.33s0.14-0.17,0.21-0.23c0.07-0.06,0.15-0.1,0.24-0.13c0.08-0.03,0.18-0.04,0.28-0.04
		c0.32,0,0.55,0.11,0.71,0.33c0.15,0.22,0.23,0.55,0.23,0.99v3.14H52.65z"/>
	<path class="st1" d="M57.5,1.53v-2.98c0-0.11,0-0.2-0.01-0.29c-0.01-0.08-0.02-0.15-0.03-0.2c-0.02-0.05-0.04-0.1-0.08-0.12
		c-0.03-0.03-0.08-0.04-0.14-0.04c-0.09,0-0.18,0.06-0.26,0.18C56.89-1.8,56.8-1.6,56.69-1.31v2.84h-0.9v-2.98
		c0-0.11,0-0.2-0.01-0.29c-0.01-0.08-0.02-0.15-0.03-0.2C55.73-2,55.7-2.04,55.67-2.06c-0.03-0.03-0.08-0.04-0.14-0.04
		c-0.07,0-0.16,0.06-0.25,0.18c-0.09,0.12-0.19,0.33-0.31,0.62v2.84h-0.91v-4.37h0.78l0.02,0.64c0.06-0.13,0.13-0.24,0.19-0.33
		s0.13-0.17,0.2-0.23c0.07-0.06,0.15-0.1,0.23-0.13c0.08-0.03,0.17-0.04,0.28-0.04c0.24,0,0.43,0.06,0.56,0.19s0.2,0.3,0.22,0.53
		c0.07-0.13,0.14-0.24,0.2-0.33s0.14-0.17,0.21-0.23c0.07-0.06,0.15-0.1,0.24-0.13c0.08-0.03,0.18-0.04,0.28-0.04
		c0.32,0,0.55,0.11,0.71,0.33c0.15,0.22,0.23,0.55,0.23,0.99v3.14H57.5z"/>
	<path d="M52.17,2.91c0.08,0.1,0.14,0.21,0.17,0.32c0.03,0.11,0.05,0.22,0.05,0.34c0,0.24-0.04,0.46-0.13,0.65
		c-0.08,0.19-0.2,0.34-0.36,0.47c-0.15,0.13-0.34,0.22-0.55,0.29c-0.21,0.06-0.45,0.1-0.71,0.1c-0.15,0-0.29-0.02-0.42-0.05
		S50,4.95,49.93,4.91c-0.05,0.05-0.09,0.1-0.12,0.16c-0.03,0.06-0.05,0.13-0.05,0.2c0,0.05,0.01,0.09,0.03,0.14
		c0.02,0.05,0.06,0.09,0.1,0.12c0.04,0.04,0.1,0.07,0.16,0.09c0.06,0.02,0.13,0.04,0.21,0.04L51.3,5.7
		c0.23,0.01,0.44,0.04,0.63,0.09c0.19,0.05,0.35,0.13,0.48,0.23c0.13,0.1,0.24,0.22,0.31,0.36c0.07,0.14,0.11,0.3,0.11,0.48
		c0,0.2-0.05,0.4-0.14,0.58c-0.09,0.18-0.23,0.34-0.42,0.47c-0.19,0.13-0.42,0.24-0.69,0.32c-0.28,0.08-0.6,0.12-0.96,0.12
		c-0.35,0-0.66-0.03-0.91-0.08c-0.25-0.06-0.46-0.13-0.62-0.23c-0.16-0.1-0.28-0.22-0.36-0.36c-0.08-0.14-0.12-0.29-0.12-0.46
		c0-0.1,0.01-0.19,0.04-0.28s0.06-0.17,0.12-0.25c0.05-0.08,0.12-0.16,0.19-0.23c0.08-0.07,0.17-0.15,0.28-0.22
		C49.1,6.13,49,6.03,48.92,5.9c-0.07-0.13-0.11-0.26-0.11-0.4c0-0.1,0.01-0.19,0.04-0.27c0.03-0.08,0.06-0.17,0.1-0.24
		s0.09-0.15,0.14-0.22c0.05-0.07,0.11-0.14,0.17-0.21c-0.11-0.11-0.19-0.23-0.26-0.39S48.9,3.82,48.9,3.59
		c0-0.24,0.04-0.46,0.13-0.65c0.09-0.19,0.21-0.35,0.36-0.48c0.15-0.13,0.34-0.23,0.55-0.3s0.45-0.1,0.7-0.1
		c0.13,0,0.25,0.01,0.37,0.02c0.12,0.01,0.23,0.04,0.32,0.07h1.52v0.77H52.17z M49.7,7.1c0,0.17,0.09,0.29,0.26,0.37
		c0.17,0.08,0.41,0.12,0.72,0.12c0.2,0,0.37-0.02,0.5-0.06s0.25-0.09,0.33-0.15c0.09-0.06,0.15-0.13,0.19-0.21
		c0.04-0.08,0.06-0.16,0.06-0.25c0-0.08-0.02-0.14-0.05-0.2s-0.09-0.1-0.15-0.13c-0.06-0.04-0.14-0.06-0.23-0.08
		c-0.09-0.02-0.18-0.03-0.29-0.04L50.1,6.47c-0.08,0.06-0.15,0.11-0.2,0.16c-0.05,0.05-0.09,0.1-0.12,0.15
		c-0.03,0.05-0.05,0.1-0.06,0.15C49.7,6.99,49.7,7.04,49.7,7.1z M49.87,3.59c0,0.23,0.07,0.42,0.2,0.55c0.14,0.14,0.33,0.2,0.57,0.2
		c0.13,0,0.24-0.02,0.34-0.06c0.1-0.04,0.18-0.1,0.24-0.17s0.11-0.15,0.14-0.25c0.03-0.09,0.05-0.19,0.05-0.3
		c0-0.24-0.07-0.43-0.2-0.57c-0.14-0.14-0.33-0.2-0.57-0.2c-0.13,0-0.24,0.02-0.34,0.06c-0.1,0.04-0.18,0.1-0.24,0.17
		C50,3.1,49.95,3.19,49.92,3.29C49.89,3.39,49.87,3.49,49.87,3.59z"/>
	<path d="M57.68,4.3c0,0.34-0.05,0.66-0.15,0.94s-0.24,0.53-0.42,0.73c-0.18,0.2-0.41,0.36-0.68,0.47s-0.57,0.17-0.91,0.17
		c-0.32,0-0.61-0.05-0.87-0.14S54.18,6.24,54,6.05s-0.31-0.42-0.41-0.71c-0.09-0.28-0.14-0.61-0.14-0.99c0-0.35,0.05-0.66,0.15-0.95
		c0.1-0.28,0.24-0.53,0.43-0.73c0.19-0.2,0.41-0.36,0.68-0.47s0.57-0.17,0.9-0.17c0.33,0,0.62,0.05,0.87,0.14s0.47,0.24,0.65,0.43
		c0.18,0.19,0.31,0.42,0.41,0.7C57.63,3.61,57.68,3.93,57.68,4.3z M56.58,4.32c0-0.45-0.09-0.79-0.26-1.02
		c-0.17-0.23-0.42-0.34-0.76-0.34c-0.18,0-0.34,0.04-0.47,0.11c-0.13,0.07-0.24,0.17-0.32,0.29C54.7,3.49,54.64,3.63,54.6,3.8
		c-0.04,0.17-0.06,0.34-0.06,0.53c0,0.46,0.09,0.8,0.28,1.03s0.43,0.35,0.75,0.35c0.18,0,0.33-0.04,0.46-0.11
		c0.13-0.07,0.23-0.17,0.31-0.29c0.08-0.12,0.14-0.27,0.18-0.44C56.56,4.7,56.58,4.52,56.58,4.32z"/>
	<path d="M61.19,6.52V3.67c0-0.48-0.18-0.72-0.53-0.72c-0.18,0-0.35,0.07-0.51,0.22c-0.16,0.14-0.33,0.34-0.51,0.59v2.77h-1.05V2.15
		h0.91l0.03,0.65c0.09-0.11,0.18-0.21,0.28-0.31s0.2-0.17,0.31-0.23s0.23-0.11,0.36-0.15c0.13-0.03,0.27-0.05,0.43-0.05
		c0.22,0,0.42,0.04,0.59,0.11c0.17,0.07,0.31,0.18,0.42,0.31c0.11,0.13,0.2,0.29,0.25,0.48c0.06,0.19,0.08,0.4,0.08,0.63v2.94H61.19
		z"/>
	<path d="M66.04,6.52V3.67c0-0.48-0.18-0.72-0.53-0.72c-0.18,0-0.35,0.07-0.51,0.22c-0.16,0.14-0.33,0.34-0.51,0.59v2.77h-1.05V2.15
		h0.91l0.03,0.65c0.09-0.11,0.18-0.21,0.28-0.31s0.2-0.17,0.31-0.23c0.11-0.06,0.23-0.11,0.36-0.15c0.13-0.03,0.27-0.05,0.43-0.05
		c0.22,0,0.42,0.04,0.59,0.11c0.17,0.07,0.31,0.18,0.42,0.31c0.11,0.13,0.2,0.29,0.25,0.48c0.06,0.19,0.08,0.4,0.08,0.63v2.94H66.04
		z"/>
	<path d="M71.02,6.52l-0.03-0.57c-0.09,0.1-0.19,0.19-0.29,0.27s-0.21,0.15-0.33,0.21c-0.12,0.06-0.25,0.11-0.39,0.14
		c-0.14,0.03-0.3,0.05-0.47,0.05c-0.22,0-0.42-0.03-0.59-0.1s-0.31-0.16-0.43-0.28s-0.2-0.26-0.26-0.43
		c-0.06-0.17-0.09-0.35-0.09-0.55c0-0.21,0.04-0.4,0.13-0.57c0.09-0.18,0.22-0.33,0.4-0.45c0.18-0.13,0.4-0.23,0.67-0.3
		c0.27-0.07,0.58-0.11,0.94-0.11h0.57V3.58c0-0.11-0.02-0.21-0.05-0.3c-0.03-0.09-0.08-0.17-0.15-0.23
		c-0.07-0.06-0.16-0.11-0.27-0.15c-0.11-0.03-0.25-0.05-0.41-0.05c-0.26,0-0.51,0.03-0.76,0.09c-0.25,0.06-0.49,0.14-0.73,0.25V2.34
		c0.21-0.08,0.45-0.15,0.73-0.21c0.27-0.05,0.56-0.08,0.85-0.08c0.32,0,0.6,0.03,0.83,0.09c0.23,0.06,0.42,0.15,0.57,0.28
		c0.15,0.12,0.26,0.28,0.33,0.46c0.07,0.19,0.11,0.4,0.11,0.65v2.99H71.02z M70.87,4.59h-0.64c-0.18,0-0.33,0.02-0.45,0.05
		c-0.12,0.03-0.22,0.08-0.3,0.14c-0.08,0.06-0.13,0.13-0.17,0.21c-0.04,0.08-0.05,0.16-0.05,0.25c0,0.18,0.06,0.31,0.17,0.41
		c0.11,0.09,0.27,0.14,0.47,0.14c0.15,0,0.3-0.05,0.46-0.16c0.16-0.11,0.33-0.26,0.52-0.46V4.59z"/>
	<path d="M75.94,3.85c0.01-0.16,0-0.3-0.02-0.42c-0.02-0.11-0.06-0.21-0.1-0.28s-0.11-0.13-0.17-0.16s-0.15-0.05-0.24-0.05
		c-0.15,0-0.31,0.06-0.48,0.19s-0.35,0.34-0.54,0.63v2.77H73.3V2.15h0.95l0.04,0.64c0.07-0.11,0.15-0.21,0.24-0.3
		c0.09-0.09,0.19-0.17,0.3-0.23s0.23-0.11,0.37-0.15c0.13-0.03,0.28-0.05,0.44-0.05c0.22,0,0.42,0.04,0.59,0.11
		c0.17,0.08,0.31,0.19,0.43,0.34c0.12,0.15,0.2,0.34,0.26,0.56S77,3.55,76.99,3.85H75.94z"/>
</g>
<text transform="matrix(1 0 0 1 59.1888 1.4175)" class="st2 st3 st4">portfolio</text>
<g>
	<path class="st1" d="M8.24,17.23v-2.98c0-0.11,0-0.2-0.01-0.29c-0.01-0.08-0.02-0.15-0.03-0.2s-0.04-0.1-0.08-0.12
		c-0.03-0.03-0.08-0.04-0.14-0.04c-0.09,0-0.18,0.06-0.26,0.18c-0.09,0.12-0.18,0.33-0.29,0.62v2.84h-0.9v-2.98
		c0-0.11,0-0.2-0.01-0.29c-0.01-0.08-0.02-0.15-0.03-0.2c-0.02-0.05-0.04-0.1-0.08-0.12s-0.08-0.04-0.14-0.04
		c-0.07,0-0.16,0.06-0.25,0.18c-0.09,0.12-0.19,0.33-0.31,0.62v2.84H4.81v-4.37h0.78l0.02,0.64c0.06-0.13,0.13-0.24,0.19-0.33
		c0.06-0.09,0.13-0.17,0.2-0.23c0.07-0.06,0.15-0.1,0.23-0.13s0.17-0.04,0.28-0.04c0.24,0,0.43,0.06,0.56,0.19
		c0.13,0.13,0.2,0.3,0.22,0.53c0.07-0.13,0.14-0.24,0.2-0.33c0.07-0.09,0.14-0.17,0.21-0.23c0.07-0.06,0.15-0.1,0.24-0.13
		c0.08-0.03,0.18-0.04,0.28-0.04c0.32,0,0.55,0.11,0.71,0.33c0.15,0.22,0.23,0.55,0.23,0.99v3.14H8.24z"/>
	<path class="st1" d="M13.09,17.23v-2.98c0-0.11,0-0.2-0.01-0.29c-0.01-0.08-0.02-0.15-0.03-0.2c-0.02-0.05-0.04-0.1-0.08-0.12
		s-0.08-0.04-0.14-0.04c-0.09,0-0.18,0.06-0.26,0.18c-0.09,0.12-0.18,0.33-0.29,0.62v2.84h-0.9v-2.98c0-0.11,0-0.2-0.01-0.29
		c-0.01-0.08-0.02-0.15-0.03-0.2c-0.02-0.05-0.04-0.1-0.08-0.12c-0.03-0.03-0.08-0.04-0.14-0.04c-0.07,0-0.16,0.06-0.25,0.18
		c-0.09,0.12-0.19,0.33-0.31,0.62v2.84H9.66v-4.37h0.78l0.02,0.64c0.06-0.13,0.13-0.24,0.19-0.33c0.06-0.09,0.13-0.17,0.2-0.23
		c0.07-0.06,0.15-0.1,0.23-0.13s0.17-0.04,0.28-0.04c0.24,0,0.43,0.06,0.56,0.19c0.13,0.13,0.2,0.3,0.22,0.53
		c0.07-0.13,0.14-0.24,0.2-0.33c0.07-0.09,0.14-0.17,0.21-0.23c0.07-0.06,0.15-0.1,0.24-0.13c0.08-0.03,0.18-0.04,0.28-0.04
		c0.32,0,0.55,0.11,0.71,0.33c0.15,0.22,0.23,0.55,0.23,0.99v3.14H13.09z"/>
	<path d="M7.76,18.61c0.08,0.1,0.14,0.21,0.17,0.32c0.03,0.11,0.05,0.22,0.05,0.34c0,0.24-0.04,0.46-0.13,0.65
		c-0.08,0.19-0.2,0.34-0.36,0.47c-0.15,0.13-0.34,0.22-0.55,0.29s-0.45,0.1-0.71,0.1c-0.15,0-0.29-0.02-0.42-0.05
		c-0.13-0.03-0.23-0.07-0.29-0.11c-0.05,0.05-0.09,0.1-0.12,0.16c-0.03,0.06-0.05,0.13-0.05,0.2c0,0.05,0.01,0.09,0.03,0.14
		c0.02,0.05,0.06,0.09,0.1,0.12s0.1,0.07,0.16,0.09s0.13,0.04,0.21,0.04l1.04,0.04c0.23,0.01,0.44,0.04,0.63,0.09
		c0.19,0.05,0.35,0.13,0.48,0.23c0.13,0.1,0.24,0.22,0.31,0.36s0.11,0.3,0.11,0.48c0,0.2-0.05,0.4-0.14,0.58
		c-0.09,0.18-0.23,0.34-0.42,0.47s-0.42,0.24-0.69,0.32c-0.28,0.08-0.6,0.12-0.96,0.12c-0.35,0-0.66-0.03-0.91-0.08
		c-0.25-0.06-0.46-0.13-0.62-0.23c-0.16-0.1-0.28-0.22-0.36-0.36s-0.12-0.29-0.12-0.46c0-0.1,0.01-0.19,0.04-0.28
		c0.03-0.09,0.06-0.17,0.12-0.25c0.05-0.08,0.12-0.16,0.19-0.23s0.17-0.15,0.28-0.22c-0.14-0.08-0.25-0.18-0.32-0.31
		c-0.07-0.13-0.11-0.26-0.11-0.4c0-0.1,0.01-0.19,0.04-0.27c0.03-0.08,0.06-0.17,0.1-0.24c0.04-0.08,0.09-0.15,0.14-0.22
		s0.11-0.14,0.17-0.21c-0.11-0.11-0.19-0.23-0.26-0.39c-0.07-0.15-0.11-0.34-0.11-0.57c0-0.24,0.04-0.46,0.13-0.65
		s0.21-0.35,0.36-0.48s0.34-0.23,0.55-0.3c0.21-0.07,0.45-0.1,0.7-0.1c0.13,0,0.25,0.01,0.37,0.02c0.12,0.01,0.23,0.04,0.32,0.07
		h1.52v0.77H7.76z M5.29,22.8c0,0.17,0.09,0.29,0.26,0.37c0.17,0.08,0.41,0.12,0.72,0.12c0.2,0,0.37-0.02,0.5-0.06
		c0.14-0.04,0.25-0.09,0.33-0.15c0.09-0.06,0.15-0.13,0.19-0.21c0.04-0.08,0.06-0.16,0.06-0.25c0-0.08-0.02-0.14-0.05-0.2
		c-0.04-0.05-0.09-0.1-0.15-0.13C7.07,22.27,7,22.24,6.91,22.22c-0.09-0.02-0.18-0.03-0.29-0.04l-0.93-0.02
		c-0.08,0.06-0.15,0.11-0.2,0.16s-0.09,0.1-0.12,0.15s-0.05,0.1-0.06,0.15C5.29,22.69,5.29,22.74,5.29,22.8z M5.46,19.29
		c0,0.23,0.07,0.42,0.2,0.55c0.14,0.14,0.33,0.2,0.57,0.2c0.13,0,0.24-0.02,0.34-0.06s0.18-0.1,0.24-0.17
		c0.06-0.07,0.11-0.15,0.14-0.25c0.03-0.09,0.05-0.19,0.05-0.3c0-0.24-0.07-0.43-0.2-0.57c-0.14-0.14-0.33-0.2-0.57-0.2
		c-0.13,0-0.24,0.02-0.34,0.06c-0.1,0.04-0.18,0.1-0.24,0.17s-0.11,0.16-0.14,0.26C5.48,19.08,5.46,19.19,5.46,19.29z"/>
	<path d="M13.27,20c0,0.34-0.05,0.66-0.15,0.94s-0.24,0.53-0.42,0.73s-0.41,0.36-0.68,0.47c-0.27,0.11-0.57,0.17-0.91,0.17
		c-0.32,0-0.61-0.05-0.87-0.14c-0.26-0.09-0.47-0.24-0.65-0.42c-0.18-0.19-0.31-0.42-0.41-0.71c-0.09-0.28-0.14-0.61-0.14-0.99
		c0-0.35,0.05-0.66,0.15-0.95s0.24-0.53,0.43-0.73c0.19-0.2,0.41-0.36,0.68-0.47c0.27-0.11,0.57-0.17,0.9-0.17
		c0.33,0,0.62,0.05,0.87,0.14c0.26,0.1,0.47,0.24,0.65,0.43c0.18,0.19,0.31,0.42,0.41,0.7C13.22,19.31,13.27,19.63,13.27,20z
		 M12.17,20.02c0-0.45-0.09-0.79-0.26-1.02c-0.17-0.23-0.42-0.34-0.76-0.34c-0.18,0-0.34,0.04-0.47,0.11
		c-0.13,0.07-0.24,0.17-0.32,0.29c-0.08,0.12-0.14,0.27-0.18,0.44c-0.04,0.17-0.06,0.34-0.06,0.53c0,0.46,0.09,0.8,0.28,1.03
		s0.43,0.35,0.75,0.35c0.18,0,0.33-0.04,0.46-0.11c0.13-0.07,0.23-0.17,0.31-0.29c0.08-0.12,0.14-0.27,0.18-0.44
		C12.15,20.4,12.17,20.22,12.17,20.02z"/>
	<path d="M16.78,22.22v-2.85c0-0.48-0.18-0.72-0.53-0.72c-0.18,0-0.35,0.07-0.51,0.22c-0.16,0.14-0.33,0.34-0.51,0.59v2.77h-1.05
		v-4.37h0.91l0.03,0.65c0.09-0.11,0.18-0.21,0.28-0.31c0.1-0.09,0.2-0.17,0.31-0.23c0.11-0.06,0.23-0.11,0.36-0.15
		c0.13-0.03,0.27-0.05,0.43-0.05c0.22,0,0.42,0.04,0.59,0.11c0.17,0.07,0.31,0.18,0.42,0.31c0.11,0.13,0.2,0.29,0.25,0.48
		s0.08,0.4,0.08,0.63v2.94H16.78z"/>
	<path d="M21.63,22.22v-2.85c0-0.48-0.18-0.72-0.53-0.72c-0.18,0-0.35,0.07-0.51,0.22c-0.16,0.14-0.33,0.34-0.51,0.59v2.77h-1.05
		v-4.37h0.91l0.03,0.65c0.09-0.11,0.18-0.21,0.28-0.31c0.1-0.09,0.2-0.17,0.31-0.23s0.23-0.11,0.36-0.15
		c0.13-0.03,0.27-0.05,0.43-0.05c0.22,0,0.42,0.04,0.59,0.11c0.17,0.07,0.31,0.18,0.42,0.31c0.11,0.13,0.2,0.29,0.25,0.48
		c0.06,0.19,0.08,0.4,0.08,0.63v2.94H21.63z"/>
	<path d="M26.61,22.22l-0.03-0.57c-0.09,0.1-0.19,0.19-0.29,0.27c-0.1,0.08-0.21,0.15-0.33,0.21c-0.12,0.06-0.25,0.11-0.39,0.14
		c-0.14,0.03-0.3,0.05-0.47,0.05c-0.22,0-0.42-0.03-0.59-0.1c-0.17-0.07-0.31-0.16-0.43-0.28c-0.11-0.12-0.2-0.26-0.26-0.43
		c-0.06-0.17-0.09-0.35-0.09-0.55c0-0.21,0.04-0.4,0.13-0.57c0.09-0.18,0.22-0.33,0.4-0.45c0.18-0.13,0.4-0.23,0.67-0.3
		c0.27-0.07,0.58-0.11,0.94-0.11h0.57v-0.26c0-0.11-0.02-0.21-0.05-0.3s-0.08-0.17-0.15-0.23c-0.07-0.06-0.16-0.11-0.27-0.15
		c-0.11-0.03-0.25-0.05-0.41-0.05c-0.26,0-0.51,0.03-0.76,0.09c-0.25,0.06-0.49,0.14-0.73,0.25v-0.84c0.21-0.08,0.45-0.15,0.73-0.21
		c0.27-0.05,0.56-0.08,0.85-0.08c0.32,0,0.6,0.03,0.83,0.09c0.23,0.06,0.42,0.15,0.57,0.28c0.15,0.12,0.26,0.28,0.33,0.46
		c0.07,0.19,0.11,0.4,0.11,0.65v2.99H26.61z M26.46,20.29h-0.64c-0.18,0-0.33,0.02-0.45,0.05c-0.12,0.03-0.22,0.08-0.3,0.14
		c-0.08,0.06-0.13,0.13-0.17,0.21s-0.05,0.16-0.05,0.25c0,0.18,0.06,0.31,0.17,0.41c0.11,0.09,0.27,0.14,0.47,0.14
		c0.15,0,0.3-0.05,0.46-0.16c0.16-0.11,0.33-0.26,0.52-0.46V20.29z"/>
	<path d="M31.53,19.55c0.01-0.16,0-0.3-0.02-0.42c-0.02-0.11-0.06-0.21-0.1-0.28s-0.11-0.13-0.17-0.16
		c-0.07-0.03-0.15-0.05-0.24-0.05c-0.15,0-0.31,0.06-0.48,0.19c-0.16,0.13-0.35,0.34-0.54,0.63v2.77h-1.08v-4.37h0.95l0.04,0.64
		c0.07-0.11,0.15-0.21,0.24-0.3c0.09-0.09,0.19-0.17,0.3-0.23c0.11-0.06,0.23-0.11,0.37-0.15c0.13-0.03,0.28-0.05,0.44-0.05
		c0.22,0,0.42,0.04,0.59,0.11s0.31,0.19,0.43,0.34c0.12,0.15,0.2,0.34,0.26,0.56c0.06,0.23,0.08,0.49,0.07,0.78H31.53z"/>
</g>
<text transform="matrix(1 0 0 1 14.7809 16.1172)" class="st2 st3 st4">portfolio</text>
</svg>
