<?xml version="1.0" encoding="utf-8"?>
<!-- Generator: Adobe Illustrator 28.0.0, SVG Export Plug-In . SVG Version: 6.00 Build 0)  -->
<svg version="1.1" id="Layer_1" xmlns="http://www.w3.org/2000/svg" xmlns:xlink="http://www.w3.org/1999/xlink" x="0px" y="0px"
	 viewBox="0 0 38.7 38.7" style="enable-background:new 0 0 38.7 38.7;" xml:space="preserve">
<style type="text/css">
	.st0{fill:#FFFFFF;stroke:#020202;stroke-miterlimit:10;}
	.st1{fill:#007F51;}
	.st2{fill:#AAAAAA;}
	.st3{font-family:'Consolas-Bold';}
	.st4{font-size:2.8899px;}
</style>
<rect x="1.9" y="2.1" width="36.7" height="36.7"/>
<rect x="1.1" y="1.1" class="st0" width="34.7" height="34.9"/>
<g>
	<path class="st1" d="M47.9,17.5v-2.4c0-0.1,0-0.2,0-0.2c0-0.1,0-0.1,0-0.2s0-0.1-0.1-0.1c0,0-0.1,0-0.1,0c-0.1,0-0.1,0.1-0.2,0.1
		c-0.1,0.1-0.2,0.3-0.2,0.5v2.3h-0.7v-2.4c0-0.1,0-0.2,0-0.2s0-0.1,0-0.2s0-0.1-0.1-0.1s-0.1,0-0.1,0c-0.1,0-0.1,0.1-0.2,0.1
		C46,14.9,46,15,45.9,15.3v2.3h-0.7V14h0.6l0,0.5c0-0.1,0.1-0.2,0.2-0.3s0.1-0.1,0.2-0.2s0.1-0.1,0.2-0.1c0.1,0,0.1,0,0.2,0
		c0.2,0,0.3,0.1,0.5,0.1c0.1,0.1,0.2,0.2,0.2,0.4c0.1-0.1,0.1-0.2,0.2-0.3s0.1-0.1,0.2-0.2s0.1-0.1,0.2-0.1s0.1,0,0.2,0
		c0.2,0,0.4,0.1,0.6,0.3c0.1,0.2,0.2,0.4,0.2,0.8v2.5L47.9,17.5L47.9,17.5z"/>
	<path class="st1" d="M51.8,17.5v-2.4c0-0.1,0-0.2,0-0.2c0-0.1,0-0.1,0-0.2s0-0.1-0.1-0.1c0,0-0.1,0-0.1,0c-0.1,0-0.1,0.1-0.2,0.1
		c-0.1,0.1-0.2,0.3-0.2,0.5v2.3h-0.7v-2.4c0-0.1,0-0.2,0-0.2s0-0.1,0-0.2s0-0.1-0.1-0.1s-0.1,0-0.1,0c-0.1,0-0.1,0.1-0.2,0.1
		c-0.1,0.1-0.2,0.3-0.2,0.5v2.3H49V14h0.6l0,0.5c0-0.1,0.1-0.2,0.2-0.3s0.1-0.1,0.2-0.2s0.1-0.1,0.2-0.1c0.1,0,0.1,0,0.2,0
		c0.2,0,0.3,0.1,0.5,0.1c0.1,0.1,0.2,0.2,0.2,0.4c0.1-0.1,0.1-0.2,0.2-0.3s0.1-0.1,0.2-0.2s0.1-0.1,0.2-0.1s0.1,0,0.2,0
		c0.2,0,0.4,0.1,0.6,0.3c0.1,0.2,0.2,0.4,0.2,0.8v2.5L51.8,17.5L51.8,17.5z"/>
	<path d="M55.8,14.7c0.1,0.1,0.1,0.2,0.1,0.2s0,0.2,0,0.3c0,0.2,0,0.4-0.1,0.5s-0.2,0.3-0.3,0.4s-0.3,0.2-0.4,0.2s-0.4,0.1-0.6,0.1
		c-0.1,0-0.2,0-0.3,0c-0.1,0-0.2,0-0.2-0.1c0,0-0.1,0.1-0.1,0.1s0,0.1,0,0.2c0,0,0,0.1,0,0.1s0,0.1,0.1,0.1c0,0,0.1,0,0.1,0.1
		s0.1,0,0.2,0l0.8,0c0.2,0,0.3,0,0.5,0.1c0.2,0,0.3,0.1,0.4,0.2s0.2,0.2,0.2,0.3s0.1,0.2,0.1,0.4c0,0.2,0,0.3-0.1,0.5
		s-0.2,0.3-0.3,0.4c-0.2,0.1-0.3,0.2-0.5,0.2c-0.2,0.1-0.5,0.1-0.8,0.1c-0.3,0-0.5,0-0.7-0.1c-0.2,0-0.4-0.1-0.5-0.2
		s-0.2-0.2-0.3-0.3S53,18.2,53,18.1c0-0.1,0-0.1,0-0.2s0-0.1,0.1-0.2s0.1-0.1,0.2-0.2s0.1-0.1,0.2-0.2c-0.1-0.1-0.2-0.1-0.3-0.2
		s-0.1-0.2-0.1-0.3c0-0.1,0-0.1,0-0.2s0-0.1,0.1-0.2c0-0.1,0.1-0.1,0.1-0.2c0-0.1,0.1-0.1,0.1-0.2c-0.1-0.1-0.2-0.2-0.2-0.3
		s-0.1-0.3-0.1-0.4c0-0.2,0-0.4,0.1-0.5c0.1-0.1,0.2-0.3,0.3-0.4s0.3-0.2,0.4-0.2s0.4-0.1,0.6-0.1c0.1,0,0.2,0,0.3,0s0.2,0,0.3,0.1
		h1.2v0.6L55.8,14.7L55.8,14.7z M53.8,18c0,0.1,0.1,0.2,0.2,0.3c0.1,0.1,0.3,0.1,0.6,0.1c0.2,0,0.3,0,0.4,0s0.2-0.1,0.3-0.1
		c0.1,0,0.1-0.1,0.2-0.2c0-0.1,0-0.1,0-0.2c0-0.1,0-0.1,0-0.2c0,0-0.1-0.1-0.1-0.1s-0.1,0-0.2-0.1c-0.1,0-0.2,0-0.2,0l-0.7,0
		c-0.1,0-0.1,0.1-0.2,0.1c0,0-0.1,0.1-0.1,0.1c0,0,0,0.1,0,0.1C53.8,17.9,53.8,18,53.8,18z M54,15.2c0,0.2,0,0.3,0.2,0.4
		s0.3,0.2,0.5,0.2c0.1,0,0.2,0,0.3-0.1s0.1-0.1,0.2-0.1s0.1-0.1,0.1-0.2s0-0.1,0-0.2c0-0.2,0-0.4-0.2-0.5s-0.3-0.2-0.5-0.2
		c-0.1,0-0.2,0-0.3,0.1s-0.1,0.1-0.2,0.1S54,14.9,54,14.9S54,15.1,54,15.2z"/>
	<path d="M60.2,15.8c0,0.3,0,0.5-0.1,0.8s-0.2,0.4-0.3,0.6c-0.2,0.2-0.3,0.3-0.5,0.4s-0.5,0.1-0.7,0.1c-0.3,0-0.5,0-0.7-0.1
		c-0.2-0.1-0.4-0.2-0.5-0.3s-0.2-0.3-0.3-0.6c-0.1-0.2-0.1-0.5-0.1-0.8c0-0.3,0-0.5,0.1-0.8c0.1-0.2,0.2-0.4,0.3-0.6
		s0.3-0.3,0.5-0.4s0.5-0.1,0.7-0.1c0.3,0,0.5,0,0.7,0.1c0.2,0.1,0.4,0.2,0.5,0.3c0.1,0.1,0.2,0.3,0.3,0.6
		C60.2,15.2,60.2,15.5,60.2,15.8z M59.3,15.8c0-0.4-0.1-0.6-0.2-0.8c-0.1-0.2-0.3-0.3-0.6-0.3c-0.2,0-0.3,0-0.4,0.1S58,14.9,57.9,15
		c-0.1,0.1-0.1,0.2-0.2,0.4s0,0.3,0,0.4c0,0.4,0.1,0.6,0.2,0.8s0.3,0.3,0.6,0.3c0.1,0,0.3,0,0.4-0.1c0.1-0.1,0.2-0.1,0.2-0.2
		s0.1-0.2,0.1-0.4C59.3,16.1,59.3,15.9,59.3,15.8z"/>
	<path d="M63,17.5v-2.3c0-0.4-0.1-0.6-0.4-0.6c-0.1,0-0.3,0.1-0.4,0.2s-0.3,0.3-0.4,0.5v2.2h-0.8V14h0.7l0,0.5
		c0.1-0.1,0.2-0.2,0.2-0.2c0.1-0.1,0.2-0.1,0.2-0.2c0.1-0.1,0.2-0.1,0.3-0.1s0.2,0,0.3,0c0.2,0,0.3,0,0.5,0.1
		c0.1,0.1,0.2,0.1,0.3,0.2s0.2,0.2,0.2,0.4c0,0.1,0.1,0.3,0.1,0.5v2.4L63,17.5L63,17.5z"/>
	<path d="M66.9,17.5v-2.3c0-0.4-0.1-0.6-0.4-0.6c-0.1,0-0.3,0.1-0.4,0.2c-0.1,0.1-0.3,0.3-0.4,0.5v2.2h-0.8V14h0.7l0,0.5
		c0.1-0.1,0.2-0.2,0.2-0.2c0.1-0.1,0.2-0.1,0.2-0.2c0.1-0.1,0.2-0.1,0.3-0.1s0.2,0,0.3,0c0.2,0,0.3,0,0.5,0.1
		c0.1,0.1,0.2,0.1,0.3,0.2s0.2,0.2,0.2,0.4c0,0.1,0.1,0.3,0.1,0.5v2.4L66.9,17.5L66.9,17.5z"/>
	<path d="M70.9,17.5l0-0.5c-0.1,0.1-0.2,0.1-0.2,0.2s-0.2,0.1-0.3,0.2c-0.1,0-0.2,0.1-0.3,0.1c-0.1,0-0.2,0-0.4,0
		c-0.2,0-0.3,0-0.5-0.1c-0.1,0-0.2-0.1-0.3-0.2s-0.2-0.2-0.2-0.3s-0.1-0.3-0.1-0.4c0-0.2,0-0.3,0.1-0.5c0.1-0.1,0.2-0.3,0.3-0.4
		c0.1-0.1,0.3-0.2,0.5-0.2c0.2-0.1,0.5-0.1,0.8-0.1h0.5v-0.2c0-0.1,0-0.2,0-0.2s-0.1-0.1-0.1-0.2c-0.1-0.1-0.1-0.1-0.2-0.1
		s-0.2,0-0.3,0c-0.2,0-0.4,0-0.6,0.1c-0.2,0.1-0.4,0.1-0.6,0.2v-0.7c0.2-0.1,0.4-0.1,0.6-0.2c0.2,0,0.4-0.1,0.7-0.1
		c0.3,0,0.5,0,0.7,0.1c0.2,0.1,0.3,0.1,0.5,0.2s0.2,0.2,0.3,0.4s0.1,0.3,0.1,0.5v2.4L70.9,17.5L70.9,17.5z M70.7,16h-0.5
		c-0.1,0-0.3,0-0.4,0s-0.2,0.1-0.2,0.1c-0.1,0-0.1,0.1-0.1,0.2s0,0.1,0,0.2c0,0.1,0.1,0.2,0.1,0.3c0.1,0.1,0.2,0.1,0.4,0.1
		c0.1,0,0.2,0,0.4-0.1c0.1-0.1,0.3-0.2,0.4-0.4V16z"/>
	<path d="M74.8,15.4c0-0.1,0-0.2,0-0.3s0-0.2-0.1-0.2s-0.1-0.1-0.1-0.1s-0.1,0-0.2,0c-0.1,0-0.2,0.1-0.4,0.1
		c-0.1,0.1-0.3,0.3-0.4,0.5v2.2h-0.9V14h0.8l0,0.5c0.1-0.1,0.1-0.2,0.2-0.2s0.2-0.1,0.2-0.2s0.2-0.1,0.3-0.1c0.1,0,0.2,0,0.3,0
		c0.2,0,0.3,0,0.5,0.1s0.2,0.1,0.3,0.3s0.2,0.3,0.2,0.4c0,0.2,0.1,0.4,0.1,0.6L74.8,15.4L74.8,15.4z"/>
</g>
<g>
	<g>
		<path class="st1" d="M48.3,29.7v-2.4c0-0.1,0-0.2,0-0.2c0-0.1,0-0.1,0-0.2c0,0,0-0.1-0.1-0.1c0,0-0.1,0-0.1,0
			c-0.1,0-0.1,0-0.2,0.1s-0.2,0.3-0.2,0.5v2.3H47v-2.4c0-0.1,0-0.2,0-0.2c0-0.1,0-0.1,0-0.2c0,0,0-0.1-0.1-0.1s-0.1,0-0.1,0
			c-0.1,0-0.1,0-0.2,0.1s-0.2,0.3-0.2,0.5v2.3h-0.7v-3.5h0.6l0,0.5c0-0.1,0.1-0.2,0.2-0.3c0-0.1,0.1-0.1,0.2-0.2s0.1-0.1,0.2-0.1
			s0.1,0,0.2,0c0.2,0,0.3,0,0.5,0.1c0.1,0.1,0.2,0.2,0.2,0.4c0.1-0.1,0.1-0.2,0.2-0.3c0-0.1,0.1-0.1,0.2-0.2s0.1-0.1,0.2-0.1
			s0.1,0,0.2,0c0.3,0,0.5,0.1,0.6,0.3s0.2,0.4,0.2,0.8v2.5L48.3,29.7L48.3,29.7z"/>
		<path class="st1" d="M52.2,29.7v-2.4c0-0.1,0-0.2,0-0.2c0-0.1,0-0.1,0-0.2c0,0,0-0.1-0.1-0.1s-0.1,0-0.1,0c-0.1,0-0.1,0-0.2,0.1
			s-0.2,0.3-0.2,0.5v2.3h-0.7v-2.4c0-0.1,0-0.2,0-0.2c0-0.1,0-0.1,0-0.2c0,0,0-0.1-0.1-0.1c0,0-0.1,0-0.1,0c-0.1,0-0.1,0-0.2,0.1
			s-0.2,0.3-0.2,0.5v2.3h-0.7v-3.5h0.6l0,0.5c0-0.1,0.1-0.2,0.2-0.3c0-0.1,0.1-0.1,0.2-0.2c0.1,0,0.1-0.1,0.2-0.1s0.1,0,0.2,0
			c0.2,0,0.3,0,0.5,0.1c0.1,0.1,0.2,0.2,0.2,0.4c0.1-0.1,0.1-0.2,0.2-0.3c0-0.1,0.1-0.1,0.2-0.2c0.1,0,0.1-0.1,0.2-0.1s0.1,0,0.2,0
			c0.3,0,0.5,0.1,0.6,0.3s0.2,0.4,0.2,0.8v2.5L52.2,29.7L52.2,29.7z"/>
		<path d="M56.3,26.8c0.1,0.1,0.1,0.2,0.1,0.2s0,0.2,0,0.3c0,0.2,0,0.4-0.1,0.5s-0.2,0.3-0.3,0.4c-0.1,0.1-0.3,0.2-0.4,0.2
			s-0.4,0.1-0.6,0.1c-0.1,0-0.2,0-0.3,0s-0.2,0-0.2-0.1c0,0-0.1,0.1-0.1,0.1s0,0.1,0,0.2c0,0,0,0.1,0,0.1s0,0.1,0.1,0.1
			c0,0,0.1,0,0.1,0.1s0.1,0,0.2,0l0.8,0c0.2,0,0.4,0,0.5,0.1s0.3,0.1,0.4,0.2s0.2,0.2,0.2,0.3c0.1,0.1,0.1,0.2,0.1,0.4
			c0,0.2,0,0.3-0.1,0.5c-0.1,0.1-0.2,0.3-0.3,0.4c-0.2,0.1-0.3,0.2-0.6,0.2c-0.2,0.1-0.5,0.1-0.8,0.1c-0.3,0-0.5,0-0.7-0.1
			s-0.4-0.1-0.5-0.2s-0.2-0.2-0.3-0.3s-0.1-0.2-0.1-0.4c0-0.1,0-0.2,0-0.2s0-0.1,0.1-0.2c0-0.1,0.1-0.1,0.2-0.2
			c0.1-0.1,0.1-0.1,0.2-0.2c-0.1-0.1-0.2-0.1-0.3-0.2c-0.1-0.1-0.1-0.2-0.1-0.3c0-0.1,0-0.1,0-0.2s0-0.1,0.1-0.2s0.1-0.1,0.1-0.2
			c0-0.1,0.1-0.1,0.1-0.2c-0.1-0.1-0.2-0.2-0.2-0.3s-0.1-0.3-0.1-0.5c0-0.2,0-0.4,0.1-0.5s0.2-0.3,0.3-0.4s0.3-0.2,0.5-0.2
			c0.2,0,0.4-0.1,0.6-0.1c0.1,0,0.2,0,0.3,0s0.2,0,0.3,0h1.2v0.6L56.3,26.8L56.3,26.8z M54.3,30.1c0,0.1,0.1,0.2,0.2,0.3
			s0.3,0.1,0.6,0.1c0.2,0,0.3,0,0.4,0c0.1,0,0.2-0.1,0.3-0.1c0.1,0,0.1-0.1,0.2-0.2c0-0.1,0-0.1,0-0.2c0-0.1,0-0.1,0-0.2
			c0,0-0.1-0.1-0.1-0.1s-0.1,0-0.2-0.1s-0.2,0-0.2,0l-0.7,0c-0.1,0-0.1,0.1-0.2,0.1s-0.1,0.1-0.1,0.1c0,0,0,0.1,0,0.1
			C54.3,30.1,54.3,30.1,54.3,30.1z M54.4,27.3c0,0.2,0,0.3,0.2,0.5s0.3,0.2,0.5,0.2c0.1,0,0.2,0,0.3,0s0.1-0.1,0.2-0.1
			s0.1-0.1,0.1-0.2c0-0.1,0-0.2,0-0.2c0-0.2,0-0.4-0.2-0.5c-0.1-0.1-0.3-0.2-0.5-0.2c-0.1,0-0.2,0-0.3,0s-0.1,0.1-0.2,0.1
			s-0.1,0.1-0.1,0.2C54.5,27.2,54.4,27.2,54.4,27.3z"/>
		<path d="M60.7,27.9c0,0.3,0,0.5-0.1,0.8c-0.1,0.2-0.2,0.4-0.3,0.6s-0.3,0.3-0.5,0.4c-0.2,0.1-0.5,0.1-0.7,0.1
			c-0.3,0-0.5,0-0.7-0.1c-0.2-0.1-0.4-0.2-0.5-0.3s-0.2-0.3-0.3-0.6s-0.1-0.5-0.1-0.8c0-0.3,0-0.5,0.1-0.8c0.1-0.2,0.2-0.4,0.3-0.6
			c0.2-0.2,0.3-0.3,0.5-0.4c0.2-0.1,0.5-0.1,0.7-0.1c0.3,0,0.5,0,0.7,0.1s0.4,0.2,0.5,0.3s0.2,0.3,0.3,0.6
			C60.7,27.3,60.7,27.6,60.7,27.9z M59.8,27.9c0-0.4-0.1-0.6-0.2-0.8s-0.3-0.3-0.6-0.3c-0.2,0-0.3,0-0.4,0.1s-0.2,0.1-0.3,0.2
			s-0.1,0.2-0.2,0.4s0,0.3,0,0.4c0,0.4,0.1,0.6,0.2,0.8S58.8,29,59,29c0.1,0,0.3,0,0.4-0.1s0.2-0.1,0.2-0.2s0.1-0.2,0.2-0.4
			C59.8,28.2,59.8,28.1,59.8,27.9z"/>
		<path d="M63.5,29.7v-2.3c0-0.4-0.1-0.6-0.4-0.6c-0.1,0-0.3,0.1-0.4,0.2c-0.1,0.1-0.3,0.3-0.4,0.5v2.2h-0.8v-3.5h0.7l0,0.5
			c0.1-0.1,0.2-0.2,0.2-0.2c0.1-0.1,0.2-0.1,0.2-0.2c0.1,0,0.2-0.1,0.3-0.1c0.1,0,0.2,0,0.3,0c0.2,0,0.3,0,0.5,0.1s0.2,0.1,0.3,0.2
			c0.1,0.1,0.2,0.2,0.2,0.4c0.1,0.1,0.1,0.3,0.1,0.5v2.4C64.4,29.7,63.5,29.7,63.5,29.7z"/>
		<path d="M67.4,29.7v-2.3c0-0.4-0.1-0.6-0.4-0.6c-0.1,0-0.3,0.1-0.4,0.2c-0.1,0.1-0.3,0.3-0.4,0.5v2.2h-0.8v-3.5h0.7l0,0.5
			c0.1-0.1,0.2-0.2,0.2-0.2c0.1-0.1,0.2-0.1,0.2-0.2c0.1,0,0.2-0.1,0.3-0.1s0.2,0,0.3,0c0.2,0,0.3,0,0.5,0.1
			c0.1,0.1,0.2,0.1,0.3,0.2s0.2,0.2,0.2,0.4c0.1,0.1,0.1,0.3,0.1,0.5v2.4C68.3,29.7,67.4,29.7,67.4,29.7z"/>
		<path d="M71.5,29.7l0-0.5c-0.1,0.1-0.2,0.1-0.2,0.2s-0.2,0.1-0.3,0.2s-0.2,0.1-0.3,0.1c-0.1,0-0.2,0-0.4,0c-0.2,0-0.3,0-0.5-0.1
			c-0.1,0-0.2-0.1-0.3-0.2s-0.2-0.2-0.2-0.3s-0.1-0.3-0.1-0.4c0-0.2,0-0.3,0.1-0.5s0.2-0.3,0.3-0.4s0.3-0.2,0.5-0.2s0.5-0.1,0.8-0.1
			h0.5v-0.2c0-0.1,0-0.2,0-0.2s-0.1-0.1-0.1-0.2c-0.1,0-0.1-0.1-0.2-0.1c-0.1,0-0.2,0-0.3,0c-0.2,0-0.4,0-0.6,0.1s-0.4,0.1-0.6,0.2
			v-0.7c0.2-0.1,0.4-0.1,0.6-0.2c0.2,0,0.4-0.1,0.7-0.1c0.3,0,0.5,0,0.7,0.1c0.2,0,0.3,0.1,0.5,0.2c0.1,0.1,0.2,0.2,0.3,0.4
			c0.1,0.1,0.1,0.3,0.1,0.5v2.4L71.5,29.7L71.5,29.7z M71.3,28.1h-0.5c-0.1,0-0.3,0-0.4,0s-0.2,0.1-0.2,0.1c-0.1,0-0.1,0.1-0.1,0.2
			c0,0.1,0,0.1,0,0.2c0,0.1,0.1,0.2,0.1,0.3s0.2,0.1,0.4,0.1c0.1,0,0.2,0,0.4-0.1c0.1-0.1,0.3-0.2,0.4-0.4L71.3,28.1L71.3,28.1z"/>
		<path d="M75.4,27.5c0-0.1,0-0.2,0-0.3c0-0.1-0.1-0.2-0.1-0.2s-0.1-0.1-0.1-0.1s-0.1,0-0.2,0c-0.1,0-0.2,0-0.4,0.1
			c-0.1,0.1-0.3,0.3-0.4,0.5v2.2h-0.9v-3.5h0.8l0,0.5c0.1-0.1,0.1-0.2,0.2-0.2s0.2-0.1,0.2-0.2c0.1,0,0.2-0.1,0.3-0.1s0.2,0,0.4,0
			c0.2,0,0.3,0,0.5,0.1c0.1,0.1,0.2,0.1,0.3,0.3c0.1,0.1,0.2,0.3,0.2,0.5c0.1,0.2,0.1,0.4,0.1,0.6L75.4,27.5L75.4,27.5z"/>
	</g>
</g>
<g>
	<path class="st1" d="M52.7,1.5v-3c0-0.1,0-0.2,0-0.3c0-0.1,0-0.1,0-0.2c0,0,0-0.1-0.1-0.1c0,0-0.1,0-0.1,0c-0.1,0-0.2,0.1-0.3,0.2
		C52-1.8,52-1.6,51.8-1.3v2.8h-0.9v-3c0-0.1,0-0.2,0-0.3c0-0.1,0-0.1,0-0.2c0,0,0-0.1-0.1-0.1c0,0-0.1,0-0.1,0
		c-0.1,0-0.2,0.1-0.2,0.2s-0.2,0.3-0.3,0.6v2.8h-0.9v-4.4H50l0,0.6c0.1-0.1,0.1-0.2,0.2-0.3s0.1-0.2,0.2-0.2s0.2-0.1,0.2-0.1
		c0.1,0,0.2,0,0.3,0c0.2,0,0.4,0.1,0.6,0.2s0.2,0.3,0.2,0.5c0.1-0.1,0.1-0.2,0.2-0.3s0.1-0.2,0.2-0.2s0.2-0.1,0.2-0.1
		c0.1,0,0.2,0,0.3,0c0.3,0,0.5,0.1,0.7,0.3c0.2,0.2,0.2,0.5,0.2,1v3.1L52.7,1.5L52.7,1.5z"/>
	<path class="st1" d="M57.5,1.5v-3c0-0.1,0-0.2,0-0.3c0-0.1,0-0.1,0-0.2c0,0,0-0.1-0.1-0.1c0,0-0.1,0-0.1,0c-0.1,0-0.2,0.1-0.3,0.2
		c-0.1,0.1-0.2,0.3-0.3,0.6v2.8h-0.9v-3c0-0.1,0-0.2,0-0.3c0-0.1,0-0.1,0-0.2c0-0.1,0-0.1-0.1-0.1c0,0-0.1,0-0.1,0
		c-0.1,0-0.2,0.1-0.2,0.2S55.1-1.6,55-1.3v2.8h-0.9v-4.4h0.8l0,0.6C54.9-2.3,55-2.4,55-2.5s0.1-0.2,0.2-0.2s0.2-0.1,0.2-0.1
		c0.1,0,0.2,0,0.3,0c0.2,0,0.4,0.1,0.6,0.2s0.2,0.3,0.2,0.5c0.1-0.1,0.1-0.2,0.2-0.3s0.1-0.2,0.2-0.2s0.2-0.1,0.2-0.1
		c0.1,0,0.2,0,0.3,0c0.3,0,0.5,0.1,0.7,0.3c0.2,0.2,0.2,0.5,0.2,1v3.1C58.4,1.5,57.5,1.5,57.5,1.5z"/>
	<path d="M52.2,2.9c0.1,0.1,0.1,0.2,0.2,0.3s0,0.2,0,0.3c0,0.2,0,0.5-0.1,0.6c-0.1,0.2-0.2,0.3-0.4,0.5c-0.2,0.1-0.3,0.2-0.5,0.3
		c-0.2,0.1-0.5,0.1-0.7,0.1c-0.2,0-0.3,0-0.4-0.1S50,4.9,49.9,4.9c0,0.1-0.1,0.1-0.1,0.2s0,0.1,0,0.2c0,0.1,0,0.1,0,0.1
		c0,0.1,0.1,0.1,0.1,0.1c0,0,0.1,0.1,0.2,0.1s0.1,0,0.2,0l1,0c0.2,0,0.4,0,0.6,0.1c0.2,0.1,0.3,0.1,0.5,0.2s0.2,0.2,0.3,0.4
		c0.1,0.1,0.1,0.3,0.1,0.5c0,0.2,0,0.4-0.1,0.6s-0.2,0.3-0.4,0.5c-0.2,0.1-0.4,0.2-0.7,0.3c-0.3,0.1-0.6,0.1-1,0.1
		c-0.3,0-0.7,0-0.9-0.1c-0.2-0.1-0.5-0.1-0.6-0.2c-0.2-0.1-0.3-0.2-0.4-0.4c-0.1-0.1-0.1-0.3-0.1-0.5c0-0.1,0-0.2,0-0.3
		s0.1-0.2,0.1-0.2c0-0.1,0.1-0.2,0.2-0.2c0.1-0.1,0.2-0.2,0.3-0.2C49.1,6.1,49,6,48.9,5.9c-0.1-0.1-0.1-0.3-0.1-0.4
		c0-0.1,0-0.2,0-0.3c0-0.1,0.1-0.2,0.1-0.2s0.1-0.2,0.1-0.2c0-0.1,0.1-0.1,0.2-0.2c-0.1-0.1-0.2-0.2-0.3-0.4s-0.1-0.4-0.1-0.6
		c0-0.2,0-0.5,0.1-0.6c0.1-0.2,0.2-0.3,0.4-0.5s0.3-0.2,0.5-0.3s0.5-0.1,0.7-0.1c0.1,0,0.2,0,0.4,0s0.2,0,0.3,0.1h1.5v0.8L52.2,2.9
		L52.2,2.9z M49.7,7.1c0,0.2,0.1,0.3,0.3,0.4s0.4,0.1,0.7,0.1c0.2,0,0.4,0,0.5-0.1s0.2-0.1,0.3-0.2c0.1-0.1,0.2-0.1,0.2-0.2
		c0-0.1,0.1-0.2,0.1-0.2c0-0.1,0-0.1,0-0.2s-0.1-0.1-0.2-0.1c-0.1,0-0.1-0.1-0.2-0.1s-0.2,0-0.3,0h-0.9c-0.1,0.1-0.2,0.1-0.2,0.2
		c0,0.1-0.1,0.1-0.1,0.2s0,0.1-0.1,0.2C49.7,7,49.7,7,49.7,7.1z M49.9,3.6c0,0.2,0.1,0.4,0.2,0.5c0.1,0.1,0.3,0.2,0.6,0.2
		c0.1,0,0.2,0,0.3-0.1s0.2-0.1,0.2-0.2s0.1-0.2,0.1-0.2c0-0.1,0-0.2,0-0.3c0-0.2-0.1-0.4-0.2-0.6c-0.1-0.1-0.3-0.2-0.6-0.2
		c-0.1,0-0.2,0-0.3,0.1S50.1,2.9,50.1,3C50,3.1,50,3.2,49.9,3.3C49.9,3.4,49.9,3.5,49.9,3.6z"/>
	<path d="M57.7,4.3c0,0.3,0,0.7-0.2,0.9S57.3,5.8,57.1,6c-0.2,0.2-0.4,0.4-0.7,0.5s-0.6,0.2-0.9,0.2c-0.3,0-0.6-0.1-0.9-0.1
		S54.2,6.2,54,6.1s-0.3-0.4-0.4-0.7c-0.1-0.3-0.1-0.6-0.1-1c0-0.3,0-0.7,0.2-1c0.1-0.3,0.2-0.5,0.4-0.7s0.4-0.4,0.7-0.5
		S55.3,2,55.6,2s0.6,0,0.9,0.1s0.5,0.2,0.7,0.4s0.3,0.4,0.4,0.7C57.6,3.6,57.7,3.9,57.7,4.3z M56.6,4.3c0-0.5-0.1-0.8-0.3-1
		S55.9,3,55.6,3c-0.2,0-0.3,0-0.5,0.1s-0.2,0.2-0.3,0.3c-0.1,0.1-0.1,0.3-0.2,0.4c0,0.2-0.1,0.3-0.1,0.5c0,0.5,0.1,0.8,0.3,1
		s0.4,0.3,0.8,0.3c0.2,0,0.3,0,0.5-0.1c0.1-0.1,0.2-0.2,0.3-0.3s0.1-0.3,0.2-0.4C56.6,4.7,56.6,4.5,56.6,4.3z"/>
	<path d="M61.2,6.5V3.7C61.2,3.2,61,3,60.7,3c-0.2,0-0.3,0.1-0.5,0.2c-0.2,0.1-0.3,0.3-0.5,0.6v2.8h-1V2.2h0.9l0,0.7
		c0.1-0.1,0.2-0.2,0.3-0.3s0.2-0.2,0.3-0.2s0.2-0.1,0.4-0.2c0.1,0,0.3,0,0.4,0c0.2,0,0.4,0,0.6,0.1c0.2,0.1,0.3,0.2,0.4,0.3
		C62,2.6,62.1,2.8,62.2,3c0.1,0.2,0.1,0.4,0.1,0.6v2.9L61.2,6.5L61.2,6.5z"/>
	<path d="M66,6.5V3.7C66,3.2,65.9,3,65.5,3C65.3,3,65.2,3,65,3.2c-0.2,0.1-0.3,0.3-0.5,0.6v2.8h-1V2.2h0.9l0,0.7
		c0.1-0.1,0.2-0.2,0.3-0.3s0.2-0.2,0.3-0.2s0.2-0.1,0.4-0.2c0.1,0,0.3,0,0.4,0c0.2,0,0.4,0,0.6,0.1s0.3,0.2,0.4,0.3
		C66.9,2.6,67,2.8,67,3c0.1,0.2,0.1,0.4,0.1,0.6v2.9L66,6.5L66,6.5z"/>
	<path d="M71,6.5l0-0.6c-0.1,0.1-0.2,0.2-0.3,0.3s-0.2,0.2-0.3,0.2S70.1,6.5,70,6.6c-0.1,0-0.3,0.1-0.5,0.1c-0.2,0-0.4,0-0.6-0.1
		s-0.3-0.2-0.4-0.3S68.3,6,68.2,5.8c-0.1-0.2-0.1-0.3-0.1-0.6c0-0.2,0-0.4,0.1-0.6c0.1-0.2,0.2-0.3,0.4-0.4c0.2-0.1,0.4-0.2,0.7-0.3
		s0.6-0.1,0.9-0.1h0.6V3.6c0-0.1,0-0.2-0.1-0.3c0-0.1-0.1-0.2-0.2-0.2s-0.2-0.1-0.3-0.2c-0.1,0-0.2,0-0.4,0c-0.3,0-0.5,0-0.8,0.1
		s-0.5,0.1-0.7,0.2V2.3c0.2-0.1,0.4-0.2,0.7-0.2c0.3,0,0.6-0.1,0.8-0.1c0.3,0,0.6,0,0.8,0.1s0.4,0.2,0.6,0.3
		c0.2,0.1,0.3,0.3,0.3,0.5c0.1,0.2,0.1,0.4,0.1,0.6v3C71.9,6.5,71,6.5,71,6.5z M70.9,4.6h-0.6c-0.2,0-0.3,0-0.4,0.1
		c-0.1,0-0.2,0.1-0.3,0.1S69.4,4.9,69.3,5s-0.1,0.2-0.1,0.2c0,0.2,0.1,0.3,0.2,0.4c0.1,0.1,0.3,0.1,0.5,0.1c0.2,0,0.3-0.1,0.5-0.2
		c0.2-0.1,0.3-0.3,0.5-0.5L70.9,4.6L70.9,4.6z"/>
	<path d="M75.9,3.8c0-0.2,0-0.3,0-0.4c0-0.1-0.1-0.2-0.1-0.3S75.7,3,75.7,3s-0.2,0-0.2,0c-0.2,0-0.3,0.1-0.5,0.2s-0.3,0.3-0.5,0.6
		v2.8h-1.1V2.2h0.9l0,0.6c0.1-0.1,0.2-0.2,0.2-0.3s0.2-0.2,0.3-0.2s0.2-0.1,0.4-0.2c0.1,0,0.3,0,0.4,0c0.2,0,0.4,0,0.6,0.1
		c0.2,0.1,0.3,0.2,0.4,0.3c0.1,0.2,0.2,0.3,0.3,0.6S77,3.5,77,3.8H75.9z"/>
</g>
<text transform="matrix(1 0 0 1 59.1888 1.4175)" class="st2 st3" style="font-size:3.5982px;">portfolio</text>
<g>
	<path class="st1" d="M8.2,17.2v-3c0-0.1,0-0.2,0-0.3c0-0.1,0-0.1,0-0.2s0-0.1-0.1-0.1c0,0-0.1,0-0.1,0c-0.1,0-0.2,0.1-0.3,0.2
		c-0.1,0.1-0.2,0.3-0.3,0.6v2.8H6.5v-3c0-0.1,0-0.2,0-0.3c0-0.1,0-0.1,0-0.2c0-0.1,0-0.1-0.1-0.1s-0.1,0-0.1,0
		c-0.1,0-0.2,0.1-0.2,0.2s-0.2,0.3-0.3,0.6v2.8H4.8v-4.4h0.8l0,0.6c0.1-0.1,0.1-0.2,0.2-0.3S5.9,13,6,13c0.1-0.1,0.2-0.1,0.2-0.1
		s0.2,0,0.3,0c0.2,0,0.4,0.1,0.6,0.2c0.1,0.1,0.2,0.3,0.2,0.5c0.1-0.1,0.1-0.2,0.2-0.3C7.6,13.1,7.6,13,7.7,13
		c0.1-0.1,0.2-0.1,0.2-0.1c0.1,0,0.2,0,0.3,0c0.3,0,0.6,0.1,0.7,0.3c0.1,0.2,0.2,0.6,0.2,1v3.1L8.2,17.2L8.2,17.2z"/>
	<path class="st1" d="M13.1,17.2v-3c0-0.1,0-0.2,0-0.3c0-0.1,0-0.1,0-0.2c0-0.1,0-0.1-0.1-0.1s-0.1,0-0.1,0c-0.1,0-0.2,0.1-0.3,0.2
		c-0.1,0.1-0.2,0.3-0.3,0.6v2.8h-0.9v-3c0-0.1,0-0.2,0-0.3c0-0.1,0-0.1,0-0.2c0-0.1,0-0.1-0.1-0.1c0,0-0.1,0-0.1,0
		c-0.1,0-0.2,0.1-0.2,0.2s-0.2,0.3-0.3,0.6v2.8H9.7v-4.4h0.8l0,0.6c0.1-0.1,0.1-0.2,0.2-0.3c0.1-0.1,0.1-0.2,0.2-0.2
		c0.1-0.1,0.1-0.1,0.2-0.1s0.2,0,0.3,0c0.2,0,0.4,0.1,0.6,0.2c0.1,0.1,0.2,0.3,0.2,0.5c0.1-0.1,0.1-0.2,0.2-0.3
		c0.1-0.1,0.1-0.2,0.2-0.2c0.1-0.1,0.1-0.1,0.2-0.1c0.1,0,0.2,0,0.3,0c0.3,0,0.6,0.1,0.7,0.3c0.1,0.2,0.2,0.6,0.2,1v3.1L13.1,17.2
		L13.1,17.2z"/>
	<path d="M7.8,18.6c0.1,0.1,0.1,0.2,0.2,0.3S8,19.1,8,19.3c0,0.2,0,0.5-0.1,0.6c-0.1,0.2-0.2,0.3-0.4,0.5c-0.2,0.1-0.3,0.2-0.6,0.3
		s-0.4,0.1-0.7,0.1c-0.2,0-0.3,0-0.4,0c-0.1,0-0.2-0.1-0.3-0.1c-0.1,0-0.1,0.1-0.1,0.2c0,0.1-0.1,0.1-0.1,0.2c0,0,0,0.1,0,0.1
		s0.1,0.1,0.1,0.1s0.1,0.1,0.2,0.1s0.1,0,0.2,0l1,0c0.2,0,0.4,0,0.6,0.1s0.3,0.1,0.5,0.2s0.2,0.2,0.3,0.4s0.1,0.3,0.1,0.5
		c0,0.2-0.1,0.4-0.1,0.6s-0.2,0.3-0.4,0.5s-0.4,0.2-0.7,0.3c-0.3,0.1-0.6,0.1-1,0.1c-0.3,0-0.7,0-0.9-0.1c-0.2-0.1-0.5-0.1-0.6-0.2
		s-0.3-0.2-0.4-0.4s-0.1-0.3-0.1-0.5c0-0.1,0-0.2,0-0.3c0-0.1,0.1-0.2,0.1-0.2c0.1-0.1,0.1-0.2,0.2-0.2S4.7,22,4.8,22
		c-0.1-0.1-0.2-0.2-0.3-0.3s-0.1-0.3-0.1-0.4c0-0.1,0-0.2,0-0.3c0-0.1,0.1-0.2,0.1-0.2c0-0.1,0.1-0.1,0.1-0.2s0.1-0.1,0.2-0.2
		c-0.1-0.1-0.2-0.2-0.3-0.4c-0.1-0.1-0.1-0.3-0.1-0.6c0-0.2,0-0.5,0.1-0.6s0.2-0.4,0.4-0.5s0.3-0.2,0.6-0.3s0.4-0.1,0.7-0.1
		c0.1,0,0.2,0,0.4,0s0.2,0,0.3,0.1h1.5v0.8L7.8,18.6L7.8,18.6z M5.3,22.8c0,0.2,0.1,0.3,0.3,0.4s0.4,0.1,0.7,0.1
		c0.2,0,0.4,0,0.5-0.1c0.1,0,0.2-0.1,0.3-0.1C7.2,23,7.3,23,7.3,22.9s0.1-0.2,0.1-0.2c0-0.1,0-0.1-0.1-0.2c0,0-0.1-0.1-0.2-0.1
		c-0.1,0-0.2-0.1-0.2-0.1s-0.2,0-0.3,0l-0.9,0c-0.1,0.1-0.2,0.1-0.2,0.2s-0.1,0.1-0.1,0.1s-0.1,0.1-0.1,0.1
		C5.3,22.7,5.3,22.7,5.3,22.8z M5.5,19.3c0,0.2,0.1,0.4,0.2,0.5C5.8,20,6,20,6.2,20c0.1,0,0.2,0,0.3-0.1s0.2-0.1,0.2-0.2
		s0.1-0.1,0.1-0.2C7,19.5,7,19.4,7,19.3c0-0.2-0.1-0.4-0.2-0.6c-0.1-0.1-0.3-0.2-0.6-0.2c-0.1,0-0.2,0-0.3,0.1
		c-0.1,0-0.2,0.1-0.2,0.2S5.5,18.9,5.5,19C5.5,19.1,5.5,19.2,5.5,19.3z"/>
	<path d="M13.3,20c0,0.3-0.1,0.7-0.1,0.9s-0.2,0.5-0.4,0.7S12.3,22,12,22.1c-0.3,0.1-0.6,0.2-0.9,0.2c-0.3,0-0.6,0-0.9-0.1
		s-0.5-0.2-0.6-0.4c-0.2-0.2-0.3-0.4-0.4-0.7c-0.1-0.3-0.1-0.6-0.1-1c0-0.4,0.1-0.7,0.1-1s0.2-0.5,0.4-0.7c0.2-0.2,0.4-0.4,0.7-0.5
		c0.3-0.1,0.6-0.2,0.9-0.2s0.6,0,0.9,0.1c0.3,0.1,0.5,0.2,0.6,0.4c0.2,0.2,0.3,0.4,0.4,0.7C13.2,19.3,13.3,19.6,13.3,20z M12.2,20
		c0-0.5-0.1-0.8-0.3-1s-0.4-0.3-0.8-0.3c-0.2,0-0.3,0-0.5,0.1s-0.2,0.2-0.3,0.3s-0.1,0.3-0.2,0.4s-0.1,0.3-0.1,0.5
		c0,0.5,0.1,0.8,0.3,1s0.4,0.4,0.8,0.4c0.2,0,0.3,0,0.5-0.1s0.2-0.2,0.3-0.3c0.1-0.1,0.1-0.3,0.2-0.4C12.1,20.4,12.2,20.2,12.2,20z"
		/>
	<path d="M16.8,22.2v-2.9c0-0.5-0.2-0.7-0.5-0.7c-0.2,0-0.4,0.1-0.5,0.2c-0.2,0.1-0.3,0.3-0.5,0.6v2.8h-1.1v-4.4h0.9l0,0.6
		c0.1-0.1,0.2-0.2,0.3-0.3c0.1-0.1,0.2-0.2,0.3-0.2c0.1-0.1,0.2-0.1,0.4-0.1c0.1,0,0.3,0,0.4,0c0.2,0,0.4,0,0.6,0.1s0.3,0.2,0.4,0.3
		s0.2,0.3,0.2,0.5s0.1,0.4,0.1,0.6v2.9L16.8,22.2L16.8,22.2z"/>
	<path d="M21.6,22.2v-2.9c0-0.5-0.2-0.7-0.5-0.7c-0.2,0-0.4,0.1-0.5,0.2c-0.2,0.1-0.3,0.3-0.5,0.6v2.8h-1v-4.4h0.9l0,0.6
		c0.1-0.1,0.2-0.2,0.3-0.3c0.1-0.1,0.2-0.2,0.3-0.2s0.2-0.1,0.4-0.1c0.1,0,0.3,0,0.4,0c0.2,0,0.4,0,0.6,0.1s0.3,0.2,0.4,0.3
		s0.2,0.3,0.2,0.5c0.1,0.2,0.1,0.4,0.1,0.6v2.9L21.6,22.2L21.6,22.2z"/>
	<path d="M26.6,22.2l0-0.6c-0.1,0.1-0.2,0.2-0.3,0.3s-0.2,0.1-0.3,0.2s-0.2,0.1-0.4,0.1c-0.1,0-0.3,0-0.5,0c-0.2,0-0.4,0-0.6-0.1
		s-0.3-0.2-0.4-0.3c-0.1-0.1-0.2-0.3-0.3-0.4s-0.1-0.4-0.1-0.5c0-0.2,0-0.4,0.1-0.6c0.1-0.2,0.2-0.3,0.4-0.5
		c0.2-0.1,0.4-0.2,0.7-0.3s0.6-0.1,0.9-0.1h0.6v-0.3c0-0.1,0-0.2,0-0.3s-0.1-0.2-0.1-0.2s-0.2-0.1-0.3-0.1c-0.1,0-0.2,0-0.4,0
		c-0.3,0-0.5,0-0.8,0.1s-0.5,0.1-0.7,0.2V18c0.2-0.1,0.5-0.1,0.7-0.2c0.3,0,0.6-0.1,0.9-0.1c0.3,0,0.6,0,0.8,0.1s0.4,0.1,0.6,0.3
		c0.1,0.1,0.3,0.3,0.3,0.5c0.1,0.2,0.1,0.4,0.1,0.6v3H26.6z M26.5,20.3h-0.6c-0.2,0-0.3,0-0.5,0c-0.1,0-0.2,0.1-0.3,0.1
		s-0.1,0.1-0.2,0.2s0,0.2,0,0.2c0,0.2,0.1,0.3,0.2,0.4c0.1,0.1,0.3,0.1,0.5,0.1c0.1,0,0.3,0,0.5-0.2s0.3-0.3,0.5-0.5L26.5,20.3
		L26.5,20.3z"/>
	<path d="M31.5,19.5c0-0.2,0-0.3,0-0.4c0-0.1-0.1-0.2-0.1-0.3s-0.1-0.1-0.2-0.2c-0.1,0-0.1,0-0.2,0c-0.1,0-0.3,0.1-0.5,0.2
		c-0.2,0.1-0.4,0.3-0.5,0.6v2.8h-1.1v-4.4h1l0,0.6c0.1-0.1,0.1-0.2,0.2-0.3s0.2-0.2,0.3-0.2c0.1-0.1,0.2-0.1,0.4-0.1
		c0.1,0,0.3,0,0.4,0c0.2,0,0.4,0,0.6,0.1c0.2,0.1,0.3,0.2,0.4,0.3s0.2,0.3,0.3,0.6c0.1,0.2,0.1,0.5,0.1,0.8L31.5,19.5L31.5,19.5z"/>
</g>
<text transform="matrix(1 0 0 1 14.7812 16.3271)" class="st2 st3 st4">boilerplate</text>
</svg>
