<svg width="35" height="36" viewBox="0 0 35 36" fill="none" xmlns="http://www.w3.org/2000/svg">
<path d="M8.75008 10.5H16.0417C16.4285 10.5 16.7995 10.658 17.0729 10.9393C17.3464 11.2206 17.5001 11.6022 17.5001 12C17.5001 12.3978 17.3464 12.7794 17.0729 13.0607C16.7995 13.342 16.4285 13.5 16.0417 13.5H8.75008C8.36331 13.5 7.99237 13.342 7.71888 13.0607C7.44539 12.7794 7.29175 12.3978 7.29175 12C7.29175 11.6022 7.44539 11.2206 7.71888 10.9393C7.99237 10.658 8.36331 10.5 8.75008 10.5ZM18.9584 22.5H26.2501C26.6369 22.5 27.0078 22.658 27.2813 22.9393C27.5548 23.2206 27.7084 23.6022 27.7084 24C27.7084 24.3978 27.5548 24.7794 27.2813 25.0607C27.0078 25.342 26.6369 25.5 26.2501 25.5H18.9584C18.5716 25.5 18.2007 25.342 17.9272 25.0607C17.6537 24.7794 17.5001 24.3978 17.5001 24C17.5001 23.6022 17.6537 23.2206 17.9272 22.9393C18.2007 22.658 18.5716 22.5 18.9584 22.5ZM8.75008 16.5H26.2501C26.6369 16.5 27.0078 16.658 27.2813 16.9393C27.5548 17.2206 27.7084 17.6022 27.7084 18C27.7084 18.3978 27.5548 18.7794 27.2813 19.0607C27.0078 19.342 26.6369 19.5 26.2501 19.5H8.75008C8.36331 19.5 7.99237 19.342 7.71888 19.0607C7.44539 18.7794 7.29175 18.3978 7.29175 18C7.29175 17.6022 7.44539 17.2206 7.71888 16.9393C7.99237 16.658 8.36331 16.5 8.75008 16.5Z" fill="black"/>
</svg>
