<svg width="157" height="26" viewBox="0 0 157 26" fill="none" xmlns="http://www.w3.org/2000/svg">
<path d="M13.6289 18V6.17383C13.6289 5.74089 13.6175 5.36491 13.5947 5.0459C13.5719 4.71549 13.5264 4.44206 13.458 4.22559C13.3896 4.00911 13.2871 3.84961 13.1504 3.74707C13.0251 3.63314 12.8485 3.57617 12.6206 3.57617C12.2674 3.57617 11.9199 3.81543 11.5781 4.29395C11.2363 4.77246 10.849 5.58708 10.416 6.73779V18H6.84424V6.17383C6.84424 5.74089 6.83285 5.36491 6.81006 5.0459C6.78727 4.71549 6.7417 4.44206 6.67334 4.22559C6.60498 4.00911 6.50244 3.84961 6.36572 3.74707C6.229 3.63314 6.04671 3.57617 5.81885 3.57617C5.52262 3.57617 5.19222 3.81543 4.82764 4.29395C4.46305 4.77246 4.05859 5.58708 3.61426 6.73779V18H0.00830078V0.636719H3.10156L3.16992 3.16602C3.42057 2.65332 3.67122 2.21468 3.92188 1.8501C4.17253 1.48551 4.44027 1.18929 4.7251 0.961426C5.00993 0.722168 5.31185 0.55127 5.63086 0.44873C5.96126 0.346191 6.33154 0.294922 6.7417 0.294922C7.71012 0.294922 8.44499 0.55127 8.94629 1.06396C9.45898 1.56527 9.74951 2.26595 9.81787 3.16602C10.0913 2.65332 10.359 2.21468 10.6211 1.8501C10.8945 1.48551 11.1737 1.18929 11.4585 0.961426C11.7547 0.722168 12.068 0.55127 12.3984 0.44873C12.7402 0.346191 13.1162 0.294922 13.5264 0.294922C14.791 0.294922 15.7253 0.739258 16.3291 1.62793C16.9329 2.50521 17.2349 3.80973 17.2349 5.5415V18H13.6289ZM33.5721 18V6.17383C33.5721 5.74089 33.5607 5.36491 33.5379 5.0459C33.5151 4.71549 33.4695 4.44206 33.4012 4.22559C33.3328 4.00911 33.2303 3.84961 33.0936 3.74707C32.9682 3.63314 32.7916 3.57617 32.5638 3.57617C32.2106 3.57617 31.8631 3.81543 31.5213 4.29395C31.1795 4.77246 30.7921 5.58708 30.3592 6.73779V18H26.7874V6.17383C26.7874 5.74089 26.776 5.36491 26.7532 5.0459C26.7304 4.71549 26.6849 4.44206 26.6165 4.22559C26.5481 4.00911 26.4456 3.84961 26.3089 3.74707C26.1722 3.63314 25.9899 3.57617 25.762 3.57617C25.4658 3.57617 25.1354 3.81543 24.7708 4.29395C24.4062 4.77246 24.0018 5.58708 23.5574 6.73779V18H19.9515V0.636719H23.0447L23.1131 3.16602C23.3637 2.65332 23.6144 2.21468 23.865 1.8501C24.1157 1.48551 24.3834 1.18929 24.6683 0.961426C24.9531 0.722168 25.255 0.55127 25.574 0.44873C25.9044 0.346191 26.2747 0.294922 26.6849 0.294922C27.6533 0.294922 28.3882 0.55127 28.8895 1.06396C29.4021 1.56527 29.6927 2.26595 29.761 3.16602C30.0345 2.65332 30.3022 2.21468 30.5643 1.8501C30.8377 1.48551 31.1168 1.18929 31.4017 0.961426C31.6979 0.722168 32.0112 0.55127 32.3416 0.44873C32.6834 0.346191 33.0594 0.294922 33.4695 0.294922C34.7342 0.294922 35.6684 0.739258 36.2723 1.62793C36.8761 2.50521 37.178 3.80973 37.178 5.5415V18H33.5721Z" fill="#007F51"/>
<path d="M54.2843 3.67871C54.6033 4.07747 54.8255 4.49902 54.9508 4.94336C55.0875 5.3763 55.1559 5.82064 55.1559 6.27637C55.1559 7.24479 54.985 8.09928 54.6432 8.83984C54.3128 9.5804 53.8399 10.2013 53.2247 10.7026C52.6209 11.2039 51.8917 11.5856 51.0372 11.8477C50.1941 12.0983 49.2599 12.2236 48.2345 12.2236C47.6306 12.2236 47.0724 12.1667 46.5597 12.0527C46.047 11.9274 45.6596 11.785 45.3976 11.6255C45.2039 11.8192 45.0387 12.0356 44.902 12.2749C44.7652 12.5028 44.6969 12.7648 44.6969 13.061C44.6969 13.2433 44.7424 13.4256 44.8336 13.6079C44.9247 13.7902 45.0558 13.9554 45.2267 14.1035C45.409 14.2402 45.6197 14.3542 45.859 14.4453C46.1096 14.5365 46.3888 14.5877 46.6964 14.5991L50.815 14.7529C51.7379 14.7757 52.5696 14.8953 53.3102 15.1118C54.0621 15.3169 54.7058 15.6131 55.2413 16.0005C55.7768 16.3879 56.1869 16.8607 56.4718 17.4189C56.768 17.9658 56.9161 18.5924 56.9161 19.2988C56.9161 20.1077 56.7338 20.8711 56.3692 21.5889C56.0047 22.3066 55.4521 22.9276 54.7115 23.4517C53.9824 23.9871 53.0709 24.4087 51.9771 24.7163C50.8834 25.0239 49.6131 25.1777 48.1661 25.1777C46.7647 25.1777 45.5571 25.0638 44.5431 24.8359C43.5405 24.6195 42.7145 24.3118 42.065 23.9131C41.427 23.5143 40.9542 23.0358 40.6466 22.4775C40.339 21.9307 40.1852 21.3268 40.1852 20.666C40.1852 20.2673 40.2364 19.897 40.339 19.5552C40.4415 19.2134 40.5953 18.883 40.8004 18.564C41.0055 18.2563 41.2618 17.9544 41.5694 17.6582C41.8771 17.362 42.2416 17.0658 42.6632 16.7695C42.1049 16.4505 41.6777 16.0404 41.3814 15.5391C41.0966 15.0378 40.9542 14.5023 40.9542 13.9326C40.9542 13.5452 41.0055 13.1864 41.108 12.856C41.2105 12.5142 41.3416 12.1895 41.5011 11.8818C41.672 11.5742 41.8657 11.278 42.0821 10.9932C42.2986 10.7083 42.5265 10.4292 42.7657 10.1558C42.3442 9.73421 41.991 9.22721 41.7062 8.63477C41.4327 8.03092 41.296 7.27897 41.296 6.37891C41.296 5.41048 41.4669 4.55029 41.8087 3.79834C42.1619 3.03499 42.6461 2.39697 43.2613 1.88428C43.8766 1.36019 44.6057 0.967122 45.4488 0.705078C46.3033 0.431641 47.2319 0.294922 48.2345 0.294922C48.7472 0.294922 49.2371 0.323405 49.7042 0.380371C50.1827 0.425944 50.6157 0.511393 51.003 0.636719H57.0187V3.67871H54.2843ZM44.4576 20.3071C44.4576 20.9793 44.7937 21.4749 45.4659 21.7939C46.1495 22.113 47.1065 22.2725 48.337 22.2725C49.1231 22.2725 49.784 22.1984 50.3194 22.0503C50.8663 21.9022 51.3106 21.7085 51.6524 21.4692C51.9942 21.23 52.2392 20.9508 52.3873 20.6318C52.5354 20.3128 52.6095 19.9824 52.6095 19.6406C52.6095 19.333 52.5354 19.071 52.3873 18.8545C52.2506 18.6494 52.0512 18.4728 51.7892 18.3247C51.5385 18.188 51.2366 18.0798 50.8834 18C50.5416 17.9316 50.1599 17.8861 49.7384 17.8633L46.0641 17.7949C45.7337 18.0228 45.4602 18.2393 45.2438 18.4443C45.0387 18.6494 44.8735 18.8488 44.7481 19.0425C44.6342 19.2476 44.5545 19.4526 44.5089 19.6577C44.4747 19.8628 44.4576 20.0793 44.4576 20.3071ZM45.1583 6.37891C45.1583 7.30176 45.426 8.03662 45.9615 8.5835C46.5084 9.11898 47.266 9.38672 48.2345 9.38672C48.7472 9.38672 49.1915 9.30127 49.5675 9.13037C49.9549 8.95947 50.2739 8.73161 50.5245 8.44678C50.7752 8.16195 50.9632 7.83154 51.0885 7.45557C51.2138 7.07959 51.2765 6.68652 51.2765 6.27637C51.2765 5.30794 51.003 4.55599 50.4562 4.02051C49.9207 3.47363 49.1687 3.2002 48.2003 3.2002C47.6876 3.2002 47.2376 3.28564 46.8502 3.45654C46.4742 3.62744 46.1609 3.861 45.9103 4.15723C45.6596 4.44206 45.4716 4.77816 45.3463 5.16553C45.221 5.5529 45.1583 5.95736 45.1583 6.37891ZM76.8422 9.18164C76.8422 10.5488 76.6485 11.8021 76.2611 12.9414C75.8738 14.0693 75.3155 15.0378 74.5863 15.8467C73.8572 16.6556 72.9628 17.2822 71.9032 17.7266C70.8437 18.1709 69.636 18.3931 68.2802 18.3931C66.9927 18.3931 65.842 18.2051 64.828 17.8291C63.814 17.4531 62.9538 16.8949 62.2475 16.1543C61.5411 15.4023 60.9999 14.4681 60.6239 13.3516C60.2479 12.2236 60.06 10.9134 60.06 9.4209C60.06 8.04232 60.2536 6.78906 60.641 5.66113C61.0398 4.5332 61.6037 3.57048 62.3329 2.77295C63.0735 1.97542 63.9735 1.36019 65.0331 0.927246C66.0927 0.48291 67.289 0.260742 68.622 0.260742C69.9208 0.260742 71.0772 0.454427 72.0912 0.841797C73.1052 1.21777 73.9654 1.78174 74.6718 2.53369C75.3782 3.28564 75.9136 4.21989 76.2782 5.33643C76.6542 6.44157 76.8422 7.72331 76.8422 9.18164ZM72.5014 9.28418C72.5014 7.48405 72.1596 6.13395 71.476 5.23389C70.8038 4.32243 69.8069 3.8667 68.4853 3.8667C67.7561 3.8667 67.1352 4.00911 66.6225 4.29395C66.1098 4.57878 65.6882 4.97184 65.3578 5.47314C65.0274 5.96305 64.7825 6.53841 64.6229 7.19922C64.4748 7.86003 64.4008 8.56641 64.4008 9.31836C64.4008 11.1299 64.7654 12.4971 65.4945 13.4199C66.2237 14.3314 67.2206 14.7871 68.4853 14.7871C69.1802 14.7871 69.7841 14.6504 70.2968 14.377C70.8095 14.0921 71.2253 13.7048 71.5443 13.2148C71.8633 12.7135 72.1026 12.1268 72.2621 11.4546C72.4216 10.7824 72.5014 10.0589 72.5014 9.28418ZM91.5046 18V6.68652C91.5046 4.78385 90.7982 3.83252 89.3855 3.83252C88.6791 3.83252 88.0012 4.11735 87.3518 4.68701C86.7137 5.25667 86.0358 6.03141 85.3181 7.01123V18H81.1481V0.636719H84.7541L84.8566 3.2002C85.2098 2.75586 85.5744 2.3514 85.9504 1.98682C86.3378 1.62223 86.7536 1.31462 87.198 1.06396C87.6423 0.801921 88.1208 0.602539 88.6335 0.46582C89.1462 0.329102 89.7216 0.260742 90.3596 0.260742C91.2482 0.260742 92.023 0.408854 92.6838 0.705078C93.3446 0.989909 93.8972 1.40007 94.3415 1.93555C94.7858 2.45964 95.1162 3.09766 95.3327 3.84961C95.5606 4.59017 95.6745 5.42188 95.6745 6.34473V18H91.5046ZM111.448 18V6.68652C111.448 4.78385 110.741 3.83252 109.329 3.83252C108.622 3.83252 107.944 4.11735 107.295 4.68701C106.657 5.25667 105.979 6.03141 105.261 7.01123V18H101.091V0.636719H104.697L104.8 3.2002C105.153 2.75586 105.518 2.3514 105.894 1.98682C106.281 1.62223 106.697 1.31462 107.141 1.06396C107.585 0.801921 108.064 0.602539 108.577 0.46582C109.089 0.329102 109.665 0.260742 110.303 0.260742C111.191 0.260742 111.966 0.408854 112.627 0.705078C113.288 0.989909 113.84 1.40007 114.285 1.93555C114.729 2.45964 115.059 3.09766 115.276 3.84961C115.504 4.59017 115.618 5.42188 115.618 6.34473V18H111.448ZM131.921 18L131.818 15.7271C131.454 16.1144 131.072 16.4733 130.673 16.8037C130.274 17.1227 129.836 17.4019 129.357 17.6411C128.879 17.8804 128.355 18.0627 127.785 18.188C127.227 18.3247 126.611 18.3931 125.939 18.3931C125.051 18.3931 124.27 18.262 123.598 18C122.926 17.738 122.362 17.3734 121.906 16.9062C121.45 16.4391 121.103 15.8752 120.864 15.2144C120.636 14.5535 120.522 13.8244 120.522 13.0269C120.522 12.2065 120.693 11.4489 121.034 10.7539C121.388 10.0589 121.917 9.46077 122.624 8.95947C123.342 8.45817 124.23 8.0651 125.29 7.78027C126.361 7.49544 127.614 7.35303 129.05 7.35303H131.323V6.31055C131.323 5.86621 131.26 5.46745 131.135 5.11426C131.009 4.74967 130.804 4.44206 130.519 4.19141C130.246 3.94076 129.887 3.74707 129.443 3.61035C128.998 3.47363 128.451 3.40527 127.802 3.40527C126.777 3.40527 125.763 3.5249 124.76 3.76416C123.769 3.99202 122.806 4.31673 121.872 4.73828V1.40576C122.704 1.07536 123.661 0.801921 124.743 0.585449C125.837 0.368978 126.97 0.260742 128.144 0.260742C129.431 0.260742 130.536 0.386068 131.459 0.636719C132.382 0.875977 133.14 1.24056 133.732 1.73047C134.336 2.22038 134.78 2.83561 135.065 3.57617C135.35 4.30534 135.492 5.15983 135.492 6.13965V18H131.921ZM131.323 10.3267H128.776C128.07 10.3267 127.472 10.395 126.982 10.5317C126.492 10.6685 126.093 10.8564 125.785 11.0957C125.478 11.335 125.25 11.6141 125.102 11.9331C124.965 12.2407 124.897 12.5711 124.897 12.9243C124.897 13.6307 125.125 14.1719 125.58 14.5479C126.036 14.9124 126.657 15.0947 127.443 15.0947C128.024 15.0947 128.628 14.884 129.255 14.4624C129.881 14.0409 130.571 13.437 131.323 12.6509V10.3267ZM152.154 7.38721C152.177 6.73779 152.143 6.18522 152.052 5.72949C151.972 5.27376 151.835 4.89779 151.642 4.60156C151.459 4.30534 151.232 4.08887 150.958 3.95215C150.685 3.81543 150.371 3.74707 150.018 3.74707C149.403 3.74707 148.765 4.00342 148.104 4.51611C147.455 5.01742 146.737 5.84912 145.951 7.01123V18H141.678V0.636719H145.455L145.609 3.16602C145.894 2.72168 146.213 2.32292 146.566 1.96973C146.931 1.61654 147.329 1.31462 147.762 1.06396C148.207 0.801921 148.697 0.602539 149.232 0.46582C149.768 0.329102 150.354 0.260742 150.992 0.260742C151.87 0.260742 152.644 0.414551 153.316 0.722168C154 1.01839 154.57 1.46273 155.025 2.05518C155.493 2.64762 155.834 3.39388 156.051 4.29395C156.279 5.18262 156.376 6.2137 156.341 7.38721H152.154Z" fill="black"/>
</svg>
