<?xml version="1.0" encoding="utf-8"?>
<!-- Generator: Adobe Illustrator 25.4.1, SVG Export Plug-In . SVG Version: 6.00 Build 0)  -->
<svg version="1.1" id="Capa_1" xmlns="http://www.w3.org/2000/svg" xmlns:xlink="http://www.w3.org/1999/xlink" x="0px" y="0px"
	 viewBox="0 0 90.7 90.7" style="enable-background:new 0 0 90.7 90.7;" xml:space="preserve">
<style type="text/css">
	.st0{fill:#818282;}
	.st1{fill:none;stroke:#818282;stroke-width:5;stroke-miterlimit:10;}
</style>
<g>
	<g>
		<path class="st0" d="M67,67h-9V52.8c0-3.4-0.1-7.7-4.7-7.7c-4.7,0-5.4,3.7-5.4,7.5V67h-9V37.8h8.7v4h0.1c1.8-3,5.1-4.8,8.6-4.7
			c9.2,0,10.9,6,10.9,13.9L67,67L67,67z"/>
		<path class="st0" d="M28.5,33.8c-2.9,0-5.3-2.4-5.3-5.3s2.4-5.3,5.3-5.3c2.9,0,5.3,2.4,5.3,5.3C33.8,31.5,31.4,33.8,28.5,33.8"/>
		<polygon class="st0" points="33,67 24,67 24,37.8 33,37.8 33,67 		"/>
	</g>
	<path class="st1" d="M74,12H16.9c-2.7,0-4.9,2.1-4.9,4.8v57.4c0,2.7,2.2,4.9,4.9,4.8H74c2.7,0,4.9-2.1,5-4.8V16.8
		C79,14.1,76.8,11.9,74,12"/>
</g>
</svg>
