<?xml version="1.0" encoding="utf-8"?>
<!-- Generator: Adobe Illustrator 25.4.1, SVG Export Plug-In . SVG Version: 6.00 Build 0)  -->
<svg version="1.1" id="Capa_1" xmlns="http://www.w3.org/2000/svg" xmlns:xlink="http://www.w3.org/1999/xlink" x="0px" y="0px"
	 viewBox="0 0 90.7 90.7" style="enable-background:new 0 0 90.7 90.7;" xml:space="preserve">
<style type="text/css">
	.st0{fill:#818282;}
</style>
<path class="st0" d="M87.3,55.7V35.2c0-3.8,0-7.2-0.3-9.7c-0.5-3.2-1.4-5.2-3.1-6.9c-1.7-1.7-3.8-2.6-6.9-3.1
	c-2.6-0.3-5.8-0.3-9.7-0.3H23.5c-4.1,0-7.2,0-9.8,0.3c-3.2,0.5-5.3,1.4-6.9,3.1c-1.7,1.7-2.6,3.8-3.1,7c-0.3,2.5-0.3,5.8-0.3,9.8
	v20.5c0,4.1,0,7.2,0.3,9.7c0.5,3.2,1.4,5.2,3.1,6.9s3.8,2.6,6.9,3.1c2.6,0.3,5.8,0.3,9.7,0.3H67c4.1,0,7.2,0,9.8-0.3
	c3.2-0.5,5.3-1.4,6.9-3.1c1.7-1.7,2.6-3.8,3.1-7C87.3,63,87.3,59.7,87.3,55.7z M81.5,63.4L60.8,43.9l20.6-16.6c0.2,2,0.2,4.6,0.2,8
	v20.2C81.6,58.8,81.6,61.3,81.5,63.4z M46.9,47.6c-0.9,0.6-1.2,0.6-1.6,0.6c-0.3,0-0.7-0.1-1.6-0.7c-1-0.6-2.1-1.6-3.8-2.9
	L11.7,21.9c0.6-0.3,1.5-0.6,2.8-0.8c2.1-0.3,5.3-0.3,9.2-0.3h43.4c3.8,0,6.9,0,9.2,0.3c1.4,0.2,2.1,0.5,2.7,0.8L50.7,44.6
	C49,45.9,47.8,47,46.9,47.6z M76.3,69.8c-2.1,0.3-5.1,0.3-9.2,0.3H23.7c-4.1,0-6.9,0-9.2-0.3c-1.6-0.2-2.5-0.6-3.1-0.9l22.7-21.5
	l2,1.7c1.7,1.4,3.1,2.5,4.4,3.3c1.7,1,3.1,1.5,4.6,1.5s2.9-0.5,4.6-1.5c1.2-0.8,2.7-1.9,4.4-3.3l2-1.7L79.2,69
	C78.5,69.3,77.7,69.7,76.3,69.8z M9.2,27.3l20.5,16.5L9.3,63.1c-0.1-1.9-0.1-4.4-0.1-7.5V35.4C9.1,31.9,9.1,29.3,9.2,27.3z"/>
</svg>
