<?xml version="1.0" encoding="utf-8"?>
<!-- Generator: Adobe Illustrator 25.4.1, SVG Export Plug-In . SVG Version: 6.00 Build 0)  -->
<svg version="1.1" id="Capa_1" xmlns="http://www.w3.org/2000/svg" xmlns:xlink="http://www.w3.org/1999/xlink" x="0px" y="0px"
	 viewBox="0 0 90.7 90.7" style="enable-background:new 0 0 90.7 90.7;" xml:space="preserve">
<style type="text/css">
	.st0{fill:#818282;}
</style>
<path class="st0" d="M82.5,54.5l0-18.1c0-3.4,0-6.4-0.3-8.6c-0.4-2.8-1.2-4.6-2.7-6.1c-1.5-1.5-3.4-2.3-6.1-2.7
	c-2.3-0.3-5.1-0.3-8.6-0.3H26c-3.6,0-6.4,0-8.7,0.3c-2.8,0.4-4.7,1.2-6.1,2.7c-1.5,1.5-2.3,3.4-2.7,6.2c-0.3,2.2-0.3,5.1-0.3,8.7
	l0,18.1c0,3.6,0,6.4,0.3,8.6c0.4,2.8,1.2,4.6,2.7,6.1c1.5,1.5,3.4,2.3,6.1,2.7c2.3,0.3,5.1,0.3,8.6,0.3h38.6c3.6,0,6.4,0,8.7-0.3
	c2.8-0.4,4.7-1.2,6.1-2.7c1.5-1.5,2.3-3.4,2.7-6.2C82.5,61,82.5,58.1,82.5,54.5z M77.3,61.3L59,44.1l18.2-14.7
	c0.2,1.8,0.2,4.1,0.2,7.1l0,17.9C77.4,57.3,77.4,59.5,77.3,61.3z M46.7,47.4c-0.8,0.5-1.1,0.5-1.4,0.5s-0.6-0.1-1.4-0.6
	c-0.9-0.5-1.9-1.4-3.4-2.6L15.6,24.6c0.5-0.3,1.3-0.5,2.5-0.7c1.9-0.3,4.7-0.3,8.1-0.3h38.4c3.4,0,6.1,0,8.1,0.3
	c1.2,0.2,1.9,0.4,2.4,0.7L50.1,44.7C48.6,45.9,47.5,46.8,46.7,47.4z M72.7,67c-1.9,0.3-4.5,0.3-8.1,0.3H26.2c-3.6,0-6.1,0-8.1-0.3
	c-1.4-0.2-2.2-0.5-2.7-0.8l20.1-19l1.8,1.5c1.5,1.2,2.7,2.2,3.9,2.9c1.5,0.9,2.7,1.3,4.1,1.3s2.6-0.4,4.1-1.3
	c1.1-0.7,2.4-1.7,3.9-2.9l1.8-1.5l20.2,19.1C74.7,66.6,74,66.9,72.7,67z M13.4,29.4l18.1,14.6L13.5,61.1c-0.1-1.7-0.1-3.9-0.1-6.6
	l0-17.9C13.3,33.5,13.3,31.2,13.4,29.4z"/>
</svg>
