<?xml version="1.0" encoding="utf-8"?>
<!-- Generator: Adobe Illustrator 28.0.0, SVG Export Plug-In . SVG Version: 6.00 Build 0)  -->
<svg version="1.1" id="Capa_1" xmlns="http://www.w3.org/2000/svg" xmlns:xlink="http://www.w3.org/1999/xlink" x="0px" y="0px"
	 viewBox="0 0 90.7 90.7" style="enable-background:new 0 0 90.7 90.7;" xml:space="preserve">
<style type="text/css">
	.st0{fill:#F7F7F7;}
</style>
<g>
	<g>
		<path class="st0" d="M67,67h-9V52.8c0-3.4-0.1-7.7-4.7-7.7c-4.7,0-5.4,3.7-5.4,7.5V67h-9V37.8h8.7v4h0.1c1.8-3,5.1-4.8,8.6-4.7
			c9.2,0,10.9,6,10.9,13.9L67,67L67,67z"/>
		<path class="st0" d="M28.5,33.8c-2.9,0-5.3-2.4-5.3-5.3s2.4-5.3,5.3-5.3s5.3,2.4,5.3,5.3C33.8,31.5,31.4,33.8,28.5,33.8"/>
		<polygon class="st0" points="33,67 24,67 24,37.8 33,37.8 		"/>
	</g>
	<path class="st0" d="M16.6,81.5c-1.8,0-3.5-0.7-4.9-2c-1.4-1.4-2.2-3.3-2.2-5.3V16.8c0-4,3.3-7.3,7.4-7.3H74c2-0.1,3.9,0.7,5.3,2
		c1.4,1.4,2.2,3.3,2.2,5.3v57.4c-0.2,4.1-3.4,7.3-7.5,7.3H16.9C16.8,81.5,16.7,81.5,16.6,81.5z M16.9,14.5c-1.3,0-2.4,1-2.4,2.3
		v57.4c0,0.6,0.3,1.2,0.7,1.7c0.4,0.4,1,0.6,1.6,0.6l57.2,0c1.4,0,2.5-1.1,2.5-2.4l0-57.3c0-0.6-0.2-1.2-0.7-1.7
		c-0.5-0.4-1-0.7-1.7-0.6l-0.1,0H16.9z"/>
</g>
</svg>
