<?xml version="1.0" encoding="utf-8"?>
<!-- Generator: Adobe Illustrator 28.0.0, SVG Export Plug-In . SVG Version: 6.00 Build 0)  -->
<svg version="1.1" id="Layer_1" xmlns="http://www.w3.org/2000/svg" xmlns:xlink="http://www.w3.org/1999/xlink" x="0px" y="0px"
	 viewBox="0 0 157 26" style="enable-background:new 0 0 157 26;" xml:space="preserve">
<style type="text/css">
	.st0{fill:#8E8E8E;}
	.st1{fill:#F7F7F7;}
</style>
<path class="st0" d="M13.6,18V6.2c0-0.4,0-0.8,0-1.1c0-0.3-0.1-0.6-0.1-0.8c-0.1-0.2-0.2-0.4-0.3-0.5c-0.1-0.1-0.3-0.2-0.5-0.2
	c-0.4,0-0.7,0.2-1,0.7c-0.3,0.5-0.7,1.3-1.2,2.4V18H6.8V6.2c0-0.4,0-0.8,0-1.1c0-0.3-0.1-0.6-0.1-0.8C6.6,4,6.5,3.8,6.4,3.7
	C6.2,3.6,6,3.6,5.8,3.6c-0.3,0-0.6,0.2-1,0.7C4.5,4.8,4.1,5.6,3.6,6.7V18H0V0.6h3.1l0.1,2.5c0.3-0.5,0.5-1,0.8-1.3
	C4.2,1.5,4.4,1.2,4.7,1C5,0.7,5.3,0.6,5.6,0.4C6,0.3,6.3,0.3,6.7,0.3c1,0,1.7,0.3,2.2,0.8c0.5,0.5,0.8,1.2,0.9,2.1
	c0.3-0.5,0.5-1,0.8-1.3c0.3-0.4,0.6-0.7,0.8-0.9c0.3-0.2,0.6-0.4,0.9-0.5c0.3-0.1,0.7-0.2,1.1-0.2c1.3,0,2.2,0.4,2.8,1.3
	c0.6,0.9,0.9,2.2,0.9,3.9V18H13.6z M33.6,18V6.2c0-0.4,0-0.8,0-1.1c0-0.3-0.1-0.6-0.1-0.8c-0.1-0.2-0.2-0.4-0.3-0.5
	c-0.1-0.1-0.3-0.2-0.5-0.2c-0.4,0-0.7,0.2-1,0.7c-0.3,0.5-0.7,1.3-1.2,2.4V18h-3.6V6.2c0-0.4,0-0.8,0-1.1c0-0.3-0.1-0.6-0.1-0.8
	c-0.1-0.2-0.2-0.4-0.3-0.5c-0.1-0.1-0.3-0.2-0.5-0.2c-0.3,0-0.6,0.2-1,0.7c-0.4,0.5-0.8,1.3-1.2,2.4V18H20V0.6H23l0.1,2.5
	c0.3-0.5,0.5-1,0.8-1.3c0.3-0.4,0.5-0.7,0.8-0.9c0.3-0.2,0.6-0.4,0.9-0.5c0.3-0.1,0.7-0.2,1.1-0.2c1,0,1.7,0.3,2.2,0.8
	c0.5,0.5,0.8,1.2,0.9,2.1c0.3-0.5,0.5-1,0.8-1.3c0.3-0.4,0.6-0.7,0.8-0.9c0.3-0.2,0.6-0.4,0.9-0.5c0.3-0.1,0.7-0.2,1.1-0.2
	c1.3,0,2.2,0.4,2.8,1.3c0.6,0.9,0.9,2.2,0.9,3.9V18H33.6z"/>
<path class="st1" d="M54.3,3.7c0.3,0.4,0.5,0.8,0.7,1.3c0.1,0.4,0.2,0.9,0.2,1.3c0,1-0.2,1.8-0.5,2.6c-0.3,0.7-0.8,1.4-1.4,1.9
	c-0.6,0.5-1.3,0.9-2.2,1.1c-0.8,0.3-1.8,0.4-2.8,0.4c-0.6,0-1.2-0.1-1.7-0.2c-0.5-0.1-0.9-0.3-1.2-0.4c-0.2,0.2-0.4,0.4-0.5,0.6
	c-0.1,0.2-0.2,0.5-0.2,0.8c0,0.2,0,0.4,0.1,0.5c0.1,0.2,0.2,0.3,0.4,0.5c0.2,0.1,0.4,0.3,0.6,0.3c0.3,0.1,0.5,0.1,0.8,0.2l4.1,0.2
	c0.9,0,1.8,0.1,2.5,0.4c0.8,0.2,1.4,0.5,1.9,0.9s0.9,0.9,1.2,1.4c0.3,0.5,0.4,1.2,0.4,1.9c0,0.8-0.2,1.6-0.5,2.3
	c-0.4,0.7-0.9,1.3-1.7,1.9c-0.7,0.5-1.6,1-2.7,1.3c-1.1,0.3-2.4,0.5-3.8,0.5c-1.4,0-2.6-0.1-3.6-0.3c-1-0.2-1.8-0.5-2.5-0.9
	c-0.6-0.4-1.1-0.9-1.4-1.4c-0.3-0.5-0.5-1.2-0.5-1.8c0-0.4,0.1-0.8,0.2-1.1c0.1-0.3,0.3-0.7,0.5-1c0.2-0.3,0.5-0.6,0.8-0.9
	c0.3-0.3,0.7-0.6,1.1-0.9c-0.6-0.3-1-0.7-1.3-1.2c-0.3-0.5-0.4-1-0.4-1.6c0-0.4,0.1-0.7,0.2-1.1c0.1-0.3,0.2-0.7,0.4-1
	c0.2-0.3,0.4-0.6,0.6-0.9c0.2-0.3,0.4-0.6,0.7-0.8c-0.4-0.4-0.8-0.9-1.1-1.5c-0.3-0.6-0.4-1.4-0.4-2.3c0-1,0.2-1.8,0.5-2.6
	c0.4-0.8,0.8-1.4,1.5-1.9c0.6-0.5,1.3-0.9,2.2-1.2c0.9-0.3,1.8-0.4,2.8-0.4c0.5,0,1,0,1.5,0.1c0.5,0,0.9,0.1,1.3,0.3h6v3H54.3z
	 M44.5,20.3c0,0.7,0.3,1.2,1,1.5c0.7,0.3,1.6,0.5,2.9,0.5c0.8,0,1.4-0.1,2-0.2c0.5-0.1,1-0.3,1.3-0.6c0.3-0.2,0.6-0.5,0.7-0.8
	c0.1-0.3,0.2-0.6,0.2-1c0-0.3-0.1-0.6-0.2-0.8c-0.1-0.2-0.3-0.4-0.6-0.5c-0.3-0.1-0.6-0.2-0.9-0.3c-0.3-0.1-0.7-0.1-1.1-0.1
	l-3.7-0.1c-0.3,0.2-0.6,0.4-0.8,0.6c-0.2,0.2-0.4,0.4-0.5,0.6c-0.1,0.2-0.2,0.4-0.2,0.6C44.5,19.9,44.5,20.1,44.5,20.3z M45.2,6.4
	c0,0.9,0.3,1.7,0.8,2.2c0.5,0.5,1.3,0.8,2.3,0.8c0.5,0,1-0.1,1.3-0.3c0.4-0.2,0.7-0.4,1-0.7c0.3-0.3,0.4-0.6,0.6-1
	c0.1-0.4,0.2-0.8,0.2-1.2c0-1-0.3-1.7-0.8-2.3c-0.5-0.5-1.3-0.8-2.3-0.8c-0.5,0-1,0.1-1.4,0.3c-0.4,0.2-0.7,0.4-0.9,0.7
	c-0.3,0.3-0.4,0.6-0.6,1C45.2,5.6,45.2,6,45.2,6.4z M76.8,9.2c0,1.4-0.2,2.6-0.6,3.8c-0.4,1.1-0.9,2.1-1.7,2.9
	c-0.7,0.8-1.6,1.4-2.7,1.9c-1.1,0.4-2.3,0.7-3.6,0.7c-1.3,0-2.4-0.2-3.5-0.6c-1-0.4-1.9-0.9-2.6-1.7c-0.7-0.8-1.2-1.7-1.6-2.8
	c-0.4-1.1-0.6-2.4-0.6-3.9c0-1.4,0.2-2.6,0.6-3.8c0.4-1.1,1-2.1,1.7-2.9C63.1,2,64,1.4,65,0.9c1.1-0.4,2.3-0.7,3.6-0.7
	c1.3,0,2.5,0.2,3.5,0.6c1,0.4,1.9,0.9,2.6,1.7s1.2,1.7,1.6,2.8C76.7,6.4,76.8,7.7,76.8,9.2z M72.5,9.3c0-1.8-0.3-3.2-1-4.1
	c-0.7-0.9-1.7-1.4-3-1.4c-0.7,0-1.4,0.1-1.9,0.4c-0.5,0.3-0.9,0.7-1.3,1.2C65,6,64.8,6.5,64.6,7.2c-0.1,0.7-0.2,1.4-0.2,2.1
	c0,1.8,0.4,3.2,1.1,4.1c0.7,0.9,1.7,1.4,3,1.4c0.7,0,1.3-0.1,1.8-0.4c0.5-0.3,0.9-0.7,1.2-1.2c0.3-0.5,0.6-1.1,0.7-1.8
	C72.4,10.8,72.5,10.1,72.5,9.3z M91.5,18V6.7c0-1.9-0.7-2.9-2.1-2.9c-0.7,0-1.4,0.3-2,0.9C86.7,5.3,86,6,85.3,7v11h-4.2V0.6h3.6
	l0.1,2.6C85.2,2.8,85.6,2.4,86,2c0.4-0.4,0.8-0.7,1.2-0.9c0.4-0.3,0.9-0.5,1.4-0.6c0.5-0.1,1.1-0.2,1.7-0.2c0.9,0,1.7,0.1,2.3,0.4
	c0.7,0.3,1.2,0.7,1.7,1.2c0.4,0.5,0.8,1.2,1,1.9c0.2,0.7,0.3,1.6,0.3,2.5V18H91.5z M111.4,18V6.7c0-1.9-0.7-2.9-2.1-2.9
	c-0.7,0-1.4,0.3-2,0.9c-0.6,0.6-1.3,1.3-2,2.3v11h-4.2V0.6h3.6l0.1,2.6c0.4-0.4,0.7-0.8,1.1-1.2c0.4-0.4,0.8-0.7,1.2-0.9
	c0.4-0.3,0.9-0.5,1.4-0.6c0.5-0.1,1.1-0.2,1.7-0.2c0.9,0,1.7,0.1,2.3,0.4c0.7,0.3,1.2,0.7,1.7,1.2c0.4,0.5,0.8,1.2,1,1.9
	c0.2,0.7,0.3,1.6,0.3,2.5V18H111.4z M131.9,18l-0.1-2.3c-0.4,0.4-0.7,0.7-1.1,1.1c-0.4,0.3-0.8,0.6-1.3,0.8c-0.5,0.2-1,0.4-1.6,0.5
	c-0.6,0.1-1.2,0.2-1.8,0.2c-0.9,0-1.7-0.1-2.3-0.4s-1.2-0.6-1.7-1.1c-0.5-0.5-0.8-1-1-1.7c-0.2-0.7-0.3-1.4-0.3-2.2
	c0-0.8,0.2-1.6,0.5-2.3c0.4-0.7,0.9-1.3,1.6-1.8c0.7-0.5,1.6-0.9,2.7-1.2c1.1-0.3,2.3-0.4,3.8-0.4h2.3v-1c0-0.4-0.1-0.8-0.2-1.2
	c-0.1-0.4-0.3-0.7-0.6-0.9c-0.3-0.3-0.6-0.4-1.1-0.6c-0.4-0.1-1-0.2-1.6-0.2c-1,0-2,0.1-3,0.4c-1,0.2-2,0.6-2.9,1V1.4
	c0.8-0.3,1.8-0.6,2.9-0.8c1.1-0.2,2.2-0.3,3.4-0.3c1.3,0,2.4,0.1,3.3,0.4c0.9,0.2,1.7,0.6,2.3,1.1c0.6,0.5,1,1.1,1.3,1.8
	c0.3,0.7,0.4,1.6,0.4,2.6V18H131.9z M131.3,10.3h-2.5c-0.7,0-1.3,0.1-1.8,0.2c-0.5,0.1-0.9,0.3-1.2,0.6c-0.3,0.2-0.5,0.5-0.7,0.8
	c-0.1,0.3-0.2,0.6-0.2,1c0,0.7,0.2,1.2,0.7,1.6c0.5,0.4,1.1,0.5,1.9,0.5c0.6,0,1.2-0.2,1.8-0.6c0.6-0.4,1.3-1,2.1-1.8V10.3z
	 M152.2,7.4c0-0.6,0-1.2-0.1-1.7c-0.1-0.5-0.2-0.8-0.4-1.1c-0.2-0.3-0.4-0.5-0.7-0.6c-0.3-0.1-0.6-0.2-0.9-0.2
	c-0.6,0-1.3,0.3-1.9,0.8C147.5,5,146.7,5.8,146,7v11h-4.3V0.6h3.8l0.2,2.5c0.3-0.4,0.6-0.8,1-1.2c0.4-0.4,0.8-0.7,1.2-0.9
	c0.4-0.3,0.9-0.5,1.5-0.6c0.5-0.1,1.1-0.2,1.8-0.2c0.9,0,1.7,0.2,2.3,0.5c0.7,0.3,1.3,0.7,1.7,1.3c0.5,0.6,0.8,1.3,1,2.2
	c0.2,0.9,0.3,1.9,0.3,3.1H152.2z"/>
</svg>
